<svg width="73" height="73" viewBox="0 0 73 73" fill="none" xmlns="http://www.w3.org/2000/svg">
<path d="M9.71631 51.6196C9.78509 58.4177 9.71631 68.1002 9.71631 68.1002H38.9036L32.0825 50.2691L9.71631 51.6196Z" fill="#263238"/>
<path d="M47.176 48.091C48.476 48.5243 51.1976 48.8774 52.305 49.0631C53.0112 49.3383 54.1805 49.9802 54.5817 50.2095C54.983 50.4388 54.2814 51.0716 53.401 50.7621C52.5205 50.4525 49.0447 49.751 49.0447 49.751L47.176 48.091Z" fill="#F28F8F"/>
<path d="M55.7899 53.3806C55.4574 52.7753 55.1318 52.1402 54.7879 51.567C54.6458 51.3377 53.2838 50.2211 52.6258 49.7969C52.466 49.6861 52.2955 49.5916 52.1168 49.5149C51.4194 49.2836 50.7089 49.0937 49.9891 48.9463C49.2164 48.7423 48.446 48.5267 47.6963 48.2791C47.0786 48.1305 46.5307 47.7744 46.1441 47.2703C45.4173 46.454 44.5391 45.5782 43.8283 44.7482C42.6819 43.3725 39.0135 39.2272 38.2775 38.3284L32.9124 41.0339C32.9124 41.6071 32.9124 42.5884 34.4256 43.8838C37.9542 46.9057 39.6715 48.1576 41.5057 49.68C43.0648 50.9731 43.0121 51.5784 43.8742 51.9407C44.4248 52.1541 44.9967 52.3079 45.58 52.3993C45.8408 52.4492 46.0987 52.5127 46.3527 52.5896C46.6095 52.6652 48.187 53.227 48.3979 53.3072C49.0519 53.5332 49.6906 53.8013 50.3101 54.1097C50.4 54.1547 50.4852 54.2085 50.5646 54.2702C50.6378 54.3304 50.7047 54.398 50.7641 54.4719C50.9521 54.6898 51.0873 54.9557 51.2731 55.1735C51.3519 55.2634 51.4361 55.3484 51.5253 55.428C51.8463 55.7032 52.3071 55.9279 52.7359 55.788C52.8826 55.7399 52.9995 55.6665 52.9651 55.4945C52.9303 55.3541 52.873 55.2201 52.7955 55.0979C52.6143 54.7425 52.4997 54.5362 52.2246 54.0317C52.1214 53.812 51.9978 53.6024 51.8554 53.4058C51.5918 53.1467 51.5321 53.0573 51.312 52.8372C51.5413 52.9518 52.6739 53.7153 52.7473 53.7933C52.8872 53.9446 53.1554 54.4972 53.3251 54.7563C53.4128 54.9131 53.5307 55.0509 53.6719 55.1619C53.8132 55.2729 53.9751 55.3548 54.1482 55.4028C54.6618 55.4945 54.8361 55.2698 54.8361 55.2423C54.7001 54.8332 54.529 54.4366 54.3248 54.057C54.1345 53.6236 53.9717 53.2522 53.8249 52.9954C53.6148 52.6714 53.3686 52.3722 53.0912 52.1035C53.3045 52.2135 53.9144 52.6056 53.9923 52.6652C54.1222 52.7804 54.2363 52.9122 54.3316 53.0573C54.5609 53.4127 54.7191 53.6695 55.0378 53.83C55.1348 53.8868 55.2422 53.9237 55.3536 53.9382C55.4651 53.9528 55.5784 53.9448 55.6867 53.9148C55.7776 53.8819 55.8545 53.8188 55.9045 53.736C55.8926 53.6106 55.8534 53.4893 55.7899 53.3806Z" fill="#FFB573"/>
<path d="M33.2586 21.9001C34.8934 22.3197 35.8334 22.5582 36.6061 24.0187C37.1174 24.9862 37.6997 27.9371 37.9818 31.6789C38.3509 36.4938 38.3532 38.0804 38.3532 38.0804L40.176 40.4374C40.176 40.4374 37.0348 41.3041 35.4849 44.9198C35.4849 44.9198 34.4463 44.076 33.3595 43.0672C32.2727 42.0584 32.0595 41.3912 31.711 39.291C31.2799 36.6932 31.0071 29.3517 31.0071 29.3517L33.2586 21.9001Z" fill="#37474F"/>
<path d="M35.4922 44.9294C37.0421 41.3137 40.1764 40.4378 40.1764 40.4378L41.7813 42.3546C41.7813 42.3546 38.6081 43.2075 37.425 46.3899L35.4922 44.9294Z" fill="#263238"/>
<path d="M41.5793 49.7418C41.8561 49.989 42.1108 50.2598 42.3406 50.5512C42.8518 51.2711 42.9459 52.2272 43.487 52.9265C43.9455 53.5249 44.67 53.8436 45.2937 54.2793C45.8328 54.6504 46.3082 55.1065 46.7015 55.6297C46.8367 55.8086 46.9307 56.0126 47.0614 56.1915C47.0936 56.2402 47.1354 56.2819 47.1843 56.3138C47.2332 56.3458 47.2881 56.3673 47.3457 56.3772C47.4252 56.382 47.5044 56.3649 47.5748 56.3277C47.6452 56.2905 47.704 56.2347 47.7447 56.1662C47.8118 56.0633 47.8657 55.9524 47.9052 55.8361C47.9323 55.7452 47.9469 55.6511 47.9487 55.5564C47.9808 54.7974 47.6163 54.2816 47.2219 53.6854C46.8286 53.0866 46.5582 52.4156 46.4263 51.7113" fill="#FFB573"/>
<path d="M52.0298 55.5334C51.6034 55.2353 51.2801 54.6162 51.0233 54.2425C50.7665 53.8688 49.9113 53.5547 49.3037 53.275C48.6961 52.9952 47.3296 52.1286 46.9284 51.9451C46.5271 51.7617 46.5684 52.3051 46.7105 52.7109C47.2677 52.9012 48.2353 53.2474 48.398 53.3093C49.0521 53.5353 49.6908 53.8034 50.3102 54.1118C50.4006 54.1574 50.4865 54.2111 50.567 54.2723C50.639 54.3332 50.705 54.4008 50.7642 54.4741C50.9522 54.6919 51.0875 54.9579 51.2732 55.1757C51.352 55.2656 51.4362 55.3506 51.5254 55.4302C51.8441 55.7053 52.3073 55.93 52.736 55.7901C52.7897 55.7739 52.8402 55.7482 52.885 55.7145C52.7377 55.7442 52.5858 55.7434 52.4387 55.7123C52.2917 55.6811 52.1525 55.6202 52.0298 55.5334Z" fill="#F28F8F"/>
<path d="M53.9331 55.1114C53.4883 54.7858 53.3713 54.1667 53.181 53.8228C52.9907 53.4789 52.7225 53.1923 52.1057 52.8048C51.3383 52.39 50.5501 52.015 49.7441 51.6813C49.7441 51.6813 50.9983 52.5985 51.317 52.8484C51.5463 52.963 52.6789 53.7265 52.7523 53.8045C52.8921 53.9558 53.1604 54.5083 53.3301 54.7674C53.4177 54.9242 53.5356 55.0621 53.6769 55.1731C53.8182 55.2841 53.9801 55.366 54.1532 55.414C54.2588 55.444 54.3696 55.4513 54.4782 55.4355C54.5869 55.4197 54.691 55.3811 54.7837 55.3223C54.6351 55.3499 54.4823 55.3453 54.3356 55.3089C54.1888 55.2725 54.0516 55.2052 53.9331 55.1114Z" fill="#F28F8F"/>
<path d="M55.1484 53.6647C54.8503 53.4354 54.4261 52.3303 54.002 52.1056C53.7727 51.9818 52.6561 51.2274 51.5051 50.8996C52.0875 51.3306 52.7134 51.7938 53.1101 52.1056C53.3233 52.2156 53.9332 52.6077 54.0112 52.6673C54.1411 52.7824 54.2552 52.9143 54.3505 53.0594C54.5798 53.4148 54.738 53.6716 55.0567 53.8321C55.1536 53.8889 55.261 53.9257 55.3725 53.9403C55.4839 53.9549 55.5972 53.9469 55.7055 53.9169C55.7468 53.9015 55.7855 53.8798 55.8202 53.8527C55.733 53.9169 55.4419 53.894 55.1484 53.6647Z" fill="#F28F8F"/>
<path d="M22.1404 21.9C19.905 22.4985 16.2525 23.7641 16.2525 23.7641C16.2525 23.7641 13.4645 26.5659 11.8366 32.1076C10.6902 35.9801 9.4544 44.6285 9.71578 51.6192C12.9257 55.7715 25.3595 56.5809 32.082 50.2688C32.082 50.2688 31.4767 45.6832 33.3545 39.4101C35.7184 31.5183 35.6473 27.4876 34.8379 25.0687C34.3542 23.638 33.8474 22.3609 33.2582 21.9C32.8891 21.6364 26.5678 20.7193 22.1404 21.9Z" fill="#455A64"/>
<path d="M19.9443 61.9645C21.8634 61.9507 22.8378 61.6893 23.5165 61.8086C24.1952 61.9278 25.3851 61.7833 25.7061 61.8269C25.9469 62.1364 25.7061 62.744 24.8211 63.0696C23.81 63.4387 22.3334 63.8239 22.3334 63.8239L19.9443 61.9645Z" fill="#F28F8F"/>
<path d="M14.6828 46.2176L17.5098 33.5591C17.5098 33.5591 18.9841 28.1435 16.2626 24.3879C12.2387 25.5778 10.8286 26.4514 9.87942 31.2663C9.32457 34.0933 8.55189 36.9134 7.35735 44.2458C7.15558 45.4862 6.81395 45.4632 7.93742 48.7695C8.24007 49.6591 9.00128 52.1422 10.0009 54.7009C11.1473 57.6609 12.3969 60.9557 12.9816 62.7532C13.1535 63.276 13.2773 63.6703 13.4241 64.2389C13.7428 65.4839 14.1876 66.197 14.8869 66.7106C15.9828 67.5199 17.6726 67.7171 19.2822 68.6182C20.479 69.29 21.2586 70.6817 21.8432 70.8926C22.742 71.2067 23.0905 70.8376 23.0905 70.8376C23.0905 70.8376 22.0152 68.5907 21.3113 67.857C20.9325 67.4839 20.5329 67.1325 20.1145 66.8046C20.7221 66.9446 21.3195 67.1254 21.9028 67.3457C22.5127 67.6116 23.682 69.4344 24.7413 69.9663C25.4062 70.3011 26.3463 69.9663 26.3027 69.7371C26.1899 69.4717 26.0272 69.2304 25.8235 69.0263C25.9362 69.1509 26.0816 69.2415 26.2431 69.2877C26.5939 69.3817 26.9309 69.4069 27.2359 69.1524C27.3918 69.0171 26.9447 68.3453 26.383 67.4397C25.6126 66.1901 25.6951 66.0892 24.6817 65.3051C24.5808 65.2271 24.2231 64.9979 24.2231 64.9979C24.2231 64.9979 24.7665 65.1331 25.2228 65.2753C25.6791 65.4174 26.3692 66.4354 27.002 66.8023C27.1903 66.9213 27.4136 66.9725 27.6349 66.9475C27.8563 66.9225 28.0625 66.8227 28.2195 66.6647C28.2195 66.6647 26.5641 64.1679 26.1835 63.8996C25.8029 63.6313 24.8078 63.2668 23.9686 62.9825C23.1295 62.6982 19.9242 61.9874 19.2707 61.7581C18.31 61.4211 18.2642 61.0703 18.161 60.7791C17.2255 58.241 14.6828 46.2176 14.6828 46.2176Z" fill="#FFB573"/>
<path d="M24.2339 69.1617C23.6584 68.6022 22.5304 67.2059 22.2094 66.9973C21.8884 66.7886 20.9185 66.5708 20.1459 66.4676C19.3732 66.3644 20.1183 66.807 20.1183 66.807C20.7259 66.947 21.3234 67.1278 21.9067 67.3481C22.5166 67.614 23.6859 69.4368 24.7452 69.9687C24.9504 70.059 25.1715 70.1071 25.3956 70.1102C25.6197 70.1134 25.8422 70.0715 26.0498 69.9871C25.2473 70.12 24.814 69.7211 24.2339 69.1617Z" fill="#F28F8F"/>
<path d="M25.8234 69.0379C25.4907 68.6904 25.1841 68.3187 24.9063 67.9259C24.622 67.5384 24.3583 67.1326 24.0969 66.7382L24.0488 66.6695C24.0327 66.6511 24.0236 66.6465 24.0075 66.6305C23.9915 66.6144 23.9204 66.5686 23.87 66.5365C23.7714 66.4746 23.6682 66.4173 23.565 66.3576L22.9414 66.0046C22.5226 65.7737 22.1068 65.533 21.6941 65.2823C22.1527 65.4428 22.5952 65.6239 23.0308 65.828C23.2601 65.9266 23.4664 66.0367 23.6819 66.1467C23.7897 66.2017 23.8952 66.2613 24.0006 66.3255C24.0534 66.3554 24.1084 66.3943 24.1611 66.431C24.1942 66.4557 24.2242 66.4842 24.2506 66.5158L24.3079 66.5938C24.826 67.4054 25.3075 68.224 25.8234 69.0379Z" fill="#F28F8F"/>
<path d="M26.3547 65.7203C25.8733 65.1677 25.793 65.1058 25.1052 64.8742C24.4173 64.6427 23.0967 64.2987 23.0967 64.2987L24.2431 65.0095C24.2431 65.0095 24.7865 65.1448 25.2427 65.2869C25.699 65.4291 26.3891 66.4471 27.0219 66.8139C27.1785 66.9147 27.3608 66.9683 27.547 66.9683C27.7332 66.9683 27.9155 66.9147 28.072 66.8139C27.1412 66.8919 26.8362 66.2728 26.3547 65.7203Z" fill="#F28F8F"/>
<path d="M16.2532 23.7644C14.419 24.388 12.7613 24.9108 11.6264 26.5455C10.4181 28.2949 9.86549 30.0948 9.01028 34.5313C8.15507 38.9679 7.21273 43.6337 7.05223 44.8329C6.89174 46.032 7.11873 46.6786 7.49245 47.8341C7.86618 48.9897 8.81539 51.6585 8.81539 51.6585C8.81539 51.6585 9.92281 50.5121 12.3211 49.8243C14.7193 49.1364 15.5654 49.5606 15.5654 49.5606L14.8317 46.181C14.8317 46.181 17.2024 35.8222 17.6128 34.1095C18.0233 32.3967 18.906 27.3549 16.2532 23.7644Z" fill="#37474F"/>
<path d="M15.5657 49.5653C15.5657 49.5653 14.7265 49.1504 12.3214 49.8382C9.91622 50.526 8.81567 51.6724 8.81567 51.6724L9.76489 54.3367C9.76489 54.3367 12.1173 52.7317 16.1091 52.4497L15.5657 49.5653Z" fill="#263238"/>
<path d="M36.1702 11.0051C37.2249 9.0998 36.6288 6.38514 35.7116 5.04385C34.3841 3.11332 32.1303 2.12054 28.604 2.0059C25.9191 1.91877 23.1884 2.77628 22.4295 5.46802C19.7263 6.05956 19.6208 9.23508 19.9991 10.8377C20.781 14.0958 22.6129 16.7807 23.0669 18.8304L36.1702 11.0051Z" fill="#263238"/>
<path d="M35.4644 18.4267C34.8981 19.9101 33.9099 20.9488 32.4838 21.029C31.6309 21.0818 30.0833 20.8181 30.0833 20.8181L29.439 23.3402C30.2896 25.4725 29.5926 26.8665 28.4783 28.7191C26.1144 24.6425 23.0857 25.1469 21.8017 22.7807L23.0857 15.8679C23.0857 15.8679 22.2717 16.8172 20.9373 15.7579C20.0202 15.0265 19.4814 13.3184 20.3343 11.8601C21.1872 10.4019 22.5308 11.1906 22.9229 11.6813C23.3149 12.172 23.7368 13.0707 24.1105 12.9859C24.3248 12.9416 24.5246 12.8447 24.6919 12.7037C24.8593 12.5628 24.9888 12.3824 25.0689 12.1788C25.3807 11.5644 25.6398 10.7596 25.8003 9.34265C26.213 9.17986 26.6853 8.99185 26.9834 8.59749C27.3663 8.09308 27.4282 7.36855 28.3889 6.56378C29.8494 5.34402 34.9004 5.69252 35.9115 7.71018C36.5191 9.06064 36.2623 12.0436 36.2188 13.7723C36.1706 15.6364 35.9391 17.184 35.4644 18.4267Z" fill="#FFB573"/>
<path d="M30.1566 16.0973C29.5674 16.1959 28.6136 16.8814 28.836 17.2896C29.0584 17.6977 29.7347 17.4042 30.5143 17.7321C31.2938 18.0599 31.4131 18.5047 31.9565 18.3099C32.3944 18.1517 32.1857 16.9663 31.796 16.5857C31.5747 16.3898 31.3134 16.2447 31.0303 16.1603C30.7471 16.076 30.4489 16.0545 30.1566 16.0973Z" fill="#B16668"/>
<path d="M31.9514 16.7989C31.9106 16.7203 31.858 16.6484 31.7955 16.5857C31.5743 16.3898 31.313 16.2447 31.0298 16.1603C30.7466 16.076 30.4485 16.0545 30.1562 16.0973C30.0298 16.1209 29.9066 16.1594 29.7893 16.212C30.4552 16.5715 31.1951 16.7724 31.9514 16.7989Z" fill="#FAFAFA"/>
<path d="M30.5455 17.7391C30.5147 17.4119 30.3648 17.1074 30.1244 16.8834C29.8839 16.6594 29.5695 16.5315 29.2409 16.524C28.9245 16.7693 28.709 17.0628 28.8282 17.2806C29.0575 17.6864 29.727 17.3952 30.5066 17.7231L30.5455 17.7391Z" fill="#F28F8F"/>
<path d="M29.2136 12.8896C29.2136 13.245 28.7551 13.5247 28.2232 13.5156C27.6912 13.5064 27.251 13.2106 27.2579 12.8552C27.2648 12.4998 27.7165 12.2224 28.2461 12.2316C28.7757 12.2408 29.2205 12.5365 29.2136 12.8896Z" fill="#F28F8F"/>
<path d="M36.4688 13.176C36.4688 13.5314 36.0102 13.8111 35.4783 13.8019C34.9464 13.7928 34.5061 13.497 34.513 13.1416C34.5199 12.7862 34.9716 12.5065 35.5012 12.518C36.0308 12.5294 36.4757 12.8229 36.4688 13.176Z" fill="#F28F8F"/>
<path d="M30.0875 20.8136C28.5398 20.5843 25.6532 19.564 24.9012 18.6148C24.1491 17.6656 23.9634 15.8634 23.9634 15.8634C23.9634 15.8634 23.874 18.1218 24.422 19.1742C24.97 20.2266 26.5612 20.8136 27.5264 21.1529C28.4917 21.4922 29.8055 21.9095 29.8055 21.9095L30.0875 20.8136Z" fill="#F28F8F"/>
<path d="M30.1811 12.4034C30.1662 12.4829 30.1358 12.5586 30.0914 12.6262C30.0471 12.6938 29.9898 12.7519 29.9228 12.7971C29.8558 12.8423 29.7805 12.8738 29.7012 12.8896C29.622 12.9055 29.5403 12.9055 29.4611 12.8895C29.2915 12.8618 29.1377 12.7737 29.0281 12.6413C28.9185 12.509 28.8605 12.3414 28.865 12.1696C28.865 11.711 29.2502 11.4634 29.7546 11.6766C30.1558 11.8486 30.2521 12.0756 30.1811 12.4034Z" fill="#263238"/>
<path d="M29.2662 10.2092L30.7612 11.2731C30.5886 11.3718 30.3915 11.4192 30.1929 11.4099C29.9943 11.4006 29.8025 11.3348 29.64 11.2203C29.4711 11.1203 29.3418 10.9652 29.2737 10.7811C29.2057 10.597 29.203 10.395 29.2662 10.2092Z" fill="#263238"/>
<path d="M33.6961 12.4653C33.7204 12.6239 33.8063 12.7665 33.935 12.8622C34.0638 12.9579 34.2251 12.999 34.3839 12.9766C34.5531 12.9558 34.7091 12.8749 34.8236 12.7486C34.938 12.6223 35.0033 12.4591 35.0075 12.2888C35.019 11.8302 34.6476 11.5688 34.1363 11.766C33.7396 11.9128 33.6365 12.1374 33.6961 12.4653Z" fill="#263238"/>
<path d="M34.9022 10.3193L33.3638 11.319C33.4578 11.4589 33.9943 11.6216 34.4827 11.2892C34.6497 11.1964 34.7815 11.051 34.8574 10.8756C34.9332 10.7002 34.949 10.5046 34.9022 10.3193Z" fill="#263238"/>
<path d="M31.6577 10.9569L31.9764 15.4668L34.354 14.662L31.6577 10.9569Z" fill="#F28F8F"/>
<path d="M22.2577 20.3C22.0811 21.2446 22.3448 22.109 23.4637 23.1729C24.5826 24.2367 26.4214 25.2776 26.8479 25.7316C27.2743 26.1856 28.4758 28.7122 28.4758 28.7122C28.4758 28.7122 27.1941 26.9651 26.8708 26.7771C26.5475 26.5891 24.9792 28.9622 24.6858 29.5491C24.3923 30.1361 24.445 30.1361 23.6471 29.5491C22.0995 28.4027 20.6298 26.1374 20.2079 24.8191C19.7333 23.3265 19.9007 22.5423 19.9007 22.5423C20.5563 22.1281 21.0704 21.5244 21.375 20.8113C21.7647 19.94 22.0628 19.7543 22.3379 19.8414L22.2577 20.3Z" fill="#37474F"/>
<path d="M28.4824 28.7052C28.8493 27.9509 29.4706 26.5042 29.6288 25.8668C29.787 25.2294 29.45 23.3264 29.45 23.3264L30.0576 20.9602C30.2771 21.1395 30.4534 21.366 30.5734 21.6228C31.0183 22.517 31.7405 24.1449 31.8643 25.1789C32.0592 26.8183 31.8643 28.038 31.8001 28.1596C31.6488 28.4897 31.0779 26.096 30.5414 26.1213C30.1791 26.1419 28.4824 28.7052 28.4824 28.7052Z" fill="#37474F"/>
<path d="M20.9296 5.12877C20.8146 5.01672 20.6841 4.92175 20.5422 4.84676C20.4763 4.80049 20.4014 4.76862 20.3224 4.75321C20.2434 4.7378 20.162 4.73921 20.0836 4.75734C20.0732 4.76536 20.0645 4.77545 20.0581 4.78696C20.0517 4.79848 20.0477 4.81118 20.0464 4.82429C20.0451 4.8374 20.0465 4.85063 20.0506 4.86318C20.0546 4.87572 20.0612 4.8873 20.0698 4.8972C20.2097 5.00267 20.3794 5.04623 20.5284 5.12648C20.6547 5.20248 20.7684 5.29762 20.8654 5.4085C20.9713 5.52454 21.0511 5.66196 21.0994 5.81147C21.1476 5.96099 21.1632 6.11911 21.1452 6.27517C21.0282 7.04326 20.1501 7.1579 19.5173 7.13955C19.4921 7.13955 19.46 7.13956 19.46 7.17166C19.46 7.20375 19.46 7.19458 19.4829 7.20375C19.7099 7.34726 19.9801 7.4065 20.2464 7.37113C20.5651 7.32986 21.0603 7.20146 21.2873 6.80939C21.6037 6.25454 21.3515 5.53231 20.9296 5.12877Z" fill="#2196F3"/>
<path d="M23.7752 3.81022C23.7575 3.81051 23.7404 3.817 23.727 3.82856C23.6945 3.86355 23.6757 3.90918 23.6743 3.95695C23.6425 4.2884 23.5222 4.60519 23.3258 4.87407C23.2273 5.00684 23.0985 5.11418 22.9501 5.18716C22.8018 5.26014 22.6382 5.29665 22.4729 5.29365C22.3299 5.28449 22.1917 5.2387 22.0716 5.16067C21.9737 5.0786 21.904 4.96796 21.8721 4.84427C21.7402 4.47693 21.6787 4.08799 21.691 3.69787C21.691 3.61762 21.597 3.53049 21.5557 3.64055C21.5239 3.72192 21.4979 3.80543 21.4778 3.89046C21.4606 3.99732 21.456 4.10582 21.464 4.21375C21.469 4.39094 21.4936 4.56703 21.5374 4.7388C21.6268 5.07584 21.7919 5.42664 22.1335 5.57796C22.2829 5.62872 22.4409 5.64938 22.5983 5.63875C22.7557 5.62813 22.9094 5.58643 23.0506 5.51606C23.3367 5.38443 23.5713 5.16196 23.7178 4.88324C23.8161 4.69473 23.8739 4.48778 23.8875 4.27565C23.8967 4.22292 23.8967 3.81022 23.7752 3.81022Z" fill="#2196F3"/>
<path d="M25.0022 5.8531C24.3648 5.56879 23.4591 5.66738 23.0579 6.29102C22.6566 6.91466 23.0074 7.68046 23.5623 8.03355C23.7147 8.12952 23.8833 8.1971 24.0598 8.23302C24.1969 8.26189 24.3372 8.27268 24.4771 8.26512C24.4869 8.26562 24.4966 8.26404 24.5057 8.26048C24.5148 8.25692 24.523 8.25147 24.5298 8.24448C24.5528 8.21468 24.5092 8.17799 24.4702 8.16194C23.9566 7.96476 23.1496 7.51996 23.2482 6.85734C23.2823 6.70412 23.3532 6.56148 23.4546 6.44167C23.556 6.32186 23.6851 6.22846 23.8305 6.16951C23.9876 6.09748 24.1559 6.05326 24.3281 6.03882C24.5436 6.02047 24.7591 6.03882 24.9746 6.03882C25.0434 6.04569 25.0709 5.88291 25.0022 5.8531Z" fill="#2196F3"/>
<path d="M23.019 8.8773C23.055 8.50307 22.9602 8.12793 22.7507 7.81574C22.6502 7.65009 22.4967 7.52325 22.3151 7.45577C22.0979 7.37656 21.8623 7.36234 21.6371 7.41487C21.4119 7.4674 21.2069 7.58439 21.0472 7.75154C20.8808 7.94845 20.7497 8.17262 20.6597 8.41416C20.6301 8.47813 20.6049 8.544 20.584 8.61134C20.5624 8.68595 20.5501 8.76297 20.5474 8.84062C20.6116 8.84062 20.6551 8.77871 20.6826 8.72139C20.8494 8.37613 21.0991 8.07758 21.4095 7.85242C21.4898 7.78954 21.5806 7.74141 21.6777 7.71027C21.8452 7.66758 22.022 7.67963 22.1821 7.74466C22.3281 7.82344 22.452 7.93752 22.5425 8.0765C22.633 8.21548 22.6873 8.37492 22.7003 8.54026C22.7255 8.69617 22.7393 8.85208 22.7507 8.99882C22.7514 9.13135 22.759 9.26375 22.7737 9.39547C22.7754 9.40638 22.7806 9.41646 22.7884 9.42428C22.7962 9.4321 22.8063 9.43726 22.8172 9.43904C22.8425 9.43904 22.8608 9.4184 22.8746 9.39777C22.9152 9.33364 22.9446 9.26309 22.9617 9.18912C22.9907 9.08725 23.0099 8.98283 23.019 8.8773Z" fill="#2196F3"/>
<path d="M10.6306 14.9256L13.9024 14.6344L14.2028 15.6456L15.8513 14.7949L16.0164 15.7098L18.151 15.0838L15.2827 17.2069L15.1314 16.1844L13.2054 17.583L12.8386 16.166L11.0089 17.3445L10.6306 14.9256Z" fill="#2196F3"/>
<path opacity="0.3" d="M10.6306 14.9256L13.9024 14.6344L14.2028 15.6456L15.8513 14.7949L16.0164 15.7098L18.151 15.0838L15.2827 17.2069L15.1314 16.1844L13.2054 17.583L12.8386 16.166L11.0089 17.3445L10.6306 14.9256Z" fill="white"/>
<path d="M16.6492 12.0322L16.4199 13.1396L18.3894 14.176L15.3331 13.7701L15.4546 12.8668L13.0977 12.532L13.8451 10.8308L16.6492 12.0322Z" fill="#2196F3"/>
<path opacity="0.3" d="M16.6492 12.0322L16.4199 13.1396L18.3894 14.176L15.3331 13.7701L15.4546 12.8668L13.0977 12.532L13.8451 10.8308L16.6492 12.0322Z" fill="white"/>
<path d="M15.1477 18.0323L16.2115 18.4198L18.392 16.0421L16.8214 19.6235L15.8378 19.3025L14.8359 21.4165L13.373 20.1279L15.1477 18.0323Z" fill="#2196F3"/>
<path opacity="0.3" d="M15.1477 18.0323L16.2115 18.4198L18.392 16.0421L16.8214 19.6235L15.8378 19.3025L14.8359 21.4165L13.373 20.1279L15.1477 18.0323Z" fill="white"/>
<path d="M38.4075 18.2867C38.7308 18.2478 39.054 18.2248 39.3796 18.195L40.3518 18.1285C41.0006 18.0827 41.6495 18.0575 42.2983 18.0345C42.9472 18.0116 43.5984 17.9978 44.2472 17.9978H45.2217C45.5472 17.9978 45.8705 17.9978 46.1961 18.0277C45.8728 18.0666 45.5495 18.0896 45.2239 18.1194L44.2518 18.1882C43.6029 18.2317 42.9541 18.2569 42.3052 18.2799C41.6564 18.3028 41.0052 18.3165 40.3563 18.3165H39.3819C39.0586 18.3051 38.733 18.3051 38.4075 18.2867Z" fill="#2196F3"/>
<path d="M36.8599 17.6242C37.2313 17.5141 37.6073 17.4224 37.9787 17.3215L39.1045 17.0441C39.8543 16.8607 40.6086 16.6956 41.3629 16.5305C42.1172 16.3654 42.8762 16.2141 43.6351 16.072L44.7815 15.8633C45.1644 15.8037 45.5427 15.7349 45.9279 15.6799C45.5564 15.79 45.1804 15.8817 44.8067 15.9825L43.6809 16.26C42.9312 16.4434 42.1769 16.6085 41.4225 16.7736C40.6682 16.9386 39.9116 17.09 39.1527 17.2321L38.0063 17.4408C37.6234 17.5096 37.2428 17.5692 36.8599 17.6242Z" fill="#2196F3"/>
<path d="M37.8298 16.1062C38.1164 15.9778 38.4099 15.8632 38.7011 15.7417L39.5792 15.4046C40.1662 15.1754 40.76 14.9736 41.3539 14.765C41.9477 14.5563 42.5438 14.3637 43.1445 14.1826L44.0479 13.9097C44.3505 13.8272 44.6509 13.7378 44.965 13.6621C44.6761 13.7905 44.3849 13.9052 44.0938 14.0244L43.2133 14.3637C42.6264 14.593 42.0348 14.7948 41.441 15.0011C40.8472 15.2075 40.251 15.4024 39.648 15.5858L38.747 15.8563C38.4351 15.9389 38.1348 16.0306 37.8298 16.1062Z" fill="#2196F3"/>
<path d="M48.5437 20.9119C48.6616 21.4005 48.8501 21.8694 49.1031 22.3037C49.4866 22.941 50.0157 23.4783 50.647 23.8717C51.2783 24.2651 51.9938 24.5032 52.7349 24.5666C53.2203 24.5981 53.7077 24.5587 54.1817 24.4497C54.8816 24.2802 55.5309 23.9461 56.0756 23.4751C56.6204 23.0042 57.0448 22.41 57.3136 21.7419L57.88 21.9872C57.4299 22.9624 56.6816 23.7693 55.7431 24.2915C55.2816 24.5468 54.7824 24.7272 54.2642 24.8257C53.7488 24.9173 53.2229 24.9335 52.7028 24.8739C51.6688 24.7367 50.7053 24.2742 49.9515 23.5532C49.5813 23.2019 49.2715 22.7922 49.0344 22.3403C48.8012 21.8911 48.6358 21.4097 48.5437 20.9119Z" fill="#2196F3"/>
<path d="M56.2573 21.0932C56.8269 21.4483 57.4549 21.6998 58.1122 21.836C58.7501 21.9654 59.4068 21.9724 60.0473 21.8567C61.3144 21.6295 62.4447 20.9216 63.2022 19.8809C63.9597 18.8401 64.2858 17.5469 64.1124 16.2714C63.9211 14.9519 63.2461 13.7507 62.2186 12.901C62.8341 13.2278 63.3684 13.6885 63.7823 14.2492C64.2048 14.8231 64.5002 15.4804 64.649 16.1774C64.8014 16.8839 64.8014 17.6147 64.649 18.3212C64.496 19.0325 64.1955 19.7038 63.767 20.2919C63.3385 20.8799 62.7915 21.3716 62.1613 21.7351L61.932 21.8658C61.8517 21.9094 61.7669 21.9392 61.6844 21.9782L61.4367 22.0836C61.3542 22.1203 61.2648 22.141 61.18 22.1708C60.8404 22.2892 60.4878 22.3662 60.1299 22.4C59.4214 22.4741 58.7054 22.396 58.0297 22.1708C57.3669 21.946 56.7618 21.5781 56.2573 21.0932Z" fill="#2196F3"/>
<path d="M64.0728 14.9873L63.6395 14.437C64.5037 13.7617 65.1059 12.8064 65.3424 11.7354C65.579 10.6643 65.4352 9.54435 64.9358 8.56779C64.4364 7.59122 63.6125 6.81902 62.6057 6.38384C61.5989 5.94865 60.4719 5.87763 59.4184 6.18298C59.1167 6.26963 58.8241 6.38559 58.5449 6.5292L58.2239 5.90785C58.5434 5.74176 58.8792 5.60885 59.2258 5.5112C60.4353 5.16069 61.729 5.24222 62.8849 5.7418C64.0408 6.24138 64.9867 7.12783 65.5601 8.24891C66.1335 9.36999 66.2987 10.6558 66.0273 11.8854C65.7559 13.115 65.0649 14.2118 64.0728 14.9873Z" fill="#2196F3"/>
<path d="M50.1578 6.19239C49.3924 6.12168 48.621 6.23432 47.9077 6.521C47.1944 6.80767 46.5597 7.26013 46.056 7.84091C45.5402 8.439 45.1753 9.15215 44.9922 9.92047C44.8053 10.7028 44.8053 11.5181 44.9922 12.3004C44.6146 11.103 44.6821 9.80948 45.1821 8.65779C45.6821 7.50611 46.5811 6.57366 47.7137 6.03189C48.4866 5.65468 49.3395 5.47058 50.1991 5.49538L50.1578 6.19239Z" fill="#2196F3"/>
<path d="M57.7955 9.77829C58.1414 9.14429 58.3309 8.43681 58.348 7.71477C58.3654 7.01935 58.2161 6.32986 57.9124 5.70399C57.6096 5.09241 57.1617 4.56422 56.6078 4.16553C56.3354 3.96803 56.0406 3.80334 55.7296 3.67487C55.0991 3.43611 54.4225 3.3436 53.751 3.40432C53.4175 3.44192 53.0896 3.51888 52.7742 3.6336C52.1348 3.87012 51.5627 4.25888 51.1074 4.76624C50.6481 5.28882 50.3189 5.91263 50.1467 6.58672C49.9728 7.28543 49.9673 8.01547 50.1306 8.71673C49.8221 8.0301 49.7109 7.27108 49.8096 6.52481C49.9177 5.7664 50.2194 5.04862 50.6855 4.44066C51.4163 3.50331 52.4874 2.89201 53.6661 2.73941C54.0581 2.68895 54.4549 2.68895 54.8469 2.73941C55.2401 2.79481 55.6251 2.89798 55.9933 3.04664C56.1743 3.12469 56.3503 3.2135 56.5207 3.31261L56.7729 3.46393C56.8554 3.52125 56.9311 3.58316 57.0021 3.64048C57.6222 4.11868 58.106 4.75113 58.4053 5.47471C58.6966 6.19116 58.7931 6.9719 58.6851 7.7377C58.5839 8.48735 58.2759 9.19399 57.7955 9.77829Z" fill="#2196F3"/>
<path d="M45.2831 19.1445C45.1793 19.6219 45.2308 20.1199 45.4299 20.566C45.6138 21.0033 45.9114 21.3833 46.292 21.6666C46.6603 21.9423 47.1026 22.102 47.5622 22.1251C48.0157 22.1405 48.4676 22.0625 48.8897 21.8958L49.0869 22.4782C48.5739 22.6254 48.0358 22.6637 47.5071 22.5906C46.9797 22.5049 46.4892 22.2657 46.0971 21.9027C45.7153 21.5551 45.4349 21.1106 45.2854 20.6165C45.1293 20.1383 45.1285 19.6231 45.2831 19.1445Z" fill="#2196F3"/>
<path d="M47.4844 15.7372C47.4807 15.7126 47.482 15.6876 47.4883 15.6635C47.4947 15.6395 47.5058 15.617 47.5211 15.5974C47.552 15.5575 47.5972 15.5312 47.6472 15.524L48.5299 15.4116C48.58 15.4058 48.6303 15.4198 48.6702 15.4506C48.7101 15.4815 48.7363 15.5268 48.7431 15.5767L48.8325 16.2829C48.8363 16.3077 48.8348 16.3329 48.8281 16.357C48.8214 16.3811 48.8096 16.4036 48.7936 16.4228C48.7788 16.4426 48.7603 16.4593 48.739 16.4719C48.7178 16.4845 48.6942 16.4928 48.6697 16.4961L47.787 16.6085C47.7623 16.6123 47.737 16.6108 47.7129 16.604C47.6888 16.5973 47.6664 16.5856 47.6472 16.5695C47.6273 16.5548 47.6106 16.5363 47.598 16.515C47.5854 16.4937 47.5772 16.4702 47.5738 16.4457L47.4844 15.7372ZM46.9914 11.9266C46.9881 11.9019 46.9898 11.8767 46.9965 11.8527C47.0032 11.8286 47.0147 11.8062 47.0304 11.7867C47.0447 11.7665 47.0632 11.7495 47.0845 11.7369C47.1058 11.7242 47.1296 11.7162 47.1542 11.7134L48.0369 11.5987C48.0617 11.5954 48.0868 11.5971 48.1109 11.6038C48.1349 11.6105 48.1574 11.622 48.1768 11.6377C48.1967 11.6529 48.2135 11.6718 48.226 11.6935C48.2386 11.7151 48.2468 11.739 48.2502 11.7638L48.6399 14.7788C48.6432 14.8036 48.6414 14.8287 48.6347 14.8527C48.628 14.8768 48.6165 14.8992 48.601 14.9187C48.5858 14.9386 48.5669 14.9554 48.5452 14.9679C48.5236 14.9805 48.4997 14.9887 48.4749 14.9921L47.5944 15.1044C47.5697 15.1085 47.5443 15.1071 47.5202 15.1004C47.496 15.0937 47.4736 15.0817 47.4546 15.0654C47.434 15.0514 47.4168 15.0331 47.4041 15.0117C47.3914 14.9903 47.3836 14.9664 47.3812 14.9416L46.9914 11.9266Z" fill="#2196F3"/>
<path d="M49.658 16.2555C49.6583 16.2304 49.6638 16.2057 49.674 16.1828C49.6843 16.1599 49.6991 16.1394 49.7176 16.1225C49.7347 16.1046 49.7554 16.0905 49.7783 16.081C49.8012 16.0715 49.8258 16.0669 49.8506 16.0675L50.7402 16.0812C50.7651 16.0811 50.7898 16.0862 50.8127 16.096C50.8355 16.1059 50.8561 16.1204 50.8732 16.1385C50.9086 16.1747 50.9283 16.2233 50.9282 16.2738V16.9869C50.9283 17.0118 50.9233 17.0365 50.9134 17.0593C50.9035 17.0822 50.8891 17.1028 50.8709 17.1199C50.8348 17.1553 50.7862 17.175 50.7356 17.1749L49.846 17.1611C49.821 17.1605 49.7963 17.155 49.7735 17.1447C49.7507 17.1345 49.7301 17.1198 49.713 17.1015C49.6952 17.0839 49.6811 17.0628 49.6716 17.0395C49.6622 17.0163 49.6575 16.9913 49.658 16.9662V16.2555ZM49.7176 12.4128C49.7177 12.3875 49.7228 12.3626 49.7327 12.3394C49.7425 12.3161 49.7569 12.2951 49.7749 12.2775C49.7926 12.2598 49.8138 12.246 49.837 12.237C49.8603 12.2279 49.8852 12.2237 49.9102 12.2247L50.7998 12.2385C50.8247 12.2387 50.8493 12.2438 50.8721 12.2537C50.895 12.2635 50.9156 12.2778 50.9328 12.2958C50.9505 12.3136 50.9645 12.3347 50.974 12.3579C50.9834 12.3811 50.9881 12.406 50.9878 12.4311L50.9397 15.4713C50.9395 15.4962 50.9343 15.5208 50.9245 15.5437C50.9146 15.5665 50.9003 15.5871 50.8823 15.6043C50.8647 15.6221 50.8436 15.636 50.8203 15.645C50.797 15.6541 50.772 15.6582 50.7471 15.6571L49.8575 15.6433C49.8325 15.6434 49.8079 15.6384 49.785 15.6285C49.7621 15.6186 49.7415 15.6042 49.7245 15.586C49.7067 15.5684 49.6928 15.5472 49.6838 15.5239C49.6747 15.5006 49.6706 15.4757 49.6717 15.4507L49.7176 12.4128Z" fill="#2196F3"/>
<g opacity="0.2">
<path opacity="0.2" d="M49.6577 16.2556C49.6581 16.2305 49.6635 16.2058 49.6738 16.1829C49.684 16.1601 49.6989 16.1395 49.7174 16.1226C49.7345 16.1047 49.7552 16.0906 49.7781 16.0811C49.801 16.0717 49.8256 16.0671 49.8503 16.0676L50.7399 16.0813C50.7649 16.0812 50.7895 16.0863 50.8124 16.0961C50.8353 16.106 50.8559 16.1205 50.8729 16.1387C50.9083 16.1748 50.9281 16.2234 50.928 16.2739V16.987C50.9281 17.0119 50.923 17.0366 50.9132 17.0595C50.9033 17.0824 50.8888 17.103 50.8706 17.12C50.8345 17.1554 50.7859 17.1751 50.7354 17.175L49.8458 17.1613C49.8207 17.1607 49.7961 17.1551 49.7733 17.1449C49.7504 17.1346 49.7299 17.1199 49.7128 17.1016C49.6949 17.084 49.6809 17.0629 49.6714 17.0396C49.6619 17.0164 49.6573 16.9915 49.6577 16.9664V16.2556ZM49.7174 12.4129C49.7175 12.3877 49.7226 12.3627 49.7324 12.3395C49.7423 12.3163 49.7566 12.2952 49.7747 12.2776C49.7924 12.26 49.8135 12.2462 49.8368 12.2371C49.8601 12.228 49.885 12.2239 49.9099 12.2249L50.7996 12.2386C50.8244 12.2388 50.849 12.2439 50.8719 12.2538C50.8947 12.2636 50.9153 12.278 50.9325 12.2959C50.9503 12.3137 50.9643 12.3348 50.9737 12.358C50.9832 12.3813 50.9879 12.4061 50.9876 12.4312L50.9394 15.4715C50.9393 15.4963 50.9341 15.5209 50.9242 15.5438C50.9144 15.5666 50.9001 15.5872 50.8821 15.6044C50.8645 15.6222 50.8434 15.6361 50.82 15.6452C50.7967 15.6542 50.7718 15.6583 50.7468 15.6572L49.8572 15.6434C49.8323 15.6435 49.8076 15.6385 49.7847 15.6286C49.7619 15.6188 49.7413 15.6043 49.7242 15.5861C49.7065 15.5685 49.6926 15.5474 49.6835 15.5241C49.6744 15.5008 49.6703 15.4758 49.6715 15.4508L49.7174 12.4129Z" fill="white"/>
</g>
<path d="M55.6851 16.5123C55.0431 16.886 54.3346 17.1749 53.6009 16.8791C53.2977 16.7572 53.0394 16.5447 52.8614 16.2706C52.6833 15.9965 52.5941 15.6742 52.6059 15.3475C52.6288 14.9427 52.81 14.563 53.1103 14.2905C53.4213 14.0391 53.8136 13.9103 54.2131 13.9283C54.3866 13.9302 54.5574 13.9715 54.7125 14.049C54.8677 14.1266 55.0033 14.2383 55.109 14.3758C55.2148 14.5134 55.2879 14.6731 55.323 14.843C55.358 15.0129 55.3541 15.1885 55.3114 15.3567C55.1944 15.7831 54.5685 15.8657 54.2383 15.6593C54.152 15.594 54.0865 15.5052 54.0494 15.4035C54.0124 15.3018 54.0056 15.1916 54.0297 15.0861C54.0583 15.0064 54.1144 14.9394 54.188 14.8974C54.2615 14.8553 54.3477 14.841 54.4309 14.8569C54.5387 14.8912 54.5181 14.6918 54.4676 14.6505C54.3837 14.5927 54.283 14.5645 54.1813 14.5703C54.0795 14.5761 53.9826 14.6156 53.9059 14.6826C53.8196 14.7456 53.7489 14.8276 53.6992 14.9222C53.6495 15.0168 53.6222 15.1215 53.6193 15.2283C53.6193 15.6639 53.9288 16.1225 54.6648 16.111C54.9062 16.1213 55.1429 16.0423 55.3298 15.8893C55.5167 15.7362 55.6407 15.5197 55.6782 15.281C55.7015 15.0529 55.6734 14.8225 55.5961 14.6067C55.5187 14.3909 55.394 14.1951 55.2311 14.0337C55.0592 13.8542 54.848 13.7171 54.614 13.6331C54.3801 13.5492 54.1298 13.5207 53.883 13.55C53.5076 13.5891 53.153 13.7417 52.8666 13.9874C52.5801 14.2332 52.3753 14.5603 52.2794 14.9254C52.1835 15.2904 52.2012 15.676 52.33 16.0308C52.4587 16.3855 52.6925 16.6926 53.0002 16.9112C53.3995 17.247 53.9096 17.4219 54.4309 17.4019C54.6981 17.405 54.9625 17.3484 55.2049 17.2362C55.4473 17.1239 55.6615 16.9588 55.8318 16.753C55.8937 16.659 55.8066 16.4412 55.6851 16.5123Z" fill="#2196F3"/>
<path d="M59.8379 16.5214C59.4711 15.8084 59.1501 15.077 58.8451 14.3364C58.6961 13.9764 58.5585 13.6119 58.4278 13.245C58.2966 12.8256 58.1294 12.4182 57.928 12.0276C57.8799 11.945 57.7996 11.9863 57.7927 12.0688C57.8009 12.4959 57.8871 12.9178 58.0472 13.3138C58.1817 13.7326 58.3285 14.1484 58.4874 14.5611C58.6388 14.9532 58.8107 15.3407 58.9896 15.7236C59.0767 15.9139 59.1684 16.1042 59.2624 16.2945C59.3564 16.4848 59.4229 16.6865 59.6361 16.7851C59.6551 16.7991 59.678 16.8066 59.7015 16.8066C59.725 16.8066 59.7479 16.7991 59.7668 16.7851L59.8173 16.7416C59.8432 16.7116 59.8591 16.6743 59.8628 16.6348C59.8665 16.5953 59.8578 16.5557 59.8379 16.5214Z" fill="#2196F3"/>
<path d="M61.5342 15.9047C61.1696 15.1916 60.8463 14.4602 60.5414 13.7196C60.3924 13.3597 60.2548 12.9951 60.1241 12.6283C59.9939 12.2084 59.8266 11.801 59.6243 11.4108C59.5761 11.3282 59.4959 11.3695 59.489 11.4543C59.4974 11.8806 59.5836 12.3018 59.7435 12.697C59.8795 13.1174 60.0263 13.5331 60.1837 13.9443C60.3373 14.3364 60.507 14.7239 60.6859 15.1068C60.7753 15.2971 60.8647 15.4874 60.9587 15.6777C61.0527 15.868 61.1215 16.0697 61.3324 16.1683C61.3513 16.1823 61.3742 16.1898 61.3978 16.1898C61.4213 16.1898 61.4442 16.1823 61.4631 16.1683L61.5135 16.1248C61.5395 16.0948 61.5554 16.0575 61.5591 16.018C61.5628 15.9786 61.5541 15.9389 61.5342 15.9047Z" fill="#2196F3"/>
<path d="M61.8925 13.5202C61.2299 13.9787 60.5466 14.3845 59.8496 14.7812C59.5103 14.9738 59.1618 15.1549 58.8201 15.3315C58.4199 15.5142 58.0364 15.7313 57.6737 15.9803C57.5981 16.0376 57.6508 16.1133 57.7333 16.1087C58.1554 16.0472 58.5626 15.9089 58.9348 15.7006C59.336 15.5149 59.7281 15.3154 60.1156 15.1068C60.503 14.8981 60.8493 14.6872 61.2069 14.4625C61.3858 14.3501 61.5623 14.2332 61.7389 14.1186C61.9154 14.0039 62.108 13.9099 62.1791 13.6875C62.1891 13.6657 62.1918 13.6412 62.1868 13.6177C62.1819 13.5941 62.1695 13.5728 62.1516 13.5568L62.1057 13.5156C62.0738 13.4949 62.0364 13.4844 61.9984 13.4852C61.9604 13.486 61.9235 13.4982 61.8925 13.5202Z" fill="#2196F3"/>
<path d="M61.0653 11.9151C60.4027 12.3736 59.7195 12.7795 59.0224 13.1738C58.6831 13.3664 58.34 13.5506 57.993 13.7264C57.5919 13.9073 57.2082 14.1245 56.8466 14.3753C56.7709 14.4326 56.8237 14.5059 56.9062 14.5037C57.3284 14.4414 57.7356 14.3023 58.1076 14.0932C58.5089 13.9075 58.9009 13.7081 59.2884 13.4994C59.6759 13.2908 60.0221 13.0821 60.3798 12.8574C60.5586 12.7451 60.7352 12.6281 60.9117 12.5135C61.0882 12.3989 61.2808 12.3049 61.3519 12.0802C61.3621 12.0587 61.365 12.0345 61.36 12.0113C61.355 11.9881 61.3425 11.9672 61.3244 11.9518L61.2786 11.9082C61.2462 11.8885 61.2088 11.8787 61.1709 11.8799C61.133 11.8811 61.0963 11.8933 61.0653 11.9151Z" fill="#2196F3"/>
</svg>
