<svg width="73" height="73" viewBox="0 0 73 73" fill="none" xmlns="http://www.w3.org/2000/svg">
<path d="M22.9672 65.5565C22.9672 65.5565 24.2947 60.2968 22.4611 54.8922C21.4321 51.8727 19.3523 50.3461 18.0348 50.1099C16.5588 49.8468 14.9884 50.9719 16.1945 53.0062C17.3415 54.9394 19.7149 55.8739 20.8603 60.7658C21.6143 63.991 21.3512 66.0625 21.3512 66.0625L22.9672 65.5565Z" fill="#2196F3"/>
<path opacity="0.5" d="M22.9672 65.5565C22.9672 65.5565 24.2947 60.2968 22.4611 54.8922C21.4321 51.8727 19.3523 50.3461 18.0348 50.1099C16.5588 49.8468 14.9884 50.9719 16.1945 53.0062C17.3415 54.9394 19.7149 55.8739 20.8603 60.7658C21.6143 63.991 21.3512 66.0625 21.3512 66.0625L22.9672 65.5565Z" fill="white"/>
<path d="M22.1235 64.1311C22.1119 64.1299 22.1007 64.1263 22.0906 64.1207C22.0804 64.1151 22.0714 64.1075 22.0642 64.0984C22.057 64.0893 22.0516 64.0789 22.0485 64.0677C22.0454 64.0565 22.0445 64.0448 22.0459 64.0333C23.0175 58.2389 20.1212 53.0923 17.7596 51.2942C17.7502 51.2881 17.7422 51.28 17.7363 51.2705C17.7304 51.261 17.7266 51.2503 17.7254 51.2391C17.7241 51.228 17.7253 51.2167 17.7288 51.2061C17.7324 51.1955 17.7383 51.1858 17.7461 51.1778C17.7642 51.1617 17.7876 51.1529 17.8119 51.1529C17.8361 51.1529 17.8595 51.1617 17.8776 51.1778C20.2764 53.0063 23.2149 58.2153 22.2314 64.0738C22.2237 64.095 22.2084 64.1126 22.1885 64.1232C22.1685 64.1338 22.1454 64.1367 22.1235 64.1311Z" fill="white"/>
<path d="M21.3465 66.0676C21.2048 64.7063 20.444 63.259 18.7302 61.6514C17.0163 60.0438 14.6193 58.5105 15.0511 57.2369C15.483 55.9633 17.4212 56.3833 18.7622 57.2015C20.1033 58.0196 23.0249 61.093 22.1629 65.8129L21.3465 66.0676Z" fill="#2196F3"/>
<path opacity="0.65" d="M21.3465 66.0676C21.2048 64.7063 20.444 63.259 18.7302 61.6514C17.0163 60.0438 14.6193 58.5105 15.0511 57.2369C15.483 55.9633 17.4212 56.3833 18.7622 57.2015C20.1033 58.0196 23.0249 61.093 22.1629 65.8129L21.3465 66.0676Z" fill="white"/>
<path d="M21.8083 64.5932C21.7878 64.5909 21.7687 64.5816 21.7542 64.5669C21.7398 64.5521 21.7309 64.5328 21.7291 64.5122C21.6228 61.6446 18.1192 57.8053 16.4424 57.1305C16.4317 57.127 16.4218 57.1213 16.4133 57.1137C16.4049 57.1062 16.3981 57.097 16.3933 57.0867C16.3886 57.0764 16.386 57.0653 16.3858 57.054C16.3855 57.0426 16.3876 57.0314 16.3918 57.0209C16.403 56.9998 16.4219 56.9839 16.4445 56.9763C16.4671 56.9688 16.4917 56.9703 16.5133 56.9804C18.271 57.6889 21.805 61.5349 21.9112 64.5122C21.9113 64.5237 21.9089 64.535 21.9044 64.5455C21.8998 64.556 21.8931 64.5654 21.8847 64.5732C21.8763 64.581 21.8664 64.5869 21.8555 64.5906C21.8447 64.5944 21.8332 64.5958 21.8218 64.5949L21.8083 64.5932Z" fill="white"/>
<path d="M32.5092 62.6906L32.1331 59.354L35.9335 59.0167C35.9335 59.0167 35.7733 61.5891 35.7969 62.7682C35.807 63.3249 36.2001 64.3707 36.2001 64.3707C36.2001 64.3707 34.6094 65.1956 33.7845 64.8582C32.9596 64.5209 32.4114 63.2186 32.435 62.9808C32.4586 62.7429 32.5092 62.6906 32.5092 62.6906Z" fill="#FFB573"/>
<path d="M40.6045 67.9366C40.6568 67.9366 40.6973 68.4207 40.4071 68.6586C40.0698 68.9319 39.0121 69.4548 37.7402 69.2709C36.4683 69.0871 35.7835 68.6856 35.2808 68.2588C34.7781 67.832 34.0747 67.2231 33.4995 67.0881C32.9828 66.9392 32.5002 66.6905 32.0791 66.356C31.9104 66.1873 31.9476 65.4654 31.9476 65.4654L40.6045 67.9366Z" fill="#263238"/>
<path d="M32.5082 62.6853C32.4611 62.6863 32.4157 62.7036 32.38 62.7344C32.3443 62.7652 32.3204 62.8075 32.3126 62.854C32.2704 63.0531 32.2164 63.6334 32.1253 63.9606C32.0005 64.4144 31.9043 65.3472 31.9684 65.72C32.0325 66.0928 33.0413 66.5634 33.5946 66.7777C34.2456 67.0701 34.8485 67.4597 35.3826 67.9332C35.973 68.4392 37.2247 68.9588 38.0563 68.9672C39.0397 68.9773 40.1531 68.6821 40.4179 68.2368C40.7418 67.6869 40.983 67.0459 39.5374 66.3543C39.2624 66.2244 38.3043 65.6424 37.977 65.4315C37.0931 64.8614 36.474 64.3418 36.081 63.3533C36.0489 63.2321 35.977 63.1252 35.8769 63.0497C35.7876 63.0114 35.6887 63.0014 35.5935 63.021C35.3489 63.0497 34.3773 63.1644 34.1546 63.2639C33.9572 63.3533 33.6772 63.4562 33.6772 63.7025C33.6805 63.7885 33.6976 63.8733 33.7278 63.9539C33.743 64.0045 33.7565 64.0719 33.711 64.1006C33.6654 64.1293 33.6131 64.1006 33.5743 64.0618C33.4339 63.9152 33.3058 63.7572 33.1914 63.5895C33.0775 63.44 32.9547 63.2975 32.8237 63.1627C32.7374 63.1121 32.6545 63.0557 32.5757 62.994C32.488 62.908 32.5116 62.8001 32.5082 62.6853Z" fill="#455A64"/>
<path d="M35.3818 67.9365C35.1321 67.7257 34.8656 67.5215 34.5974 67.3377C34.5974 67.3377 36.2944 68.3869 36.9911 67.9365C37.4431 67.6447 37.2373 67.277 37.2289 67.1589C37.2205 67.0408 38.8112 66.2463 39.2531 66.2041C39.3729 66.2716 39.4707 66.3289 39.5365 66.3559C40.6667 66.8249 40.8067 67.4052 40.6043 68.1288C40.3428 68.5741 39.3459 69.0195 38.074 68.9975C37.2407 68.979 35.9789 68.4274 35.3818 67.9365Z" fill="#37474F"/>
<path d="M37.1189 66.8133C38.0196 67.1861 37.6249 67.3463 37.3753 67.3767C37.1256 67.4071 35.6108 66.5046 34.6932 65.7624C33.7367 64.9898 33.0063 63.9608 32.642 63.6757C32.5104 63.5712 32.367 63.4413 32.2405 63.3198C32.2692 63.1241 32.2911 62.9453 32.3113 62.8509C32.3192 62.8044 32.343 62.762 32.3788 62.7312C32.4145 62.7004 32.4598 62.6831 32.507 62.6822C32.507 62.7969 32.4868 62.9048 32.5728 62.9926C32.6516 63.0542 32.7344 63.1106 32.8208 63.1612C32.9518 63.296 33.0746 63.4385 33.1885 63.588C33.3029 63.7557 33.431 63.9137 33.5714 64.0603C34.3457 65.0691 36.2198 66.4405 37.1189 66.8133Z" fill="#37474F"/>
<path d="M37.3135 67.245C37.2932 67.2436 37.2737 67.2359 37.2579 67.223C37.2487 67.2157 37.2412 67.2066 37.2356 67.1962C37.2301 67.1859 37.2268 67.1745 37.2259 67.1628C37.2249 67.1511 37.2264 67.1394 37.2301 67.1283C37.2339 67.1172 37.2399 67.1069 37.2478 67.0982C37.5092 66.7946 38.7356 66.0861 39.4019 66.1671C39.4151 66.1655 39.4286 66.167 39.4412 66.1714C39.4538 66.1758 39.4652 66.183 39.4746 66.1925C39.4839 66.202 39.491 66.2135 39.4953 66.2262C39.4996 66.2388 39.5009 66.2523 39.4992 66.2655C39.4974 66.2787 39.4927 66.2914 39.4854 66.3025C39.478 66.3137 39.4682 66.323 39.4567 66.3298C39.4452 66.3365 39.4323 66.3406 39.419 66.3416C39.4057 66.3427 39.3924 66.3407 39.3799 66.3358C38.7575 66.2582 37.5919 66.965 37.3844 67.2062C37.3764 67.2177 37.3658 67.2271 37.3535 67.2339C37.3412 67.2406 37.3275 67.2444 37.3135 67.245Z" fill="#263238"/>
<path d="M36.5323 66.7559C36.5114 66.7559 36.4911 66.7487 36.4749 66.7356C36.466 66.7282 36.4586 66.719 36.4532 66.7086C36.4478 66.6983 36.4446 66.687 36.4436 66.6753C36.4427 66.6637 36.4441 66.652 36.4477 66.6409C36.4513 66.6298 36.4572 66.6196 36.4648 66.6108C36.7263 66.3072 37.9526 65.5987 38.6189 65.6796C38.6305 65.6809 38.6416 65.6844 38.6518 65.6901C38.662 65.6957 38.6709 65.7032 38.6782 65.7123C38.6854 65.7214 38.6907 65.7319 38.6939 65.7431C38.697 65.7543 38.6979 65.766 38.6965 65.7775C38.6953 65.7892 38.6917 65.8005 38.6859 65.8108C38.6802 65.8211 38.6725 65.8302 38.6632 65.8374C38.6539 65.8447 38.6433 65.8499 38.6319 65.853C38.6205 65.856 38.6086 65.8567 38.597 65.8551C37.9745 65.7792 36.8089 66.4843 36.6014 66.7255C36.5929 66.7354 36.5822 66.7433 36.5703 66.7485C36.5583 66.7538 36.5453 66.7563 36.5323 66.7559Z" fill="#263238"/>
<path d="M35.7488 66.2835C35.7285 66.2832 35.709 66.276 35.6932 66.2633C35.6842 66.2558 35.6768 66.2466 35.6715 66.2363C35.6661 66.2259 35.6629 66.2146 35.6619 66.203C35.661 66.1914 35.6623 66.1797 35.666 66.1686C35.6696 66.1575 35.6754 66.1473 35.6831 66.1384C35.9445 65.8331 37.1709 65.1263 37.8372 65.2056C37.8606 65.2086 37.882 65.2207 37.8965 65.2393C37.9111 65.258 37.9176 65.2817 37.9148 65.3051C37.9135 65.3168 37.9099 65.3281 37.9042 65.3383C37.8985 65.3485 37.8907 65.3575 37.8814 65.3646C37.8721 65.3717 37.8614 65.3768 37.85 65.3796C37.8386 65.3825 37.8268 65.3829 37.8152 65.381C37.1928 65.3051 36.0272 66.0119 35.8197 66.2531C35.8107 66.2629 35.7997 66.2707 35.7875 66.2759C35.7753 66.2811 35.7621 66.2837 35.7488 66.2835Z" fill="#263238"/>
<path d="M35.0269 65.7522C35.006 65.7522 34.9858 65.7451 34.9695 65.732C34.9606 65.7245 34.9532 65.7153 34.9478 65.705C34.9425 65.6946 34.9392 65.6833 34.9383 65.6717C34.9373 65.6601 34.9387 65.6484 34.9423 65.6373C34.946 65.6262 34.9518 65.616 34.9594 65.6071C35.2209 65.3018 36.4506 64.595 37.1135 64.6743C37.137 64.6773 37.1583 64.6894 37.1729 64.708C37.1874 64.7267 37.194 64.7504 37.1911 64.7738C37.1899 64.7855 37.1863 64.7968 37.1806 64.807C37.1748 64.8172 37.1671 64.8261 37.1577 64.8333C37.1484 64.8404 37.1377 64.8455 37.1264 64.8483C37.115 64.8512 37.1032 64.8516 37.0916 64.8497C36.4692 64.7738 35.3035 65.4806 35.0961 65.7218C35.0873 65.7315 35.0766 65.7392 35.0647 65.7444C35.0528 65.7496 35.0399 65.7523 35.0269 65.7522Z" fill="#263238"/>
<path d="M34.3159 65.2208C34.2961 65.2207 34.2769 65.2136 34.2619 65.2006C34.2528 65.1935 34.2452 65.1846 34.2395 65.1746C34.2339 65.1645 34.2303 65.1533 34.229 65.1418C34.2278 65.1304 34.2288 65.1187 34.2322 65.1077C34.2355 65.0966 34.241 65.0863 34.2484 65.0774C34.6094 64.6456 35.8914 64.0552 36.5561 64.1395C36.5693 64.1379 36.5828 64.1394 36.5954 64.1438C36.6079 64.1482 36.6194 64.1555 36.6288 64.165C36.6381 64.1744 36.6452 64.186 36.6495 64.1986C36.6538 64.2113 36.6551 64.2247 36.6534 64.2379C36.6516 64.2512 36.6469 64.2638 36.6396 64.275C36.6322 64.2861 36.6224 64.2954 36.6109 64.3022C36.5994 64.309 36.5865 64.313 36.5732 64.3141C36.5599 64.3151 36.5465 64.3131 36.5341 64.3082C35.9353 64.234 34.7073 64.8008 34.3868 65.1837C34.3791 65.1954 34.3685 65.2049 34.3561 65.2114C34.3437 65.2179 34.3299 65.2211 34.3159 65.2208Z" fill="#263238"/>
<path d="M26.2111 64.2577L27.1153 60.2497L23.1596 59.6323L23.0955 63.5897C23.0955 63.5897 22.7936 64.6524 23.0162 65.0184C23.2389 65.3845 25.614 65.7691 25.8316 65.5245C26.0492 65.2799 26.2111 64.2577 26.2111 64.2577Z" fill="#FFB573"/>
<path d="M25.8158 70.5714C25.7129 71.4705 25.524 72.0525 25.141 72.5383C24.7581 73.0241 24.0598 73.1085 23.3732 72.8757C22.6867 72.6429 21.8095 72.1031 21.6526 71.2968C21.4958 70.4905 21.5599 69.9608 21.7572 69.1393L25.8158 70.5714Z" fill="#263238"/>
<path d="M23.0976 63.5896C22.8108 63.5745 22.8884 64.2812 22.7602 65.4941C22.6135 66.8048 22.0231 67.8321 21.8122 68.883C21.5727 70.084 21.6182 70.639 22.0652 71.4386C22.5123 72.2381 24.1907 73.1727 25.0864 72.2162C25.8168 71.4369 25.891 70.4838 25.8893 69.2541C25.8893 67.9839 25.8725 67.0882 25.9787 66.1385C26.0783 65.2293 26.4595 64.3892 26.2166 64.2576C26.1913 64.3892 25.9467 65.3102 25.7864 65.295C25.7803 65.1824 25.7854 65.0694 25.8016 64.9577C25.8121 64.9051 25.8119 64.8509 25.8009 64.7984C25.7899 64.746 25.7683 64.6963 25.7375 64.6524C25.6003 64.5456 25.444 64.466 25.277 64.4179C24.997 64.3352 24.4994 64.2306 24.2143 64.1733C24.0726 64.1446 23.9309 64.121 23.7875 64.1041C23.6667 64.0873 23.544 64.0873 23.4232 64.1041C23.3886 64.1073 23.3554 64.1185 23.326 64.137C23.2967 64.1555 23.2722 64.1806 23.2545 64.2104C23.2378 64.2539 23.2303 64.3005 23.2325 64.347C23.2291 64.4312 23.2126 64.5143 23.1836 64.5933C23.1718 64.6287 23.1415 64.6692 23.101 64.6557C23.0866 64.6485 23.0748 64.637 23.0673 64.6228C23.0597 64.6086 23.0567 64.5924 23.0588 64.5764C23.0655 64.4213 23.0875 63.6672 23.0976 63.5896Z" fill="#455A64"/>
<path d="M21.8888 68.544C21.8517 68.7126 21.6256 69.8631 21.9748 70.1178C22.3527 70.3944 22.6107 69.5021 22.6107 69.5021C22.6107 69.5021 23.5351 69.3655 24.8357 70.0419C24.7581 70.2241 24.9335 70.8735 25.303 70.7858C25.6724 70.6981 25.8799 69.3773 25.8832 69.3604C25.8832 70.5412 25.7888 71.4605 25.0803 72.2162C24.1846 73.1727 22.5062 72.2365 22.0591 71.4386C21.6121 70.6407 21.5666 70.0891 21.8061 68.883C21.8297 68.7632 21.8584 68.6502 21.8888 68.544Z" fill="#37474F"/>
<path d="M22.7106 69.5932C22.6837 70.0335 22.2046 69.8243 22.2046 69.1968C22.2046 68.5693 22.542 67.0477 22.6668 66.0238C22.7494 64.5478 22.8085 63.5745 23.0952 63.5897C23.0952 63.6032 23.0952 63.6184 23.0952 63.6335C23.0952 63.6487 23.0649 64.477 23.0615 64.5697C23.0092 65.4705 22.9974 67.2215 22.8692 68.0345C22.7839 68.5503 22.731 69.0709 22.7106 69.5932Z" fill="#37474F"/>
<path d="M24.6775 70.0115C24.826 69.5134 24.9426 69.0063 25.0267 68.4933C25.165 67.6887 25.6474 66.0761 25.8853 65.209C25.9629 65.0673 26.2058 64.2576 26.2058 64.2576C26.4048 64.3133 26.2058 65.0859 26.113 65.4469C26.0202 65.8079 25.9072 66.1958 25.7908 66.7137C25.4939 67.7359 25.4652 69.271 25.2746 69.8597C25.084 70.4484 24.5678 70.4349 24.6775 70.0115Z" fill="#37474F"/>
<path d="M24.8626 70.0824C24.8491 70.0791 24.836 70.074 24.8238 70.0672C24.1543 69.6999 23.3923 69.5357 22.6309 69.5949C22.6039 69.5984 22.5765 69.5922 22.5536 69.5774C22.5307 69.5625 22.5139 69.54 22.5061 69.5139C22.5031 69.5016 22.5029 69.4888 22.5054 69.4764C22.5079 69.4639 22.5132 69.4522 22.5207 69.4421C22.5283 69.4319 22.538 69.4236 22.5492 69.4176C22.5604 69.4117 22.5727 69.4083 22.5854 69.4076C23.3994 69.339 24.2153 69.5152 24.9284 69.9137C24.94 69.9193 24.9504 69.9273 24.9587 69.9372C24.967 69.947 24.9732 69.9585 24.9769 69.9709C24.9805 69.9833 24.9816 69.9963 24.9799 70.0091C24.9782 70.0219 24.9739 70.0342 24.9672 70.0452C24.9552 70.0608 24.9389 70.0725 24.9204 70.0791C24.9018 70.0857 24.8818 70.0868 24.8626 70.0824Z" fill="#263238"/>
<path d="M25.1481 69.1513C25.1363 69.1491 25.125 69.1452 25.1144 69.1395C24.3548 68.75 23.5058 68.5678 22.6533 68.6115C22.6259 68.614 22.5985 68.6068 22.576 68.591C22.5534 68.5753 22.5372 68.552 22.5301 68.5255C22.5279 68.513 22.5285 68.5003 22.5317 68.488C22.5349 68.4758 22.5407 68.4644 22.5487 68.4547C22.5567 68.4449 22.5667 68.437 22.5781 68.4314C22.5894 68.4259 22.6018 68.4229 22.6145 68.4226C23.5131 68.3735 24.4084 68.5663 25.2072 68.9809C25.2189 68.9865 25.2293 68.9943 25.2379 69.004C25.2465 69.0137 25.253 69.0251 25.2571 69.0374C25.2612 69.0497 25.2628 69.0626 25.2618 69.0756C25.2607 69.0885 25.2571 69.101 25.251 69.1125C25.2394 69.1282 25.2236 69.1402 25.2053 69.1471C25.1871 69.154 25.1672 69.1554 25.1481 69.1513Z" fill="#263238"/>
<path d="M22.7743 67.7089C22.7546 67.7049 22.7363 67.696 22.721 67.683C22.7056 67.67 22.6938 67.6534 22.6866 67.6347C22.6828 67.6226 22.6817 67.6098 22.6834 67.5972C22.6851 67.5846 22.6896 67.5725 22.6966 67.5619C22.7035 67.5513 22.7127 67.5423 22.7235 67.5356C22.7343 67.529 22.7465 67.5248 22.7591 67.5234C24.0597 67.2956 25.2894 68.0294 25.3484 68.0598C25.3599 68.0656 25.37 68.0737 25.3782 68.0836C25.3864 68.0935 25.3925 68.1049 25.3961 68.1172C25.3998 68.1295 25.4009 68.1425 25.3993 68.1552C25.3978 68.168 25.3937 68.1803 25.3872 68.1914C25.3698 68.212 25.3455 68.2256 25.3188 68.2296C25.2921 68.2336 25.2649 68.2278 25.2422 68.2133C25.2304 68.2133 24.0276 67.4964 22.8198 67.7072C22.805 67.7112 22.7894 67.7118 22.7743 67.7089Z" fill="#263238"/>
<path d="M22.8902 66.8587C22.871 66.8545 22.8532 66.8457 22.8382 66.833C22.8233 66.8204 22.8115 66.8043 22.8041 66.7862C22.8 66.7741 22.7987 66.7612 22.8001 66.7486C22.8016 66.7359 22.8059 66.7237 22.8127 66.7128C22.8195 66.702 22.8286 66.6929 22.8394 66.686C22.8501 66.6791 22.8623 66.6748 22.875 66.6732C24.3054 66.3982 25.4677 67.1792 25.5166 67.2079C25.5278 67.2142 25.5376 67.2229 25.5452 67.2332C25.5528 67.2436 25.5582 67.2555 25.5609 67.2681C25.5636 67.2807 25.5636 67.2937 25.5609 67.3063C25.5582 67.3189 25.5529 67.3308 25.5453 67.3412C25.5268 67.3612 25.5016 67.3738 25.4745 67.3762C25.4474 67.3787 25.4203 67.371 25.3985 67.3547C25.3884 67.3547 24.2683 66.604 22.9374 66.8587C22.9217 66.8612 22.9058 66.8612 22.8902 66.8587Z" fill="#263238"/>
<path d="M23.0245 65.9022C23.0053 65.8987 22.9873 65.8904 22.9723 65.878C22.9572 65.8656 22.9456 65.8495 22.9384 65.8314C22.934 65.8196 22.9323 65.8069 22.9335 65.7943C22.9346 65.7817 22.9386 65.7695 22.945 65.7587C22.9515 65.7478 22.9603 65.7386 22.9709 65.7316C22.9814 65.7246 22.9934 65.7201 23.0059 65.7184C24.3554 65.4417 25.6138 66.2464 25.6661 66.2818C25.6774 66.288 25.6872 66.2965 25.6951 66.3068C25.7029 66.317 25.7085 66.3288 25.7115 66.3413C25.7145 66.3539 25.7149 66.3669 25.7126 66.3796C25.7103 66.3923 25.7053 66.4044 25.6981 66.415C25.6802 66.4352 25.6556 66.448 25.6288 66.4511C25.602 66.4543 25.5751 66.4474 25.553 66.4319C25.5396 66.4235 24.3183 65.6458 23.0717 65.9039C23.056 65.9059 23.04 65.9053 23.0245 65.9022Z" fill="#263238"/>
<path d="M24.6167 33.3561C23.36 36.4363 24.1848 40.5556 24.0566 43.9124C23.9031 47.9288 23.834 51.0765 23.834 51.0765C23.7867 51.6163 23.478 52.372 23.2284 55.0356C22.9619 57.8459 22.972 61.8639 22.972 61.8639C22.972 61.8639 25.3471 62.8761 26.8231 62.3548C26.8231 62.3548 28.4104 56.3361 29.1847 53.0282C29.9066 49.8873 30.4397 44.9954 30.4397 44.9954L31.3017 49.7186C31.3017 49.7186 31.1937 51.7428 31.2443 53.1631C31.3034 54.8146 32.194 61.1318 32.194 61.1318C32.194 61.1318 34.4004 62.4527 35.9355 61.1926C35.9355 61.1926 36.6844 51.9149 36.7333 49.9362C36.8312 46.0429 36.9425 38.3863 36.482 33.3645L24.6167 33.3561Z" fill="#37474F"/>
<path d="M30.4399 44.9954L31.4251 38.8181C31.4251 38.8181 33.5505 38.4639 34.4614 37.58C33.9458 38.475 33.0967 39.1295 32.0998 39.4001L31.0675 45.1152L31.3019 49.7186L30.4399 44.9954Z" fill="#263238"/>
<path d="M22.9314 61.9956C23.5943 62.5151 25.5258 62.9588 26.8483 62.4797L27.1148 61.3579C26.1162 61.6953 24.0599 61.4811 22.9533 60.7979L22.9314 61.9956Z" fill="#455A64"/>
<path d="M32.1933 61.2533C32.6403 61.7071 34.7151 62.0816 35.9415 61.3646L36.0309 60.2446C35.1014 60.7607 32.9675 60.673 32.0566 60.1417L32.1933 61.2533Z" fill="#455A64"/>
<path d="M23.9876 44.4641C23.9876 44.4641 23.7818 49.4673 23.7953 49.8317C23.8088 50.196 26.5331 50.9163 26.6006 50.6852C26.7186 50.3006 26.6883 49.4403 26.9227 45.2873C24.6674 45.0039 23.9876 44.4641 23.9876 44.4641Z" fill="#455A64"/>
<path d="M26.4988 46.7211C26.4149 46.7012 26.3285 46.6938 26.2424 46.6992C26.1423 46.6992 26.0428 46.6941 25.9438 46.684C25.7326 46.6671 25.5229 46.6349 25.3163 46.5878C25.083 46.5346 24.8536 46.4653 24.6298 46.3804C24.4476 46.3095 24.2755 46.2117 24.0917 46.1476C24.0748 46.1476 24.0731 46.1746 24.0917 46.1813C24.2707 46.3023 24.4639 46.4009 24.6669 46.4748C24.8513 46.5487 25.0407 46.6096 25.2337 46.657C25.4396 46.7076 25.6487 46.7448 25.8595 46.7683C25.9641 46.7802 26.0703 46.7869 26.1749 46.7903C26.2876 46.8112 26.4037 46.803 26.5123 46.7667C26.514 46.7599 26.5157 46.7262 26.4988 46.7211Z" fill="#37474F"/>
<path d="M25.3152 46.0227C25.2899 45.9705 25.2697 45.9384 25.2107 45.9317C25.1623 45.9262 25.1137 45.9388 25.0741 45.9671C25.0558 45.9804 25.0404 45.9973 25.0289 46.0167C25.0173 46.0361 25.0097 46.0577 25.0066 46.0801C25.0025 46.1159 25.0086 46.1521 25.0241 46.1847C25.0397 46.2172 25.064 46.2447 25.0945 46.2641C25.1249 46.2834 25.1601 46.2938 25.1962 46.2941C25.2323 46.2944 25.2677 46.2845 25.2984 46.2656C25.3149 46.2517 25.3279 46.2341 25.3361 46.2141C25.3444 46.1941 25.3476 46.1724 25.3456 46.1509C25.3457 46.1064 25.3353 46.0625 25.3152 46.0227ZM25.2646 46.1745C25.2483 46.1939 25.2259 46.2071 25.2011 46.212C25.1762 46.2169 25.1505 46.2132 25.128 46.2015C25.0572 46.161 25.0724 46.0329 25.1567 46.0177C25.1834 46.0142 25.2105 46.0208 25.2326 46.0362C25.2536 46.052 25.2683 46.0747 25.2742 46.1004C25.2801 46.126 25.2767 46.1528 25.2646 46.1762V46.1745Z" fill="#37474F"/>
<path d="M33.1379 20.3252C34.5077 20.5715 35.1723 20.9206 36.2013 22.5721C37.2303 24.2235 39.322 28.9383 39.322 28.9383L41.8337 34.0646L39.8866 35.1841C39.8866 35.1841 38.379 33.4017 37.4242 32.231C36.7174 31.3657 36.2434 30.7331 35.319 29.1171C34.3946 27.5011 33.5782 25.8328 33.5782 25.8328L33.1379 20.3252Z" fill="#FFB573"/>
<path d="M25.6792 30.0212C25.6792 30.3754 24.7768 32.1567 24.2859 34.078C27.2396 37.887 35.9927 35.8088 36.6337 33.6648C36.4953 31.1176 36.3773 24.6823 35.8189 23.5183C35.2008 22.2503 34.2803 21.1536 33.1385 20.3251C32.5214 20.2063 31.8979 20.1235 31.2712 20.0771C30.3392 19.9804 29.3986 20.0042 28.4727 20.148C27.6444 20.2762 26.2798 20.6355 26.2798 20.6355C25.7602 21.0741 24.323 22.9212 24.6553 25.1478C24.8105 26.1701 25.6894 27.5044 25.6792 30.0212Z" fill="#2196F3"/>
<path opacity="0.2" d="M25.6792 30.0212C25.6792 30.3754 24.7768 32.1567 24.2859 34.078C27.2396 37.887 35.9927 35.8088 36.6337 33.6648C36.4953 31.1176 36.3773 24.6823 35.8189 23.5183C35.2008 22.2503 34.2803 21.1536 33.1385 20.3251C32.5214 20.2063 31.8979 20.1235 31.2712 20.0771C30.3392 19.9804 29.3986 20.0042 28.4727 20.148C27.6444 20.2762 26.2798 20.6355 26.2798 20.6355C25.7602 21.0741 24.323 22.9212 24.6553 25.1478C24.8105 26.1701 25.6894 27.5044 25.6792 30.0212Z" fill="white"/>
<path d="M30.641 34.4188C30.5414 34.2012 31.5789 34.0224 31.9601 33.5501C32.149 33.3156 32.1288 32.8619 31.7357 33.0171C30.9244 33.3443 30.4605 33.2633 29.9224 33.4017" fill="#FFB573"/>
<path d="M29.9223 33.4018C29.3859 33.5401 28.9574 33.557 28.1494 33.3461C27.2908 33.1218 24.359 30.7062 24.359 30.7062L26.3748 25.6456C26.3748 25.6456 27.3279 23.4072 26.2821 20.6374C24.2899 21.0658 23.8125 21.8081 23.4414 22.4491C23.0703 23.0901 22.8729 23.6754 21.903 26.3288C21.0612 28.6331 20.6277 29.9826 20.4371 30.9238C20.2026 32.081 20.96 32.6866 22.4107 33.5334C23.8614 34.3802 24.8246 34.8255 26.9433 35.8376C27.9554 36.3251 28.588 36.4398 29.5208 36.7047C29.8713 36.8173 30.2373 36.8742 30.6055 36.8734C30.9426 36.8806 31.2763 36.8047 31.5771 36.6524C31.629 36.6176 31.6859 36.5909 31.7458 36.5731C31.8067 36.5648 31.8681 36.5608 31.9296 36.5613C32.0439 36.5614 32.1575 36.5449 32.267 36.5124C32.3782 36.4608 32.4839 36.3981 32.5825 36.3251C32.6286 36.2928 32.6765 36.2629 32.7258 36.2357C32.7803 36.2126 32.8368 36.1945 32.8945 36.1817C33.046 36.1576 33.1921 36.1074 33.3264 36.0333C33.3602 36.0111 33.3876 35.9804 33.406 35.9443C33.4243 35.9082 33.4329 35.8679 33.4309 35.8275C33.4309 35.8275 33.6283 35.8106 33.6958 35.8005C33.789 35.7868 33.8806 35.7637 33.969 35.7314C33.987 35.727 34.0038 35.7189 34.0183 35.7075C34.0328 35.6962 34.0448 35.6819 34.0534 35.6656C34.0593 35.644 34.0593 35.6213 34.0534 35.5998C33.9758 35.2624 33.6351 35.1561 33.3348 35.0937C32.5521 34.925 32.0258 34.9841 31.2616 34.7294C30.8467 34.591 30.7438 34.5506 30.6459 34.4291" fill="#FFB573"/>
<path d="M24.3587 30.7061C23.9042 30.2726 23.4062 29.887 22.8726 29.5557C22.8726 29.5557 23.4511 29.5 24.4801 30.3991L24.3587 30.7061Z" fill="#F0997A"/>
<path d="M33.3908 35.8409C33.1925 35.8634 32.9932 35.8758 32.7936 35.878C32.5929 35.878 32.3939 35.878 32.1948 35.8864C32.097 35.8864 31.9974 35.8864 31.8945 35.8864C31.7916 35.8864 31.6938 35.8763 31.5943 35.8645C31.3952 35.8426 31.1979 35.8139 31.0022 35.7734L31.3008 35.7903L31.5993 35.8071C31.6989 35.8071 31.7984 35.8071 31.8962 35.8071C31.9941 35.8071 32.0936 35.8071 32.1948 35.8071C32.3939 35.8071 32.5946 35.8071 32.7936 35.8156L33.3908 35.8409Z" fill="#F0997A"/>
<path d="M32.7481 36.2237C32.5996 36.2737 32.4465 36.3087 32.291 36.3283C32.1392 36.3469 31.9857 36.3587 31.8322 36.3654C31.6787 36.3722 31.5251 36.3654 31.37 36.3654C31.2163 36.3626 31.0631 36.3497 30.9111 36.3266C31.0646 36.3266 31.2165 36.3131 31.37 36.3064L31.8288 36.2878L32.2859 36.2676C32.4361 36.2541 32.5946 36.2372 32.7481 36.2237Z" fill="#F0997A"/>
<path d="M42.8311 34.1894C43.3017 34.1101 43.3203 34.0545 43.354 33.8082C43.3863 33.6165 43.3725 33.4198 43.3139 33.2344C43.2552 33.0491 43.1533 32.8803 43.0166 32.7421C42.767 32.5076 42.5274 32.2596 42.3419 32.1989C42.1563 32.1382 41.9961 32.5076 42.2424 32.8939C42.6286 33.5012 42.4903 33.6327 42.4903 33.6327C42.3269 33.373 42.1501 33.1219 41.9606 32.8804C41.792 32.6864 41.3635 32.4401 41.1172 32.263C40.8709 32.0859 40.5622 32.317 40.8254 32.7691L40.3801 32.4486C40.068 32.2225 39.8335 32.2799 39.874 32.6527C39.8843 32.7793 39.9379 32.8984 40.0258 32.99C40.0258 32.99 39.7391 32.7033 39.6378 32.7927C39.3494 33.0491 39.4557 33.2987 39.8673 34.0443C40.2181 34.6786 40.1776 35.0379 39.928 35.183L39.7593 35.2606C39.7593 35.2606 40.1102 35.3533 40.4459 35.4141C40.6904 35.4579 40.9266 35.468 41.0869 35.1762C41.0869 35.1762 41.3956 35.4967 41.6098 35.3213C41.7563 35.1826 41.8714 35.014 41.9472 34.827C42.0356 34.8514 42.129 34.8502 42.2168 34.8236C42.3046 34.797 42.383 34.7462 42.4431 34.6769C42.5676 34.5533 42.6476 34.392 42.6708 34.2181L42.8311 34.1894Z" fill="#FFB573"/>
<path d="M41.3892 32.764C41.5276 32.8548 41.657 32.9587 41.7754 33.0744C41.876 33.2094 41.954 33.3598 42.0065 33.5197C42.1281 33.8219 42.2235 34.134 42.2916 34.4525C42.1279 34.1712 41.9879 33.8767 41.8733 33.572C41.825 33.4237 41.7629 33.2802 41.6877 33.1436C41.6 33.0187 41.4786 32.899 41.3892 32.764Z" fill="#F0997A"/>
<path d="M40.5952 32.9817C40.753 33.0694 40.8868 33.1946 40.9849 33.3461C41.0815 33.4955 41.1639 33.6536 41.2312 33.8184C41.3691 34.1439 41.4721 34.4832 41.5382 34.8305C41.3755 34.5206 41.2291 34.2025 41.0996 33.8774C40.9889 33.55 40.8178 33.2462 40.5952 32.9817Z" fill="#F0997A"/>
<path d="M53.9468 17.0481C53.8246 16.9899 53.6909 16.9599 53.5555 16.9604C53.3285 16.969 53.1079 17.0377 52.9162 17.1595C52.6712 17.3034 52.4522 17.4876 52.2684 17.7043C52.0682 17.9364 51.8951 18.1905 51.7522 18.4617C51.6066 18.7426 51.4934 19.0391 51.4149 19.3456C51.3346 19.645 51.2932 19.9534 51.2917 20.2633C51.2849 20.5295 51.3266 20.7947 51.4149 21.046C51.4795 21.2364 51.5964 21.4047 51.7522 21.5318L51.8028 21.5672C51.6105 21.4593 50.2408 20.6816 50.1059 20.5804C49.9505 20.4529 49.8337 20.2847 49.7685 20.0946C49.681 19.8431 49.6393 19.5781 49.6453 19.3119C49.6476 19.002 49.6889 18.6937 49.7685 18.3942C49.8471 18.0878 49.9603 17.7912 50.1059 17.5103C50.2471 17.2382 50.4204 16.9839 50.622 16.7529C50.8057 16.5368 51.0241 16.3527 51.2681 16.2081C51.4598 16.0863 51.6805 16.0177 51.9074 16.009C52.0667 16.0073 52.2235 16.0487 52.3612 16.1288C52.3797 16.1406 53.5555 16.817 53.9468 17.0481Z" fill="#263238"/>
<path d="M54.5407 4.41367C54.351 4.31302 54.1329 4.27915 53.9216 4.31752C53.7499 4.34331 53.5829 4.39388 53.4257 4.46765C53.4361 4.56852 53.4412 4.66987 53.4409 4.77128C53.4436 5.29246 53.358 5.81033 53.1879 6.30295C53.0187 6.79064 52.8082 7.26299 52.5587 7.71484C52.3073 8.16861 52.0391 8.61225 51.7523 9.04071C51.4656 9.46917 51.2058 9.89257 50.9713 10.3092C50.7469 10.7095 50.56 11.1296 50.413 11.5642C50.2745 11.9713 50.2245 12.4032 50.2662 12.8311L50.4501 15.0678L52.0965 16.0209L51.916 13.7858C51.8731 13.3582 51.922 12.9263 52.0594 12.519C52.2055 12.0835 52.3937 11.6632 52.6211 11.264C52.8527 10.8468 53.1125 10.4239 53.4004 9.99547C53.6855 9.56701 53.9554 9.12337 54.205 8.6696C54.4554 8.21794 54.6665 7.74556 54.8359 7.25771C55.0054 6.76555 55.0904 6.24825 55.0873 5.72773C55.0989 5.43966 55.0501 5.15234 54.9439 4.8843C54.866 4.68669 54.724 4.52095 54.5407 4.41367Z" fill="#263238"/>
<path d="M54.6029 0.171141C54.2355 0.0125073 53.8304 -0.0372618 53.4356 0.0277578C52.8308 0.127659 52.2515 0.344841 51.7301 0.667077C51.2766 0.928693 50.8481 1.23134 50.4498 1.57123C50.0583 1.9066 49.6913 2.26964 49.3517 2.65756C49.0143 3.04468 48.7 3.45136 48.4104 3.87547C48.1203 4.30056 47.8537 4.72733 47.6108 5.1558L48.3092 6.23032C48.3405 6.30187 48.3944 6.36114 48.4627 6.39901C48.5656 6.45299 49.9606 7.26774 50.1057 7.34871C50.0398 7.30893 49.9874 7.25012 49.9556 7.18002L49.2572 6.1055C49.5001 5.67703 49.7672 5.25026 50.0585 4.82517C50.3469 4.40028 50.6613 3.99354 50.9997 3.60726C51.3387 3.21936 51.7052 2.85632 52.0962 2.52093C52.4946 2.18127 52.9232 1.87863 53.3765 1.61678C53.8981 1.29374 54.4781 1.07651 55.0836 0.977458C55.4951 0.911472 55.917 0.970224 56.2948 1.14614C55.8241 0.867812 54.6467 0.189697 54.6029 0.171141Z" fill="#37474F"/>
<path d="M48.4627 6.3975C48.5656 6.45148 49.9606 7.26623 50.1057 7.3472C50.0398 7.30743 49.9874 7.24862 49.9556 7.17852L49.2572 6.10399L47.6108 5.1526L48.3092 6.22713C48.3402 6.2993 48.3941 6.3592 48.4627 6.3975Z" fill="#263238"/>
<path d="M49.2568 6.10724C49.4997 5.67878 49.7668 5.252 50.0581 4.82691C50.347 4.40232 50.6613 3.99561 50.9994 3.60901C51.3385 3.22068 51.7055 2.8576 52.0975 2.52267C52.495 2.18185 52.9237 1.87914 53.3778 1.61851C53.8988 1.29553 54.4783 1.07829 55.0832 0.979199C55.5347 0.90166 55.9992 0.979563 56.4007 1.20018C56.7905 1.44737 57.0871 1.81702 57.2441 2.25108C57.4638 2.84426 57.5663 3.47441 57.546 4.10662C57.5514 4.78864 57.4715 5.46865 57.3082 6.13085C57.1618 6.72208 56.9642 7.29947 56.7178 7.8565C56.492 8.36384 56.231 8.85478 55.9368 9.32575L55.1355 10.5993C54.8836 10.9974 54.6666 11.3713 54.4844 11.7211C54.3136 12.0354 54.2021 12.3785 54.1555 12.7332L53.9092 14.9717L52.0908 16.0209L51.9069 13.7875C51.8654 13.3597 51.9149 12.928 52.052 12.5207C52.1989 12.0857 52.3864 11.6655 52.612 11.2656C52.8448 10.8484 53.1051 10.4256 53.393 9.99712C53.6809 9.56866 53.9497 9.12615 54.1993 8.66957C54.4485 8.2181 54.659 7.74634 54.8285 7.25936C54.9984 6.76725 55.084 6.24999 55.0815 5.72938C55.0919 5.44124 55.0425 5.15408 54.9365 4.88596C54.8622 4.68484 54.718 4.51712 54.5304 4.41339C54.3428 4.30966 54.1241 4.27682 53.9142 4.32086C53.6375 4.36781 53.3724 4.46745 53.1332 4.61437C52.7554 4.82789 52.4067 5.08926 52.0958 5.39201C51.8367 5.64782 51.5954 5.92117 51.3738 6.21013C51.1782 6.47328 51.0112 6.7027 50.8678 6.90174C50.7738 7.0554 50.6492 7.18805 50.5017 7.29141C50.2436 7.44154 50.0564 7.40443 49.9417 7.18513L49.2568 6.10724ZM51.2895 20.2633C51.2916 19.9534 51.3335 19.6449 51.4143 19.3457C51.4914 19.0387 51.6047 18.742 51.7517 18.4618C51.8934 18.1899 52.0666 17.9357 52.2679 17.7044C52.4508 17.4874 52.6693 17.3032 52.9139 17.1595C53.1054 17.0375 53.3263 16.9693 53.5533 16.9621C53.7381 16.9585 53.9192 17.0147 54.0694 17.1224C54.2304 17.2478 54.3517 17.4171 54.4186 17.6099C54.5107 17.8562 54.5548 18.1179 54.5485 18.3808C54.5481 18.6946 54.5044 19.0068 54.4186 19.3086C54.3355 19.6153 54.2184 19.9118 54.0694 20.1925C53.9274 20.462 53.7541 20.714 53.5533 20.9431C53.3706 21.1549 53.1547 21.3355 52.9139 21.4779C52.7186 21.5984 52.4969 21.6697 52.2679 21.6853C52.0831 21.6964 51.9004 21.6421 51.7517 21.5318C51.5946 21.4059 51.4774 21.2372 51.4143 21.046C51.3255 20.7949 51.2832 20.5296 51.2895 20.2633Z" fill="#B1DAFB"/>
<path d="M26.5681 11.567C26.5238 11.7046 26.4944 11.8466 26.4804 11.9904C26.4694 12.0823 26.4694 12.1752 26.4804 12.2671C26.5223 12.4788 26.636 12.6696 26.8022 12.8073C26.9685 12.945 27.1771 13.0211 27.393 13.0228C27.6078 13.0148 27.8179 12.9581 28.0075 12.857C28.1972 12.7559 28.3614 12.613 28.4878 12.4392C28.8437 11.9854 29.375 10.921 28.6834 10.5347C28.4514 10.4176 28.1915 10.3669 27.9325 10.3884C27.6735 10.4098 27.4255 10.5025 27.2159 10.6561C26.9093 10.8838 26.6825 11.2027 26.5681 11.567Z" fill="#2196F3"/>
<path opacity="0.25" d="M26.5681 11.567C26.5238 11.7046 26.4944 11.8466 26.4804 11.9904C26.4694 12.0823 26.4694 12.1752 26.4804 12.2671C26.5223 12.4788 26.636 12.6696 26.8022 12.8073C26.9685 12.945 27.1771 13.0211 27.393 13.0228C27.6078 13.0148 27.8179 12.9581 28.0075 12.857C28.1972 12.7559 28.3614 12.613 28.4878 12.4392C28.8437 11.9854 29.375 10.921 28.6834 10.5347C28.4514 10.4176 28.1915 10.3669 27.9325 10.3884C27.6735 10.4098 27.4255 10.5025 27.2159 10.6561C26.9093 10.8838 26.6825 11.2027 26.5681 11.567Z" fill="black"/>
<path d="M34.9946 11.0509C34.5324 10.3761 33.7109 10.1501 33.2487 10.3761C32.8304 9.81104 31.9836 9.48716 31.2852 9.44499C28.6183 9.2763 27.7563 10.5937 27.6113 11.0829C26.3495 11.2516 25.442 13.1443 26.2061 15.7454C26.5435 16.8773 28.2573 18.2268 28.3602 18.8307L29.5781 18.4224C29.6386 17.8701 29.8512 17.3454 30.1922 16.9067C30.5332 16.4681 30.9893 16.1326 31.5096 15.9377C33.3415 15.2191 34.3772 14.7721 34.6572 14.401C35.7891 13.2573 35.4585 11.7189 34.9946 11.0509Z" fill="#263238"/>
<path d="M27.3411 9.16666C26.6326 9.251 26.1856 9.6103 26.0506 10.2952C25.4181 10.2041 24.7231 10.3205 24.2541 10.8012C24.0991 10.9645 23.982 11.16 23.9112 11.3737C23.8403 11.5874 23.8175 11.8141 23.8442 12.0377C23.8763 12.4611 24.0956 12.6854 24.3503 12.9806C24.1206 13.0794 23.9356 13.2597 23.831 13.4868C23.7263 13.7138 23.7094 13.9716 23.7835 14.2104C23.8695 14.5056 24.9812 15.5969 24.0888 15.6847C24.4954 15.9664 25.1836 15.7268 25.1364 15.1786C25.1305 15.3418 25.1571 15.5044 25.2145 15.6572C25.2719 15.8101 25.3591 15.95 25.4709 16.0689C25.5828 16.1878 25.7171 16.2833 25.8661 16.35C26.0151 16.4167 26.1759 16.4531 26.3391 16.4572C27.3343 16.5011 28.1423 15.9512 28.3802 14.9863L28.8609 10.0438C28.6653 9.41294 28.0327 9.08232 27.3411 9.16666Z" fill="#263238"/>
<path d="M34.6472 13.1139C34.7074 13.4034 34.7491 13.6963 34.772 13.9911C34.8268 14.5792 34.8437 15.1703 34.8226 15.7606C34.7349 17.8624 34.1479 18.6434 33.5946 18.9083C33.0395 19.1388 32.4291 19.2022 31.8385 19.0904L31.8638 20.3607C31.8638 20.3607 33.7751 21.6477 32.0646 22.1403C31.4118 22.3275 30.0606 22.0492 29.3049 21.4554C28.5492 20.8616 28.3468 20.4939 28.3468 20.4939L28.313 17.4576C28.313 17.4576 27.6535 18.0733 26.8455 17.2113C26.2686 16.599 26.1353 15.2967 26.8961 14.8936C27.0184 14.818 27.155 14.7686 27.2973 14.7486C27.4397 14.7285 27.5847 14.7382 27.7231 14.7771C27.8615 14.8159 27.9903 14.883 28.1014 14.9742C28.2126 15.0654 28.3036 15.1787 28.3687 15.3068C28.6555 15.8281 29.1851 15.629 29.1767 15.0285C29.1683 14.428 29.2071 14.2441 29.4044 13.9354C30.0792 12.8913 29.6035 12.5758 30.2293 11.9736C30.5886 11.6362 31.5619 11.4996 32.2991 12.0579C33.1543 11.3006 34.3182 11.6278 34.6472 13.1139Z" fill="#FFB573"/>
<path d="M32.1987 13.8594L32.6441 16.2295L33.8232 15.6762L32.1987 13.8594Z" fill="#F0997A"/>
<path d="M31.838 19.082C30.2304 18.7446 29.3077 18.1036 29.0159 17.4559C29.1202 17.9992 29.4341 18.4797 29.8897 18.7936C30.6656 19.2861 31.8464 19.4919 31.8464 19.4919L31.838 19.082Z" fill="#F0997A"/>
<path d="M33.5294 13.2421L34.2581 13.62C34.236 13.6686 34.2042 13.7122 34.1647 13.7482C34.1252 13.7841 34.0788 13.8117 34.0283 13.8292C33.9778 13.8467 33.9243 13.8538 33.8711 13.85C33.8178 13.8462 33.7658 13.8317 33.7183 13.8072C33.6206 13.755 33.5465 13.6674 33.5114 13.5623C33.4762 13.4572 33.4827 13.3426 33.5294 13.2421Z" fill="#263238"/>
<path d="M30.3877 13.7244L31.194 13.3785C31.2203 13.4302 31.2356 13.4867 31.2389 13.5446C31.2422 13.6024 31.2336 13.6604 31.2135 13.7147C31.1933 13.7691 31.1622 13.8186 31.122 13.8604C31.0818 13.9021 31.0334 13.935 30.9798 13.9571C30.8701 14.002 30.7474 14.0028 30.6371 13.9594C30.5268 13.9161 30.4375 13.8319 30.3877 13.7244Z" fill="#263238"/>
<path d="M34.0299 14.4851C34.0906 14.6538 33.9743 14.7078 33.8141 14.7651C33.6538 14.8224 33.5088 14.8579 33.4498 14.6909C33.4327 14.652 33.4237 14.6101 33.4236 14.5676C33.4234 14.5252 33.432 14.4831 33.4489 14.4441C33.4657 14.4052 33.4904 14.3701 33.5214 14.3411C33.5524 14.3121 33.589 14.2898 33.6291 14.2756C33.6691 14.2614 33.7116 14.2556 33.7539 14.2586C33.7963 14.2616 33.8376 14.2733 33.8752 14.2929C33.9128 14.3126 33.946 14.3398 33.9726 14.3729C33.9992 14.406 34.0187 14.4442 34.0299 14.4851Z" fill="#263238"/>
<path d="M33.4785 14.3486C33.5508 14.3083 33.6287 14.2793 33.7096 14.2626C33.7879 14.2432 33.8691 14.2381 33.9492 14.2474C34.034 14.2564 34.1168 14.2798 34.1938 14.3165C34.1938 14.3165 34.2056 14.3368 34.1938 14.3368C34.128 14.3368 34.0706 14.3199 33.9745 14.3165C33.7752 14.3218 33.5799 14.3738 33.4043 14.4683L33.3065 14.524C33.3065 14.524 33.2913 14.5071 33.2947 14.4987C33.3446 14.4361 33.4073 14.385 33.4785 14.3486Z" fill="#263238"/>
<path d="M30.9165 14.5965C30.8794 14.7651 31.0026 14.809 31.1695 14.8444C31.3365 14.8798 31.4832 14.8967 31.5203 14.723C31.5302 14.6827 31.532 14.6409 31.5254 14.6C31.5188 14.5591 31.504 14.5199 31.4819 14.4848C31.4599 14.4497 31.431 14.4194 31.397 14.3957C31.363 14.3721 31.3245 14.3555 31.2839 14.347C31.2434 14.3385 31.2015 14.3383 31.1609 14.3463C31.1202 14.3543 31.0816 14.3705 31.0473 14.3937C31.013 14.417 30.9837 14.447 30.9613 14.4818C30.9388 14.5166 30.9236 14.5556 30.9165 14.5965Z" fill="#263238"/>
<path d="M31.4457 14.3874C31.3684 14.3577 31.2871 14.3395 31.2045 14.3334C31.1248 14.3255 31.0444 14.3312 30.9667 14.3503C30.8839 14.3722 30.8049 14.4063 30.7322 14.4515C30.7322 14.4515 30.7322 14.4734 30.7322 14.4718C30.7963 14.4566 30.8519 14.438 30.9464 14.4228C31.036 14.4119 31.1267 14.4119 31.2163 14.4228C31.3246 14.4317 31.4309 14.4567 31.5317 14.4971L31.6363 14.5375C31.6465 14.5375 31.6498 14.519 31.6363 14.5122C31.5822 14.4578 31.5173 14.4153 31.4457 14.3874Z" fill="#263238"/>
<path d="M32.3118 16.9937C32.3506 16.9532 32.273 16.8487 32.2443 16.825C32.2091 16.7958 32.1712 16.7698 32.1313 16.7474C32.0558 16.7033 31.9747 16.6698 31.89 16.6479C31.716 16.5987 31.5306 16.6076 31.3621 16.6732C31.33 16.685 31.3384 16.7323 31.3621 16.7525C31.3715 16.7666 31.3842 16.7782 31.3992 16.7862C31.4156 16.7914 31.4333 16.7914 31.4498 16.7862C31.4751 16.7862 31.5004 16.7744 31.5257 16.7711C31.5656 16.7623 31.6063 16.7578 31.6471 16.7576C31.7235 16.7562 31.7996 16.7658 31.8732 16.7862C31.9435 16.8047 32.0106 16.8337 32.0722 16.8723C32.1245 16.9043 32.1751 16.9397 32.2257 16.9752C32.2493 16.992 32.2713 17.0123 32.3016 16.9971C32.3052 16.9966 32.3086 16.9954 32.3118 16.9937Z" fill="#B16668"/>
</svg>
