<svg width="73" height="73" viewBox="0 0 73 73" fill="none" xmlns="http://www.w3.org/2000/svg">
<path d="M38.9032 20.032C36.1848 20.5676 35.2299 21.1755 32.5978 23.9862C29.9657 26.7968 23.0945 33.975 23.0945 33.975C23.0945 33.975 23.6602 35.5257 27.161 35.2529C30.6618 34.9801 32.3149 33.1504 33.7313 31.9588C35.3162 30.6266 38.2833 27.83 38.2833 27.83L38.9032 20.032Z" fill="#F28F8F"/>
<path d="M55.9635 38.6332C55.1048 45.1975 53.4798 50.4015 49.5036 53.7538L34.2385 41.787L34.6658 33.9869L55.9635 38.6332Z" fill="#455A64"/>
<path d="M51.9013 20.7867C49.9938 20.3629 48.0592 20.0719 46.1114 19.916C44.4022 19.7856 42.8895 19.585 38.9032 20.0384C38.9032 20.0384 36.3774 23.1079 35.7796 27.2607C35.3081 30.5388 35.0554 35.7388 35.0554 35.7388C34.9069 37.8553 34.8989 39.4422 34.9189 40.5436C36.5239 41.958 40.2173 42.4956 44.3821 43.0614C47.7685 43.5228 51.9293 46.2713 53.2253 49.0598C55.2315 45.6353 55.9096 39.9417 56.1624 37.5885C56.4453 34.9363 56.5175 32.4587 55.9618 29.4775C54.7821 23.2242 53.6105 21.206 51.9013 20.7867Z" fill="#2196F3"/>
<path opacity="0.1" d="M51.1816 42.0138C50.064 40.2881 48.5606 38.8458 46.79 37.8008C44.993 36.7834 42.9857 36.1937 40.924 36.0775C39.7465 35.9753 38.5603 36.0765 37.4171 36.3764C37.1543 36.4526 37.3168 36.89 37.5576 36.8579C39.5898 36.5951 41.596 36.5569 43.5922 37.0826C45.5339 37.6196 47.3392 38.5633 48.8885 39.8511C49.7171 40.5141 50.4586 41.2792 51.0953 42.1281C51.1434 42.1963 51.2157 42.0659 51.1816 42.0138Z" fill="black"/>
<path d="M39.1382 20.8809C39.7581 19.936 39.4512 19.0151 38.4581 18.2729C36.803 17.017 36.4519 14.1642 36.4238 12.1981C36.3657 11.494 36.2393 9.70044 35.2061 10.192C35.0857 10.2501 35.168 10.6935 35.184 11.4699C34.9473 11.2512 34.5481 11.2693 34.4799 11.4699C34.4143 11.7671 34.38 12.0703 34.3775 12.3747C34.3595 13.1651 34.0244 14.8383 34.0666 15.7852C34.2331 16.6178 34.536 18.0462 34.6444 19.0733C34.6806 19.3959 34.6385 19.7225 34.5215 20.0254C34.4045 20.3282 34.2161 20.5983 33.9723 20.8127C33.0575 21.6152 32.0724 22.2852 30.5016 23.4207C28.5496 24.825 27.1272 25.6275 25.109 27.2726C23.4599 28.6167 23.0225 29.9167 22.836 32.26C22.6574 34.4668 23.8651 34.8881 25.1631 34.9462C27.9878 35.0786 29.1916 34.2621 30.7965 32.0192C33.4386 28.3138 35.3365 25.8943 36.3837 24.6766C37.6476 23.2061 38.8573 21.246 39.1382 20.8809Z" fill="#FFB573"/>
<path d="M39.4068 19.5269C39.2411 19.0154 38.9065 18.5754 38.4579 18.2791C36.8028 17.0232 36.4517 14.1704 36.4236 12.2043C36.3754 11.6346 36.2852 10.3446 35.6994 10.146C35.4787 11.4861 35.581 14.3329 35.9241 16.0562C36.2872 17.8618 37.2662 19.0254 38.0025 19.3363C38.4563 19.4793 38.9312 19.5438 39.4068 19.5269Z" fill="#F28F8F"/>
<path d="M35.1838 11.4842C35.585 11.6848 35.6312 13.5987 35.6312 13.5987C35.6312 13.5987 35.7114 12.2466 35.6532 11.9336C35.5088 11.1612 35.1677 11.0509 35.1677 11.0509L35.1838 11.4842Z" fill="#F28F8F"/>
<path d="M47.4898 16.9646C47.6282 15.3837 49.0466 13.6303 49.6344 12.2159C50.2021 10.8497 50.5211 9.80853 50.3446 8.57473C50.2403 7.84849 49.7006 6.89756 49.1409 6.73305C49.5421 3.97054 47.4095 2.87717 46.3081 2.70664C45.7925 2.64264 45.2818 2.54411 44.7794 2.41173C44.1776 2.21112 43.999 1.7517 43.4935 1.38858C42.6208 0.760647 41.2465 0.856943 40.8072 1.94831C40.2053 1.29028 39.4731 1.36852 38.6405 1.6534C38.2882 1.76414 37.9909 2.00443 37.8089 2.32577C37.6268 2.64711 37.5734 3.02557 37.6595 3.38473C36.4718 2.84106 35.4928 3.7298 35.4527 4.40588C35.4146 4.90542 35.555 5.31468 35.2681 5.78212C34.9431 6.30975 34.255 6.3579 34.0143 5.97271C33.9541 6.6829 34.271 7.19447 35.0274 7.09416C34.9146 7.29973 34.8483 7.52751 34.8331 7.76146C34.8178 7.99542 34.854 8.22987 34.9391 8.44834C35.0531 8.72148 35.2476 8.95342 35.4966 9.11327C35.7457 9.27312 36.0376 9.35328 36.3334 9.3431C36.4457 9.72026 36.4899 10.0713 36.7587 10.3843C37.0148 10.7024 37.3437 10.9543 37.7177 11.1186C38.9214 11.574 40.2013 11.6482 41.4612 11.8047L42.9578 11.9893C43.0441 11.9993 43.4915 11.9893 43.5496 12.0635L47.4898 16.9646Z" fill="#263238"/>
<path d="M49.2152 14.794C48.9545 14.9276 48.6629 14.9892 48.3705 14.9722C48.0781 14.9553 47.7955 14.8605 47.552 14.6977L47.9854 20.7162C47.0645 23.0615 43.7202 23.7255 42.1996 23.4727C40.2335 23.1417 40.7952 21.7895 41.5154 20.7664L41.359 18.9909C41.359 18.9909 40.4582 19.0571 39.7179 19.0411C37.7498 18.9949 36.9955 17.7852 36.6103 16.7841C36.0967 15.446 35.8901 13.2673 36.0546 11.5861C36.1032 11.1565 36.0904 10.7221 36.0165 10.2961C35.8159 9.16865 36.1309 8.45044 36.3475 7.47142C37.6054 6.27975 41.1102 5.73808 44.1536 7.2708C43.953 9.02421 44.3161 10.258 45.6261 10.8137C45.6061 11.2852 45.6422 12.4668 46.4065 12.3826C46.9582 12.3224 46.9382 11.6262 47.4558 10.9782C47.9733 10.3302 49.2814 10.0514 49.8632 10.91C50.6857 12.0897 50.457 14.156 49.2152 14.794Z" fill="#FFB573"/>
<path d="M40.3773 15.819C40.4176 15.6952 40.4863 15.5825 40.578 15.49C40.6893 15.3774 40.8188 15.2845 40.9611 15.2151C41.0942 15.1397 41.2445 15.1 41.3975 15.1C41.5504 15.1 41.7008 15.1397 41.8338 15.2151C41.8455 15.2209 41.8558 15.229 41.8641 15.2391C41.8724 15.2491 41.8785 15.2608 41.882 15.2733C41.8833 15.2888 41.8795 15.3042 41.8712 15.3173C41.8629 15.3303 41.8504 15.3403 41.8358 15.3455C41.6886 15.3728 41.5399 15.3915 41.3905 15.4017C41.2568 15.4324 41.1279 15.481 41.0073 15.5462C40.8916 15.606 40.7887 15.6877 40.7043 15.7869C40.6381 15.8712 40.586 15.9654 40.5218 16.0497C40.4977 16.0798 40.4636 16.132 40.4175 16.1279C40.3983 16.1259 40.3804 16.1174 40.3665 16.104C40.3527 16.0905 40.3438 16.0728 40.3412 16.0537C40.3368 15.9738 40.3491 15.8939 40.3773 15.819Z" fill="#B16668"/>
<path d="M41.3589 18.9847C43.2788 18.5975 44.7353 18.2685 45.6301 16.7779C46.1918 15.8471 46.4626 14.4748 46.4626 14.4748C46.4626 14.4748 46.5529 16.1179 46.0152 17.3336C45.6 18.2725 44.4384 19.1192 41.4291 19.6307L41.3589 18.9847Z" fill="#F28F8F"/>
<path d="M41.2565 11.255C41.2621 11.3316 41.2828 11.4064 41.3175 11.4751C41.3521 11.5437 41.4 11.6047 41.4584 11.6547C41.5168 11.7047 41.5845 11.7427 41.6576 11.7663C41.7308 11.79 41.8079 11.7989 41.8845 11.7926C42.0048 11.7867 42.1206 11.7449 42.2169 11.6724C42.3132 11.6 42.3855 11.5003 42.4245 11.3863C42.4635 11.2723 42.4674 11.1492 42.4356 11.033C42.4039 10.9167 42.338 10.8127 42.2465 10.7343C42.1549 10.656 42.042 10.6069 41.9223 10.5934C41.8025 10.58 41.6815 10.6027 41.5749 10.6588C41.4682 10.7149 41.3809 10.8017 41.3241 10.908C41.2674 11.0143 41.2438 11.1352 41.2565 11.255Z" fill="#263238"/>
<path d="M43.2548 9.98115L42.2758 9.07034C42.1558 9.20555 42.0928 9.3819 42.0999 9.5625C42.107 9.7431 42.1837 9.91396 42.3139 10.0393C42.3787 10.0989 42.4549 10.1447 42.5378 10.1741C42.6208 10.2036 42.7089 10.2159 42.7967 10.2105C42.8846 10.205 42.9704 10.1819 43.0491 10.1425C43.1278 10.1031 43.1978 10.0482 43.2548 9.98115Z" fill="#263238"/>
<path d="M37.3043 9.03404L36.2671 9.89269C36.3195 9.96299 36.3858 10.0219 36.4617 10.0657C36.5376 10.1096 36.6217 10.1376 36.7088 10.1479C36.7959 10.1582 36.8842 10.1507 36.9683 10.1258C37.0524 10.1009 37.1305 10.0591 37.198 10.003C37.3364 9.88585 37.4246 9.72003 37.4444 9.53974C37.4642 9.35946 37.414 9.17845 37.3043 9.03404Z" fill="#263238"/>
<path d="M36.8145 11.4055C36.8299 11.5173 36.8779 11.6221 36.9524 11.7068C37.0269 11.7916 37.1247 11.8525 37.2335 11.8822C37.3424 11.9118 37.4576 11.9088 37.5648 11.8736C37.672 11.8383 37.7665 11.7723 37.8365 11.6838C37.9065 11.5953 37.9489 11.4881 37.9585 11.3757C37.9681 11.2633 37.9445 11.1505 37.8905 11.0514C37.8366 10.9523 37.7547 10.8712 37.6551 10.8182C37.5554 10.7653 37.4424 10.7428 37.3301 10.7535C37.2532 10.7619 37.1788 10.7856 37.1111 10.823C37.0434 10.8605 36.9839 10.911 36.9359 10.9717C36.888 11.0323 36.8525 11.1019 36.8317 11.1764C36.8108 11.2509 36.805 11.3287 36.8145 11.4055Z" fill="#263238"/>
<path d="M37.8176 13.3734L39.7014 14.2842L40.0746 10.673C39.4426 10.6369 38.5639 11.8788 37.8176 13.3734Z" fill="#F28F8F"/>
<path d="M21.6357 51.5291C21.8865 50.7848 22.5385 48.9672 22.9879 47.6451C21.8183 47.4445 17.828 46.1505 17.0155 45.7312C16.7567 47.4966 16.6142 48.7525 16.4497 49.6272C15.9321 52.4158 15.7195 54.5544 13.8216 56.4101C12.81 57.3612 11.7164 58.2212 10.5536 58.98C9.3358 59.8026 8.38286 60.3643 8.09798 60.8999C7.59242 61.8489 8.96666 64.0918 14.0162 62.9061C15.9341 62.4587 16.6423 61.4617 17.2161 60.6712C17.9102 59.7103 18.1369 59.1265 19.3346 58.7272C21.7099 57.9368 21.728 56.9217 21.6457 55.8143C21.5374 54.3819 20.8372 53.9184 21.6357 51.5291Z" fill="#FFB573"/>
<path d="M42.322 51.2604C39.6698 55.7643 33.8057 56.1435 30.2548 54.2938C23.9694 51.0337 19.0202 36.192 19.606 32.5648C20.2078 28.8975 24.1239 26.8291 30.2568 32.4665C33.5489 35.4918 35.3585 38.6215 37.7599 42.7382C38.8272 43.1876 42.4363 45.4585 43.3391 48.0345C43.1977 49.1624 42.8531 50.2554 42.322 51.2604Z" fill="#37474F"/>
<path d="M25.3797 33.6158C26.5373 34.9018 29.5285 41.1892 29.9618 45.0791C30.0842 46.1725 31.8035 50.1909 33.3523 51.834C36.0787 54.7309 39.9847 53.81 41.359 52.5682C38.4901 55.8523 33.3924 55.9246 30.2507 54.2935C26.1822 52.183 22.6272 44.8645 20.7795 38.9643L25.3797 33.6158Z" fill="#263238"/>
<path d="M22.4484 29.1481C20.4563 29.5975 18.412 31.8444 17.4189 38.8981C16.5161 45.3059 16.1089 48.929 16.1089 48.929C17.9484 50.2085 20.1812 50.7962 22.4123 50.5881C22.4123 50.5881 23.3432 48.265 24.4807 44.8545C25.6182 41.444 26.535 37.9492 25.7105 34.5768C25.1662 32.4918 24.0339 30.6074 22.4484 29.1481Z" fill="#37474F"/>
<path d="M49.9229 53.5532C45.3087 57.5656 40.6584 57.9668 37.1115 56.1352C30.8281 52.8751 27.883 31.5735 30.2644 31.1502C32.9105 30.6787 35.1113 32.1994 37.3442 34.5707C40.4076 37.8268 42.7147 40.7437 45.6839 45.029C46.7512 45.4783 51.1006 48.4395 51.9973 51.0074C51.3012 52.1108 50.93 52.4578 49.9229 53.5532Z" fill="#455A64"/>
<path d="M32.2432 35.4592C33.4008 36.7431 34.4701 43.9373 34.4902 47.8513C34.5062 51.1656 35.8945 54.0444 39.9069 55.3143C43.7006 56.518 47.1632 55.4086 48.4773 54.6984C44.6394 57.6455 40.2559 57.7659 37.1123 56.1429C33.0457 54.0324 29.4888 46.7138 27.6431 40.8137L32.2432 35.4592Z" fill="#37474F"/>
<path d="M29.5287 54.8292C29.7594 54.0608 30.3733 52.189 30.7926 50.8268C29.5889 50.6523 25.6447 48.1766 24.8041 47.7734C24.5694 49.9481 24.3247 52.1449 24.1842 53.0396C23.7369 55.8984 23.5824 58.0852 21.7046 60.0332C20.7009 61.0325 19.6106 61.9408 18.4466 62.7476C17.2308 63.6223 16.2759 64.2221 16.001 64.7778C15.5135 65.7588 16.98 68.0058 22.0938 66.6556C24.0358 66.142 24.7279 65.1048 25.2896 64.2823C25.9697 63.2792 26.1824 62.6773 27.3921 62.24C29.7995 61.3653 29.7795 60.3341 29.6631 59.2006C29.5107 57.7481 28.7904 57.2887 29.5287 54.8292Z" fill="#FFB573"/>
<path d="M30.2649 31.1499C28.2587 31.5773 26.082 33.8121 25.3718 40.1477C24.6516 46.5795 24.0618 52.2349 24.0618 52.2349C25.8738 53.4229 28.0388 53.9527 30.1947 53.7355C30.1947 53.7355 31.3282 50.632 32.5038 47.2315C33.6794 43.831 34.6323 40.3503 33.8459 36.9679C33.0595 33.5855 30.2649 31.1499 30.2649 31.1499Z" fill="#455A64"/>
<path d="M64.6705 38.4266C64.2693 37.1146 63.4969 35.3572 61.5589 31.4933C59.3903 27.1639 58.3631 25.3423 56.4311 23.0071C55.0047 21.2838 51.9012 20.7863 51.9012 20.7863C51.9012 20.7863 51.0766 22.6039 51.3455 25.6011C51.6063 28.5001 53.5523 31.8724 53.5523 31.8724L57.679 38.5631C56.5375 39.3655 54.1441 40.9605 53.0387 40.9263C52.575 40.9329 52.1229 40.7815 51.7567 40.497C50.9081 39.8952 50.6594 39.4538 49.582 39.1047C49.1919 38.9804 48.7873 38.9076 48.3783 38.8881C49.1427 39.6584 50.0655 40.7578 49.1928 41.8171C48.6652 42.4611 47.6862 42.7881 46.8998 42.8884C46.3526 42.9444 45.8003 42.9241 45.2587 42.8282C44.7607 42.7493 44.299 42.5188 43.9366 42.1682C43.8042 42.5273 43.7501 42.8603 43.9366 43.1913C44.161 43.5309 44.4585 43.8161 44.8073 44.0259C44.7838 44.2737 44.8555 44.5212 45.0079 44.718C45.2668 45.039 45.603 45.289 45.9849 45.4443C46.0192 45.6566 46.1307 45.8487 46.2979 45.9839C46.6169 46.2162 47.0049 46.3343 47.3993 46.319C47.6782 46.339 48.1476 46.333 48.1476 46.333C48.6431 46.7924 49.7144 46.8526 50.3103 46.8065C50.9061 46.7603 51.6083 46.6741 52.2202 46.5657C52.832 46.4574 53.4078 46.1946 53.9976 46.008C55.6026 45.4984 57.673 44.7943 57.673 44.7943C59.5982 44.1363 61.4867 43.3755 63.3304 42.5152C65.6897 41.3597 65.3025 40.483 64.6705 38.4266Z" fill="#FFB573"/>
<path d="M57.6794 38.5633C58.7708 37.8371 61.3106 37.0928 62.9176 38.2082C61.3648 36.6735 58.9594 37.1349 57.3564 38.0417L57.6794 38.5633Z" fill="#F28F8F"/>
<path d="M42.8694 62.1646L42.911 62.237L42.916 62.2404C43.6358 63.5323 43.8483 65.0472 43.5103 66.4887L43.3054 67.1598C42.8014 68.5674 41.7862 69.734 40.4616 70.4278C39.1345 71.1228 37.5942 71.2922 36.1479 70.9021C34.7015 70.5121 33.4552 69.5914 32.6574 68.3234C31.8614 67.0581 31.5703 65.5398 31.8418 64.07L32.0076 63.3874C32.3471 62.2796 33.0022 61.2947 33.893 60.5535C34.7863 59.8101 35.8776 59.3442 37.0323 59.2132C38.1871 59.0822 39.3549 59.2919 40.3921 59.8163C41.4292 60.3407 42.2903 61.1569 42.8694 62.1646Z" fill="white" stroke="black" stroke-width="0.711467"/>
<path d="M36.7626 65.1571L34.7203 67.1733C34.5979 67.3021 34.5303 67.4735 34.532 67.6512C34.5337 67.8289 34.6045 67.999 34.7293 68.1255C34.8542 68.2519 35.0234 68.3248 35.2011 68.3287C35.3788 68.3326 35.551 68.2672 35.6813 68.1463L37.7236 66.1401L39.7298 68.1804C39.8572 68.3097 40.0308 68.3831 40.2123 68.3844C40.3938 68.3857 40.5685 68.3149 40.6978 68.1875C40.827 68.06 40.9004 67.8864 40.9017 67.7049C40.9031 67.5234 40.8322 67.3488 40.7048 67.2195L38.6966 65.1712L40.7389 63.165C40.8026 63.1016 40.8531 63.0262 40.8876 62.9433C40.9221 62.8603 40.9398 62.7713 40.9398 62.6815C40.9398 62.5916 40.9221 62.5027 40.8876 62.4197C40.8531 62.3367 40.8026 62.2614 40.7389 62.198C40.6103 62.0703 40.4365 61.9987 40.2554 61.9987C40.0742 61.9987 39.9004 62.0703 39.7719 62.198L37.7296 64.2042L35.7234 62.1639C35.5956 62.0362 35.4226 61.9641 35.2419 61.9633C35.1517 61.9627 35.0623 61.9802 34.979 62.0147C34.8956 62.0491 34.82 62.0998 34.7564 62.1639C34.6927 62.2274 34.6421 62.303 34.6076 62.3861C34.5731 62.4692 34.5553 62.5584 34.5553 62.6484C34.5553 62.7384 34.5731 62.8275 34.6076 62.9107C34.6421 62.9938 34.6927 63.0693 34.7564 63.1329L36.7626 65.1571Z" fill="#2196F3"/>
</svg>
