<svg width="73" height="73" viewBox="0 0 73 73" fill="none" xmlns="http://www.w3.org/2000/svg">
<path d="M5.63859 48.4398L2.55937 46.6628C2.39631 46.5567 2.26065 46.4136 2.16344 46.2451C2.06622 46.0767 2.01022 45.8876 2 45.6933V27.6011C2.0105 27.4072 2.06663 27.2185 2.16383 27.0503C2.26103 26.8822 2.39655 26.7394 2.55937 26.6335L27.6751 12.1313C27.8485 12.0434 28.0401 11.9977 28.2345 11.9977C28.4289 11.9977 28.6205 12.0434 28.7939 12.1313L31.8731 13.9065C32.0359 14.0124 32.1714 14.1552 32.2686 14.3234C32.3658 14.4915 32.422 14.6802 32.4325 14.8742V32.9718C32.422 33.1657 32.3658 33.3544 32.2686 33.5226C32.1714 33.6907 32.0359 33.8335 31.8731 33.9394L6.75732 48.4398C6.58395 48.5277 6.39232 48.5735 6.19795 48.5735C6.00359 48.5735 5.81196 48.5277 5.63859 48.4398Z" fill="#455A64"/>
<path d="M32.4327 14.8778V32.9718C32.4222 33.1657 32.3661 33.3544 32.2689 33.5226C32.1717 33.6907 32.0362 33.8335 31.8734 33.9394L6.75761 48.4398C6.44825 48.6197 6.19824 48.474 6.19824 48.1179V30.0256C6.20846 29.8314 6.26446 29.6423 6.36168 29.4738C6.45889 29.3054 6.59456 29.1623 6.75761 29.0562L31.8734 14.5558C32.1827 14.3777 32.4327 14.5216 32.4327 14.8778Z" fill="#263238"/>
<path d="M6.62782 48.5027C6.46762 48.5609 6.29719 48.5856 6.12706 48.5754C5.95693 48.5652 5.79069 48.5203 5.63859 48.4434L2.55937 46.6663C2.39661 46.56 2.26118 46.4168 2.164 46.2484C2.06683 46.0799 2.01065 45.891 2 45.6969V27.6011C2.00711 27.4067 2.06343 27.2174 2.16367 27.0507L6.36163 29.4734C6.26138 29.6401 6.20507 29.8295 6.19795 30.0238V48.1214C6.19616 48.4254 6.37602 48.5747 6.62782 48.5027Z" fill="#37474F"/>
<path d="M49.5006 65.2695L46.9124 63.7748C46.8258 63.7305 46.7299 63.7074 46.6327 63.7074C46.5354 63.7074 46.4396 63.7305 46.353 63.7748L43.763 65.2695C43.6803 65.3209 43.6121 65.3928 43.5652 65.4781C43.5562 65.4943 43.5508 65.5141 43.5418 65.5303C43.5065 65.5996 43.4862 65.6756 43.4824 65.7533V69.9549C43.4878 70.0472 43.5138 70.1372 43.5586 70.2182C43.6035 70.2991 43.6659 70.369 43.7414 70.4225C43.7414 70.4225 43.754 70.4351 43.7612 70.4387L46.3494 71.9333L46.3836 71.9459C46.4146 71.9617 46.4471 71.9744 46.4807 71.9837C46.5297 71.9945 46.5798 71.9999 46.63 71.9999C46.7271 72.002 46.8231 71.9791 46.9088 71.9333L49.4988 70.4387C49.5801 70.3857 49.6478 70.3143 49.6962 70.2302C49.7447 70.1461 49.7725 70.0518 49.7776 69.9549V65.7533C49.7727 65.6565 49.7452 65.5623 49.697 65.4782C49.6489 65.3941 49.5816 65.3226 49.5006 65.2695Z" fill="#455A64"/>
<path d="M46.9101 71.9332L49.5001 70.4386C49.5815 70.3857 49.6491 70.3142 49.6976 70.2301C49.746 70.1461 49.7739 70.0517 49.7789 69.9548V65.7532C49.7789 65.5734 49.6548 65.5032 49.5001 65.5913L46.9119 67.086C46.8305 67.1389 46.7626 67.2103 46.7139 67.2944C46.6651 67.3784 46.6368 67.4728 46.6313 67.5698V71.7714C46.6313 71.9512 46.7572 72.0232 46.9101 71.9332Z" fill="#37474F"/>
<path d="M71.5351 52.5462L68.947 51.0516C68.8604 51.0072 68.7645 50.9841 68.6673 50.9841C68.57 50.9841 68.4741 51.0072 68.3876 51.0516L65.7976 52.5462C65.7148 52.5977 65.6467 52.6695 65.5997 52.7549C65.5997 52.771 65.5853 52.7908 65.5764 52.807C65.5413 52.8764 65.5217 52.9524 65.5188 53.03V57.2316C65.5245 57.3239 65.5507 57.4137 65.5955 57.4946C65.6403 57.5755 65.7026 57.6454 65.7778 57.6992C65.7839 57.7052 65.7906 57.7106 65.7976 57.7154L68.3876 59.2101C68.3979 59.2153 68.4088 59.2195 68.42 59.2227C68.4512 59.2379 68.4837 59.2505 68.5171 59.2604C68.5661 59.2712 68.6162 59.2767 68.6664 59.2766C68.764 59.2788 68.8606 59.2558 68.947 59.2101L71.5351 57.7154C71.6165 57.6625 71.6842 57.5911 71.7326 57.507C71.7811 57.4229 71.8089 57.3285 71.8139 57.2316V53.03C71.8088 52.9332 71.7809 52.8389 71.7324 52.7548C71.684 52.6707 71.6164 52.5993 71.5351 52.5462Z" fill="#455A64"/>
<path d="M68.9474 59.2099L71.5356 57.7152C71.617 57.6623 71.6846 57.5909 71.7331 57.5068C71.7815 57.4227 71.8094 57.3283 71.8144 57.2314V53.0298C71.8144 52.85 71.6885 52.7798 71.5338 52.868L68.9456 54.3626C68.8639 54.4157 68.7959 54.4874 68.7471 54.5718C68.6984 54.6562 68.6703 54.7509 68.665 54.8482V59.0516C68.6668 59.2314 68.7873 59.2998 68.9474 59.2099Z" fill="#37474F"/>
<path d="M31.3139 28.1984L7.31682 42.0477C6.98991 42.2599 6.71793 42.5466 6.52316 42.8843C6.32839 43.2219 6.21638 43.6009 6.19629 43.9902V45.0513C6.21716 45.4397 6.32934 45.8177 6.52373 46.1546C6.71811 46.4915 6.98922 46.7778 7.31502 46.9902L45.5121 69.025C45.8586 69.2014 46.242 69.2934 46.6308 69.2934C47.0197 69.2934 47.403 69.2014 47.7496 69.025L71.7466 55.1757C72.0725 54.9638 72.3437 54.6778 72.5381 54.3412C72.7325 54.0046 72.8446 53.6268 72.8654 53.2386V52.1774C72.8445 51.789 72.7323 51.411 72.5379 51.0742C72.3435 50.7373 72.0724 50.451 71.7466 50.2385L33.5513 28.1984C33.2048 28.022 32.8215 27.93 32.4326 27.93C32.0438 27.93 31.6604 28.022 31.3139 28.1984Z" fill="#455A64"/>
<path d="M72.8652 52.1718V53.233C72.8439 53.6213 72.7315 53.9991 72.5371 54.336C72.3428 54.6728 72.0719 54.9591 71.7464 55.1719L47.744 69.0266C47.3998 69.2092 47.0147 69.3008 46.6252 69.2928V65.647C47.0147 65.6551 47.3998 65.5634 47.744 65.3808L71.741 51.5315C72.3166 51.197 72.3561 50.6718 71.8543 50.3121C72.1484 50.5294 72.3913 50.8086 72.5659 51.1299C72.7406 51.4512 72.8427 51.8068 72.8652 52.1718Z" fill="#263238"/>
<path d="M7.31682 43.3445C6.72868 43.0064 6.7017 42.4686 7.23229 42.1107C6.93034 42.3268 6.68059 42.6078 6.50133 42.933C6.32207 43.2583 6.21784 43.6195 6.19629 43.9902V45.0514C6.21716 45.4398 6.32934 45.8178 6.52373 46.1547C6.71811 46.4915 6.98922 46.7778 7.31502 46.9903L45.5121 69.025C45.8558 69.2089 46.2411 69.3012 46.6308 69.293V65.6473C46.2414 65.6548 45.8564 65.5632 45.5121 65.3811L7.31682 43.3445Z" fill="#37474F"/>
<path d="M31.3139 22.1499L7.31682 35.9992C6.98991 36.2114 6.71793 36.4981 6.52316 36.8358C6.32839 37.1734 6.21638 37.5524 6.19629 37.9417V40.2043C6.21708 40.5932 6.32941 40.9716 6.52413 41.3089C6.71884 41.6461 6.99045 41.9326 7.31682 42.145L45.5121 64.1798C45.8589 64.3554 46.2421 64.4468 46.6308 64.4468C47.0195 64.4468 47.4028 64.3554 47.7496 64.1798L71.7466 50.3305C72.0725 50.1185 72.3437 49.8326 72.5381 49.496C72.7325 49.1593 72.8446 48.7816 72.8654 48.3934V46.1235C72.8445 45.7351 72.7323 45.3571 72.5379 45.0203C72.3435 44.6834 72.0724 44.3971 71.7466 44.1846L33.5513 22.1499C33.2048 21.9735 32.8215 21.8815 32.4326 21.8815C32.0438 21.8815 31.6604 21.9735 31.3139 22.1499Z" fill="#2196F3"/>
<path opacity="0.8" d="M7.31682 37.2888L45.5121 59.3325C45.8589 59.5081 46.2421 59.5996 46.6308 59.5996C47.0195 59.5996 47.4028 59.5081 47.7496 59.3325L71.7466 45.4832C72.3653 45.1235 72.3653 44.5479 71.7466 44.19L33.5513 22.1499C33.2048 21.9735 32.8215 21.8815 32.4326 21.8815C32.0437 21.8815 31.6604 21.9735 31.3139 22.1499L7.31682 35.9992C6.6981 36.3607 6.6981 36.9398 7.31682 37.2888Z" fill="white"/>
<path opacity="0.05" d="M11.4449 34.8316L16.6609 37.8622C17.2796 38.2219 17.9019 38.132 18.7868 37.8622C19.6717 37.5924 22.6017 36.4233 22.6017 36.4233C22.6017 36.4233 23.0801 38.3155 25.082 40.8857C25.8446 41.8641 27.2906 43.7023 29.7188 45.0225L43.9709 36.6535L32.4275 29.9879L33.4761 29.3944C34.2567 28.9213 34.0948 28.5166 33.4761 28.1587L27.1216 24.5021L11.4413 33.6193C10.8244 33.9772 10.8262 34.4754 11.4449 34.8316Z" fill="black"/>
<path opacity="0.5" d="M72.8652 46.1232V48.3876C72.8439 48.7757 72.7315 49.1532 72.5371 49.4898C72.3428 49.8263 72.0719 50.1124 71.7464 50.3247L47.744 64.1794C47.3998 64.362 47.0147 64.4536 46.6252 64.4456V59.5912C47.0147 59.5992 47.3998 59.5076 47.744 59.325L71.741 45.4757C72.3166 45.1411 72.3561 44.6159 71.8543 44.2562C72.1493 44.4743 72.3928 44.7546 72.5674 45.0772C72.7421 45.3999 72.8437 45.7569 72.8652 46.1232Z" fill="white"/>
<path opacity="0.6" d="M7.31682 37.2886C6.72868 36.9505 6.7017 36.4127 7.23229 36.0548C6.92943 36.2717 6.67912 36.5539 6.49982 36.8804C6.32051 37.207 6.21679 37.5696 6.19629 37.9415V40.2042C6.21708 40.5931 6.32941 40.9715 6.52413 41.3087C6.71884 41.646 6.99045 41.9325 7.31682 42.1449L45.5121 64.1797C45.8563 64.362 46.2413 64.4537 46.6308 64.4458V59.5914C46.2414 59.599 45.8564 59.5074 45.5121 59.3252L7.31682 37.2886Z" fill="white"/>
<path d="M33.6016 27.4321C33.6898 26.7126 32.911 25.4536 31.8624 24.6317L27.6411 21.3168C27.0547 20.8564 26.5079 20.628 26.1248 20.6405C25.1356 20.5938 20.9089 22.6298 18.8009 23.8439C16.6929 25.0579 12.0705 28.0058 11.2467 29.308C10.9733 29.7343 17.8224 36.569 18.7865 36.3892C20.9322 35.9809 24.9503 34.0744 27.0475 32.7919C30.4757 30.7002 32.4901 28.9213 33.2167 28.1551C33.5621 27.7864 33.5837 27.585 33.6016 27.4321Z" fill="#FAFAFA"/>
<path d="M22.2961 25.8349C20.7781 26.7055 20.6774 27.79 21.422 29.0724C21.9184 29.9268 22.681 31.1085 23.9616 31.6678C24.7297 32.0042 25.0858 32.3369 25.6415 33.0186C25.6523 33.0312 25.6595 33.0456 25.6685 33.0581C26.4203 32.6804 27.156 32.2829 27.8269 31.9052L22.2961 25.8349Z" fill="#E0E0E0"/>
<path d="M12.8508 32.4323L17.0721 35.7471C18.1225 36.5709 19.0506 36.6464 19.1334 35.927C19.2161 35.2075 18.4427 33.9485 17.3941 33.1265L13.1728 29.8117C12.1242 28.9879 11.1943 28.9124 11.1116 29.6318C11.0288 30.3513 11.7986 31.6031 12.8508 32.4323Z" fill="#E0E0E0"/>
<path d="M38.0933 32.7631C37.5969 32.4718 37.0231 32.2074 34.8558 31.1444C33.1417 30.3098 32.4817 29.9483 31.6957 29.7684C30.7442 29.549 29.7064 29.8836 28.5823 30.2019L35.1058 34.4754L38.0933 32.7631Z" fill="#FFB573"/>
<path d="M28.4646 30.238C30.3316 29.621 31.2399 29.3387 32.8352 30.0941C34.9108 31.0725 37.2094 32.2974 37.2094 32.2974C36.4037 32.3315 35.2184 33.7758 35.2975 34.9809L28.4646 30.238Z" fill="#37474F"/>
<path d="M25.1734 31.6139C24.4536 32.0981 23.763 32.6242 23.105 33.1895C22.5654 33.7057 23.1302 33.8694 23.2849 34.5906C24.1842 38.8731 31.697 42.6844 31.697 42.6844L39.1432 36.8407C36.9056 35.3826 34.765 33.7808 32.7348 32.0456C30.9362 30.524 30.1412 29.6499 27.8371 30.4179C25.9414 31.0456 25.1734 31.6139 25.1734 31.6139Z" fill="#455A64"/>
<path d="M27.0143 23.9123C26.8571 23.6127 26.6408 23.3481 26.3785 23.1343C26.1162 22.9205 25.8133 22.762 25.4882 22.6684C25.163 22.5748 24.8223 22.548 24.4865 22.5895C24.1507 22.6311 23.8268 22.7402 23.5342 22.9102C23.2417 23.0803 22.9866 23.3078 22.7844 23.5791C22.5821 23.8504 22.4369 24.1598 22.3574 24.4887C22.2779 24.8176 22.2657 25.1591 22.3218 25.4928C22.3778 25.8265 22.5008 26.1455 22.6833 26.4304C22.7049 26.4681 22.7319 26.5041 22.7552 26.5419L22.2894 27.9934L21.1473 26.3854C21.1312 26.2497 21.0653 26.1248 20.9622 26.035C20.8591 25.9453 20.7264 25.897 20.5897 25.8998C20.5207 25.9024 20.4529 25.9191 20.3905 25.9487C20.3281 25.9783 20.2723 26.0203 20.2266 26.0721C20.1808 26.1239 20.1461 26.1844 20.1244 26.25C20.1027 26.3156 20.0946 26.3849 20.1005 26.4537L20.8199 26.4286C20.6761 26.5515 20.5742 26.7162 20.5286 26.8998C20.4134 27.3638 21.1131 28.1948 22.0016 28.8909C22.0016 28.8909 23.3128 30.3298 23.6204 30.524C23.8118 30.6364 24.0393 30.6705 24.2553 30.6193L23.9441 27.5005C24.4288 27.6906 24.9606 27.7249 25.4657 27.5988C25.9708 27.4726 26.4241 27.1923 26.7625 26.7967C27.1009 26.4011 27.3077 25.9099 27.3541 25.3914C27.4006 24.8729 27.2843 24.3527 27.0215 23.9033L27.0143 23.9123Z" fill="#263238"/>
<path d="M22.9063 28.4753C22.82 28.6318 22.4819 28.4861 22.2193 28.4105C21.9567 28.335 21.2858 28.4105 21.3469 29.13C21.4081 29.8494 22.356 30.3207 22.8524 30.2091C23.7103 30.0149 23.5466 29.4897 23.5466 29.4897L25.1654 32.1516C26.7374 32.7811 29.3274 31.175 27.5845 30.5761L27.1187 29.7829C27.4208 29.6598 27.708 29.503 27.9748 29.3152C28.4604 28.9213 28.5504 28.3062 28.3759 27.6353C28.0953 26.5562 27.7572 25.754 26.4766 24.0615C25.0826 22.1963 22.7445 23.5291 21.9495 25.0579C21.1545 26.5867 22.9063 28.4753 22.9063 28.4753Z" fill="#FFB573"/>
<path d="M25.405 26.9412C25.4446 27.0689 25.3673 27.5238 25.0903 27.6425C25.1723 27.6443 25.2531 27.6219 25.3224 27.5781C25.3918 27.5343 25.4467 27.4711 25.4803 27.3962C25.5138 27.3214 25.5246 27.2383 25.5112 27.1574C25.4978 27.0764 25.4609 27.0013 25.405 26.9412Z" fill="#AF6152"/>
<path d="M26.3826 26.4106C26.4833 26.497 26.9329 26.6049 27.1506 26.3981C27.1198 26.4739 27.0674 26.5391 26.9998 26.5854C26.9323 26.6317 26.8526 26.6571 26.7707 26.6584C26.6889 26.6598 26.6084 26.637 26.5394 26.5929C26.4704 26.5489 26.4158 26.4855 26.3826 26.4106Z" fill="#AF6152"/>
<path d="M26.6602 28.3798C26.6091 28.3271 26.5446 28.2893 26.4737 28.2703C26.4028 28.2513 26.328 28.2519 26.2574 28.2719C26.1278 28.2943 26.0119 28.3658 25.9337 28.4715C25.9267 28.4789 25.9223 28.4884 25.9211 28.4985C25.9211 28.574 26.083 28.4769 26.101 28.4662C26.1628 28.4371 26.2281 28.416 26.2952 28.4032C26.3543 28.391 26.4148 28.3874 26.475 28.3924C26.5029 28.394 26.5306 28.3982 26.5577 28.405C26.5847 28.4155 26.6133 28.4215 26.6422 28.423C26.671 28.423 26.6656 28.3888 26.6602 28.3798Z" fill="#AF6152"/>
<path d="M25.2893 27.1424C25.2756 27.2125 25.2414 27.2769 25.191 27.3274C25.1407 27.378 25.0764 27.4124 25.0064 27.4263C24.9364 27.4402 24.8638 27.433 24.798 27.4055C24.7321 27.3781 24.6759 27.3317 24.6365 27.2722C24.5971 27.2127 24.5762 27.1428 24.5767 27.0714C24.5771 27.0001 24.5987 26.9304 24.6388 26.8714C24.679 26.8124 24.7357 26.7666 24.8019 26.74C24.8681 26.7133 24.9407 26.7069 25.0106 26.7217C25.103 26.7412 25.184 26.7962 25.2361 26.875C25.2883 26.9537 25.3074 27.0498 25.2893 27.1424Z" fill="#AF6152"/>
<path d="M26.9947 25.943C27.0182 26.0103 27.021 26.0832 27.003 26.1522C26.985 26.2212 26.9468 26.2833 26.8934 26.3306C26.8399 26.3779 26.7736 26.4082 26.7029 26.4177C26.6322 26.4272 26.5603 26.4154 26.4963 26.3839C26.4323 26.3524 26.3791 26.3026 26.3434 26.2408C26.3078 26.179 26.2914 26.108 26.2962 26.0368C26.3011 25.9656 26.327 25.8975 26.3707 25.8411C26.4144 25.7847 26.4738 25.7425 26.5415 25.72C26.6312 25.6902 26.729 25.6968 26.8138 25.7386C26.8986 25.7803 26.9636 25.8537 26.9947 25.943Z" fill="#AF6152"/>
<path d="M26.9947 25.943C27.0182 26.0103 27.021 26.0832 27.003 26.1522C26.985 26.2212 26.9468 26.2833 26.8934 26.3306C26.8399 26.3779 26.7736 26.4082 26.7029 26.4177C26.6322 26.4272 26.5603 26.4154 26.4963 26.3839C26.4323 26.3524 26.3791 26.3026 26.3434 26.2408C26.3078 26.179 26.2914 26.108 26.2962 26.0368C26.3011 25.9656 26.327 25.8975 26.3707 25.8411C26.4144 25.7847 26.4738 25.7425 26.5415 25.72C26.6312 25.6902 26.729 25.6968 26.8138 25.7386C26.8986 25.7803 26.9636 25.8537 26.9947 25.943Z" fill="#AF6152"/>
<path d="M26.6742 26.1497C26.6053 26.1731 26.5299 26.1683 26.4645 26.1363C26.3991 26.1043 26.3491 26.0477 26.3254 25.9788C26.275 25.8368 26.3919 25.7756 26.5358 25.7253C26.6796 25.6749 26.7929 25.657 26.8433 25.8008C26.8663 25.8695 26.8616 25.9445 26.83 26.0097C26.7984 26.075 26.7425 26.1252 26.6742 26.1497Z" fill="#263238"/>
<path d="M24.9913 27.1442C24.9651 27.1689 24.9342 27.1881 24.9005 27.2008C24.8668 27.2135 24.831 27.2193 24.795 27.218C24.759 27.2166 24.7237 27.2081 24.691 27.193C24.6583 27.1779 24.629 27.1564 24.6047 27.1298C24.5022 27.0183 24.5831 26.9158 24.6946 26.8134C24.8061 26.7109 24.9032 26.6461 25.0075 26.7576C25.0318 26.784 25.0507 26.815 25.0631 26.8488C25.0755 26.8825 25.0811 26.9184 25.0796 26.9543C25.0781 26.9902 25.0695 27.0254 25.0544 27.058C25.0392 27.0906 25.0178 27.1199 24.9913 27.1442Z" fill="#263238"/>
<path d="M23.0364 28.6966C22.9717 28.7361 22.4734 28.4628 22.2198 28.4088C21.8709 28.3351 21.0669 26.2774 21.0669 26.2774C20.9121 26.1497 20.798 25.9795 20.7386 25.7878C20.6792 25.5961 20.677 25.3912 20.7324 25.1983C20.8619 24.5886 21.5544 24.1083 22.0364 23.7882C22.3799 23.558 22.7234 23.3259 23.0436 23.0687C23.3638 22.8115 23.6569 22.5166 23.9429 22.227C24.1212 22.0793 24.2561 21.886 24.3332 21.6676C24.336 21.6486 24.3448 21.6309 24.3584 21.6173C24.367 21.6115 24.3767 21.6075 24.3869 21.6057C24.3971 21.6038 24.4076 21.6041 24.4177 21.6065C24.5487 21.6325 24.6653 21.7062 24.7451 21.8133C24.8722 21.9914 24.9638 22.1923 25.0149 22.405C25.08 22.3196 25.1366 22.2281 25.1839 22.1317C25.2214 22.0246 25.2461 21.9135 25.2577 21.8007C25.2586 21.7864 25.2636 21.7727 25.2721 21.7611C25.2775 21.755 25.2841 21.75 25.2915 21.7466C25.299 21.7432 25.3071 21.7414 25.3152 21.7414C25.3402 21.7442 25.3643 21.7522 25.386 21.7649C25.4077 21.7776 25.4265 21.7947 25.4411 21.8151C25.6425 22.0339 25.7778 22.3051 25.8314 22.5975C25.8858 22.8896 25.8635 23.1907 25.7667 23.4716C25.612 23.8997 25.2271 24.2019 24.8674 24.4698C24.0796 25.0688 22.6857 25.7145 22.4914 25.7954C22.2252 25.9051 22.3116 26.1749 22.5598 26.9034C22.79 27.5347 23.2594 28.5617 23.0364 28.6966Z" fill="#263238"/>
<path d="M27.1248 29.774C27.1248 29.774 25.6481 30.2776 25.1032 30.2992C24.7867 30.3135 24.4733 30.232 24.2039 30.0653C24.4088 30.2723 24.6535 30.4357 24.9233 30.5456C25.4539 30.7578 27.3172 30.0905 27.3172 30.0905L27.1248 29.774Z" fill="#AF6152"/>
<path d="M23.9255 26.5885L24.2618 26.0058C24.3383 26.0545 24.3936 26.1303 24.4166 26.218C24.4396 26.3057 24.4286 26.3988 24.3859 26.4788C24.3636 26.517 24.3337 26.5502 24.2982 26.5766C24.2627 26.6029 24.2222 26.6218 24.1792 26.632C24.1361 26.6423 24.0915 26.6437 24.0479 26.6362C24.0043 26.6287 23.9627 26.6125 23.9255 26.5885Z" fill="#263238"/>
<path d="M25.8802 24.9195L26.5563 24.9825C26.5544 25.0269 26.5433 25.0704 26.5239 25.1104C26.5045 25.1504 26.4771 25.1859 26.4434 25.2149C26.4097 25.2439 26.3704 25.2657 26.328 25.2789C26.2856 25.2921 26.2409 25.2965 26.1967 25.2918C26.1068 25.281 26.0242 25.2367 25.9655 25.1677C25.9069 25.0987 25.8764 25.01 25.8802 24.9195Z" fill="#263238"/>
<path d="M25.4612 26.2272L26.3083 27.6913L26.9396 27.042L25.4612 26.2272Z" fill="#AF6152"/>
<path opacity="0.1" d="M34.0007 42.5982C33.3742 42.2324 32.7818 41.8111 32.2308 41.3392C31.7902 40.9399 31.3747 40.4039 31.5582 39.8373L29.0779 41.2762C29.5131 42.1953 30.5491 42.7421 31.4323 43.2547C31.9119 43.5257 32.3915 43.7895 32.8711 44.0461L33.4323 44.3375C36.1698 45.7368 39.0242 46.9077 41.8732 48.075C42.2185 48.217 42.5926 48.3627 42.9524 48.2764L34.0007 42.5982Z" fill="black"/>
<path d="M21.7256 45.616V54.0965L46.6309 68.4602V59.5912C46.2414 59.5994 45.8563 59.5078 45.5122 59.325L21.7256 45.616Z" fill="#2196F3"/>
<path opacity="0.3" d="M21.7256 45.616V54.0965L46.6309 68.4602V59.5912C46.2414 59.5994 45.8563 59.5078 45.5122 59.325L21.7256 45.616Z" fill="black"/>
<path d="M71.7471 45.4776C72.3227 45.143 72.3622 44.6178 71.8604 44.2581C72.1542 44.4766 72.3965 44.7568 72.5702 45.0791C72.7439 45.4013 72.8448 45.7578 72.8659 46.1233V53.3177L46.6313 68.4602V59.5913C47.0208 59.599 47.4058 59.5074 47.7501 59.3251L71.7471 45.4776Z" fill="#2196F3"/>
<path opacity="0.45" d="M71.7471 45.4776C72.3227 45.143 72.3622 44.6178 71.8604 44.2581C72.1542 44.4766 72.3965 44.7568 72.5702 45.0791C72.7439 45.4013 72.8448 45.7578 72.8659 46.1233V53.3177L46.6313 68.4602V59.5913C47.0208 59.599 47.4058 59.5074 47.7501 59.3251L71.7471 45.4776Z" fill="black"/>
<path d="M71.7465 44.1843L47.9599 30.4681L38.2475 36.0582C35.01 35.5852 30.7095 38.5601 29.3138 41.2328L21.7236 45.616L45.5102 59.3322C45.857 59.5078 46.2403 59.5993 46.629 59.5993C47.0177 59.5993 47.4009 59.5078 47.7477 59.3322L71.7447 45.4829C72.3653 45.1196 72.3653 44.5422 71.7465 44.1843Z" fill="#2196F3"/>
<path opacity="0.2" d="M71.7465 44.1843L47.9599 30.4681L38.2475 36.0582C35.01 35.5852 30.7095 38.5601 29.3138 41.2328L21.7236 45.616L45.5102 59.3322C45.857 59.5078 46.2403 59.5993 46.629 59.5993C47.0177 59.5993 47.4009 59.5078 47.7477 59.3322L71.7447 45.4829C72.3653 45.1196 72.3653 44.5422 71.7465 44.1843Z" fill="black"/>
<path opacity="0.1" d="M71.7464 44.1843L47.9598 30.4681L38.2473 36.0582C39.8173 37.0349 41.4384 37.9271 43.1036 38.7309C44.3014 39.4234 47.6271 41.1555 50.8789 42.999C51.9293 43.5944 54.8359 44.1465 56.0949 44.008C57.2026 43.8753 58.2936 43.6282 59.3504 43.2706C59.5481 43.2004 59.7579 43.1704 59.9673 43.1825C60.8774 43.276 60.7839 44.1843 60.6328 44.8282C60.4623 45.6829 60.1315 46.4977 59.658 47.2294C59.4631 47.5709 59.3063 47.9328 59.1903 48.3085C59.0752 48.9902 59.4115 49.51 60.0626 49.7978C60.7137 50.0855 63.275 50.3661 64.5178 49.6485L71.75 45.4739C72.3615 45.1214 72.3615 44.5404 71.7464 44.1843Z" fill="black"/>
<path opacity="0.1" d="M50.1894 52.3968C49.6762 52.0851 49.1702 51.7619 48.6714 51.4274C48.4753 51.2961 47.5922 50.7223 47.3728 50.5281C48.0221 50.814 48.6624 51.1108 49.3045 51.4148C50.006 51.7457 50.7146 52.0623 51.4377 52.3465C52.4089 52.7278 53.7759 53.4382 54.6068 52.4148C55.105 51.8069 55.2219 50.9256 55.3874 50.1558C55.4558 49.8374 55.8532 49.1773 56.1176 48.4363C56.5061 47.3481 56.6446 46.1862 55.3424 46.4992C55.141 46.5477 54.8029 46.706 54.596 46.7672C53.6787 47.0496 52.8442 47.6233 51.8891 47.7186C50.6301 47.8427 49.3549 47.1593 48.4394 46.3733C47.3872 45.474 44.8817 43.9434 43.6821 43.2527C43.5813 43.1951 43.5885 43.2365 43.5022 43.1556C44.0418 43.3588 45.8152 44.3355 46.308 44.625C46.6839 44.8463 47.0455 45.0891 47.4232 45.3085C48.1283 45.731 48.8567 46.1136 49.6049 46.4542C50.3445 46.8088 51.1619 46.9703 51.9808 46.9237C52.9395 46.8391 53.8154 46.3733 54.7093 46.0244C55.0511 45.8613 55.4284 45.7871 55.8065 45.8085C56.4036 45.8859 56.9036 46.6341 56.8713 47.2132C56.8713 47.2312 56.8713 47.2492 56.8713 47.2672C56.7579 48.2438 56.5925 49.2133 56.5007 50.1953C56.4471 50.4859 56.479 50.7858 56.5925 51.0587C56.6859 51.2002 56.8079 51.3205 56.9508 51.4119C57.0936 51.5033 57.254 51.5637 57.4216 51.5893C57.7526 51.6648 58.0961 51.6756 58.4181 51.7799C58.4612 51.79 58.5002 51.8133 58.5296 51.8465C58.5799 51.9184 58.5296 52.0155 58.4774 52.0839C58.1657 52.4613 57.7661 52.7565 57.3137 52.9436C56.8695 53.145 56.4018 53.2889 55.954 53.4832C55.609 53.6554 55.2474 53.7922 54.8748 53.8915C54.6371 53.931 54.3963 53.9484 54.1554 53.9436C53.7363 53.9436 52.9161 53.9436 51.6517 53.2548C51.1607 52.9706 50.6679 52.6846 50.1894 52.3968Z" fill="black"/>
<path opacity="0.2" d="M25.9246 48.0388V56.5372L26.4498 56.8232L26.448 48.341L25.9246 48.0388Z" fill="black"/>
<path opacity="0.1" d="M25.9246 48.0388L32.8798 44.0225C34.5651 41.9793 39.0868 38.0295 42.5635 38.4162L52.1627 32.8909L52.7023 33.2092L43.1031 38.7274C39.621 38.9072 36.4176 41.0889 33.4374 44.312L26.448 48.3373L25.9246 48.0388Z" fill="black"/>
<path d="M30.8579 44.6143C30.2122 44.3967 27.4765 43.51 26.2912 42.8894C25.2282 42.3301 25.1077 42.1394 24.7372 41.4416C24.2642 40.5423 23.4998 39.0854 22.5789 37.0853C21.7245 35.2292 22.4962 34.2255 23.0195 33.6176L25.1347 34.9504L27.8003 40.1178C27.8003 40.1178 30.437 41.7365 31.3345 42.2419C31.7565 42.4732 32.2164 42.6272 32.6925 42.697C33.3161 42.7297 33.9358 42.8151 34.545 42.9524C34.9606 43.0512 35.3859 43.103 35.8131 43.1071C36.1728 43.0855 36.367 43.0153 36.2843 43.2743C36.1764 43.6053 35.867 43.778 35.2663 43.8517C35.6836 44.1449 36.18 44.4452 36.5847 44.7672C36.9893 45.0891 37.4534 45.4237 37.5091 45.6107C37.5232 45.6733 37.5228 45.7383 37.5078 45.8006C37.4928 45.863 37.4638 45.9211 37.4228 45.9705C37.5498 46.0282 37.6627 46.1129 37.7538 46.2187C37.7802 46.2716 37.7914 46.3307 37.7862 46.3896C37.7811 46.4485 37.7597 46.5048 37.7245 46.5523C37.6893 46.5998 37.6417 46.6366 37.5868 46.6587C37.532 46.6807 37.4721 46.6872 37.4138 46.6773C37.3864 46.7418 37.3419 46.7976 37.2852 46.8388C37.2285 46.88 37.1617 46.905 37.0919 46.9111C36.8791 46.8924 36.6711 46.8377 36.4767 46.7493C36.4767 46.7493 36.4983 47.0155 36.1368 46.9471C35.7597 46.8584 35.3917 46.7343 35.0379 46.5766C34.7952 46.4692 34.5436 46.3832 34.286 46.3194C34.0004 46.2947 33.7221 46.216 33.4659 46.0874C33.0029 45.8619 32.5585 45.6003 32.1367 45.305C31.7366 45.0292 31.3079 44.7977 30.8579 44.6143Z" fill="#FFB573"/>
<path d="M33.9985 43.1773C34.2198 43.2708 34.441 43.3572 34.6568 43.4633C34.7651 43.5149 34.8708 43.5719 34.9734 43.6342C35.0769 43.6952 35.175 43.765 35.2666 43.8428C35.0525 43.7349 34.8385 43.6342 34.6245 43.5316C34.5165 43.4777 34.4086 43.4255 34.3043 43.368C34.1972 43.313 34.095 43.2493 33.9985 43.1773Z" fill="#AF6152"/>
<path d="M37.4228 45.9564C37.2237 45.8524 37.0303 45.7377 36.8436 45.6128C36.653 45.4941 36.4533 45.3934 36.2537 45.2855C36.0541 45.1776 35.8634 45.0607 35.6745 44.9366C35.4815 44.8188 35.3038 44.6774 35.1458 44.5157C35.2304 44.5888 35.3213 44.6544 35.4173 44.7117C35.5127 44.7729 35.608 44.8304 35.7051 44.8916C35.8994 45.0049 36.0936 45.1164 36.2915 45.2243C36.4893 45.3322 36.6872 45.4366 36.8742 45.5679C37.0613 45.6992 37.2339 45.8359 37.4228 45.9564Z" fill="#AF6152"/>
<path d="M37.4134 46.6629C37.4134 46.6341 37.3972 46.6108 37.3774 46.591C37.3561 46.5723 37.3332 46.5555 37.3091 46.5406C37.2611 46.5104 37.2113 46.4834 37.1598 46.4597C37.0591 46.4057 36.953 46.3625 36.8504 46.3068C36.649 46.1953 36.4601 46.0622 36.2695 45.9345C36.0823 45.8054 35.8857 45.6905 35.6813 45.5909C35.4765 45.4841 35.2788 45.3639 35.0896 45.2312C35.291 45.3409 35.5015 45.4327 35.7083 45.5316C35.9189 45.6257 36.1211 45.7376 36.3127 45.8661C36.4925 45.9992 36.6868 46.1287 36.8792 46.2492C36.9745 46.3104 37.0789 46.3589 37.1778 46.4201C37.2264 46.4507 37.2749 46.4813 37.3217 46.5172C37.3448 46.5346 37.3659 46.5545 37.3846 46.5766C37.3967 46.5871 37.4057 46.6007 37.4107 46.6158C37.4158 46.631 37.4167 46.6473 37.4134 46.6629Z" fill="#AF6152"/>
<path d="M36.477 46.7349C36.4149 46.6474 36.3277 46.5809 36.227 46.5442C36.1317 46.4956 36.0327 46.4525 35.9338 46.4075C35.7378 46.3122 35.5435 46.2276 35.3475 46.1359C35.1514 46.0442 34.959 45.9561 34.7665 45.8517C34.5735 45.7594 34.3555 45.7329 34.146 45.7762C34.2497 45.7414 34.3586 45.7244 34.4679 45.7258C34.5786 45.7309 34.6876 45.7552 34.7899 45.7978C34.9877 45.8859 35.1838 45.9776 35.3798 46.0676C35.5759 46.1575 35.7737 46.2474 35.959 46.3572C36.0543 46.4075 36.1514 46.4561 36.245 46.5118C36.3445 46.559 36.4259 46.6373 36.477 46.7349Z" fill="#AF6152"/>
<path d="M23.1024 33.1896C21.8344 33.99 21.6275 35.1681 22.2534 36.6555C22.7588 37.857 24.311 40.884 24.311 40.884C24.6834 40.0027 26.4694 38.9541 27.4082 39.2257L25.7068 35.6285C25.7068 35.6285 24.66 33.0007 23.1024 33.1896Z" fill="#37474F"/>
<path d="M40.5364 34.2038C41.1141 34.5644 41.7096 34.8957 42.3206 35.1966C42.8404 35.4502 43.3997 35.5006 44.0005 35.7955C44.4034 35.9916 44.7829 36.3441 45.2919 36.6948C45.8908 37.1067 46.0671 37.2039 45.9286 37.3963C45.9286 37.3963 46.1084 37.5024 46.175 37.5528C46.5077 37.7848 46.4969 37.9557 46.2721 38.0924C46.2721 38.0924 46.675 38.3514 46.5761 38.524C46.4196 38.7956 46.0779 38.6769 45.9106 38.5798C45.9106 38.5798 46.1246 38.7471 45.9879 38.8928C45.8512 39.0384 45.5689 39.0726 45.1534 38.8478C44.7379 38.623 43.9321 38.2003 43.3943 37.8747C42.8566 37.5492 42.9735 37.774 43.1407 37.9071C43.3438 38.0776 43.5208 38.277 43.6659 38.4989C43.73 38.588 43.7683 38.6931 43.7765 38.8025C43.7848 38.912 43.7627 39.0216 43.7127 39.1194C43.6138 39.2759 43.4033 39.0582 43.1731 38.8406C42.9429 38.623 42.5526 38.4503 42.3026 38.2704C42.0526 38.0906 41.8979 38.0546 41.4195 37.3064C41.0004 36.6499 40.5759 36.5761 39.6424 36.2002C38.9967 35.943 37.5633 35.4016 36.4805 34.997C36.1657 34.7667 35.833 34.5149 35.4805 34.2469L37.9464 32.6768C37.9464 32.6768 39.7522 33.7325 40.5364 34.2038Z" fill="#FFB573"/>
<path d="M45.9114 38.58C45.5193 38.348 45.1416 38.0962 44.7567 37.8606L44.1829 37.5009C43.9887 37.3858 43.8142 37.2221 43.5786 37.2131C43.6935 37.2146 43.8064 37.2436 43.9078 37.2976L44.1973 37.4775L44.7819 37.8372L45.3484 38.2131C45.5373 38.321 45.7244 38.4487 45.9114 38.58Z" fill="#AF6152"/>
<path d="M46.272 38.0926C45.9015 37.8857 45.5417 37.6627 45.1802 37.4415C45.0004 37.3281 44.8205 37.2166 44.6496 37.0925C44.5633 37.0296 44.4698 36.9684 44.3942 36.9019C44.3512 36.8691 44.3131 36.8303 44.2809 36.7868C44.2551 36.7397 44.2374 36.6886 44.2288 36.6357C44.2405 36.6869 44.2612 36.7356 44.2899 36.7796C44.3241 36.8194 44.3634 36.8544 44.4068 36.8839C44.4914 36.9468 44.5867 37.0044 44.6676 37.0637C44.8475 37.1825 45.0273 37.294 45.2072 37.4037C45.5633 37.6303 45.9231 37.8533 46.272 38.0926Z" fill="#AF6152"/>
<path d="M45.9284 37.3927C45.6712 37.2668 45.4248 37.1247 45.1784 36.9808C45.0579 36.907 44.9356 36.8333 44.8187 36.7541C44.7611 36.711 44.7018 36.6732 44.6388 36.6246C44.5933 36.5713 44.5574 36.5104 44.5327 36.4448C44.5628 36.5087 44.6042 36.5666 44.655 36.6157C44.7126 36.6576 44.7726 36.6961 44.8349 36.7308L45.1946 36.9502C45.4446 37.0905 45.691 37.2344 45.9284 37.3927Z" fill="#AF6152"/>
<path d="M9.29468 11.9281C9.80728 11.5522 10.2551 11.3328 10.5537 11.3688C11.037 11.4432 11.4967 11.6279 11.8973 11.9084C12.1958 12.1368 11.8757 12.8958 11.6113 12.6782C11.3469 12.4605 10.7875 12.0163 10.5897 11.9839C10.1976 11.9192 9.65979 12.3059 9.51051 12.3616C9.36122 12.4174 9.12741 12.054 9.29468 11.9281Z" fill="black"/>
<path d="M5.09271 14.5037C5.47582 15.2519 5.15566 16.1441 4.86069 16.6045C4.60529 17.002 5.20243 17.4696 5.58014 17.047C6.1431 16.4085 6.03339 15.1332 5.58014 14.5901L5.09271 14.5037Z" fill="black"/>
<path d="M5.57285 15.4407C5.14837 15.822 4.37317 15.6206 4.29763 15.1619C3.75805 15.1907 3.38034 14.822 3.25444 14.2626C3.14652 13.7716 3.29581 13.2302 3.78323 13.0036C3.53682 12.5755 3.59078 11.9982 4.19871 11.428C4.80664 10.8578 5.47752 10.6654 5.81746 10.8291C6.15739 10.2895 7.34448 10.0053 7.79593 10.8147C8.08915 10.6643 8.42672 10.6247 8.7468 10.703C9.06688 10.7813 9.34804 10.9722 9.53878 11.2409C9.68616 11.4527 9.76367 11.7053 9.76044 11.9633C9.75722 12.2213 9.67343 12.4718 9.52079 12.6798C9.94167 13.1798 9.61072 14.2051 8.59271 14.2986C8.77257 14.7734 7.9542 15.1493 7.63405 14.9479C7.47757 15.6098 5.893 16.0306 5.57285 15.4407Z" fill="#F0F0F0"/>
<path d="M4.17567 14.8761C4.17567 15.7161 3.4958 16.3708 3.02636 16.6514C2.62168 16.8924 2.94542 17.5776 3.46882 17.3708C4.25661 17.0507 4.72785 15.8636 4.56417 15.1711C4.46165 14.815 4.17028 14.7143 4.17567 14.8761Z" fill="black"/>
<path d="M8.78383 13.1368C9.39715 12.9678 9.89357 12.9228 10.1544 13.0595C10.5609 13.2735 10.8846 13.8347 11.0843 14.1566C11.2839 14.4786 10.6922 15.1603 10.5231 14.8617C10.354 14.5631 10.077 13.7951 9.90436 13.6944C9.56083 13.4948 8.98707 13.6117 8.8252 13.6063C8.66332 13.6009 8.58418 13.1872 8.78383 13.1368Z" fill="black"/>
<path d="M7.30513 9.67264C7.07491 10.1169 7.52456 10.973 8.22422 11.509C8.78359 11.9371 9.61095 11.6439 9.61454 10.7662C9.61454 9.96222 9.33576 9.02154 8.85733 8.93701C8.41847 8.85967 7.47779 9.3363 7.30513 9.67264Z" fill="black"/>
<path d="M7.27466 9.7464C7.12178 9.90288 7.19912 10.1493 7.04984 10.4317C6.97668 10.5487 6.88041 10.6496 6.76691 10.7282C6.65341 10.8067 6.52507 10.8613 6.38975 10.8885C6.11456 10.9587 6.16852 11.5558 6.54623 11.5108C6.76121 11.4816 6.96301 11.3904 7.1269 11.2482C7.29079 11.106 7.40965 10.9192 7.46891 10.7105C7.51983 10.4729 7.51614 10.2269 7.45812 9.99102L7.27466 9.7464Z" fill="black"/>
<path d="M8.91528 8.95157C9.13291 8.94078 9.275 9.16021 9.57897 9.23395C9.71541 9.25608 9.85494 9.24993 9.98891 9.2159C10.1229 9.18186 10.2484 9.12067 10.3578 9.03611C10.5916 8.87603 11.0053 9.30949 10.7175 9.5649C10.5543 9.70761 10.3529 9.79949 10.1382 9.82921C9.92341 9.85893 9.70465 9.8252 9.50882 9.73217C9.29449 9.61483 9.10991 9.44993 8.96924 9.25014L8.91528 8.95157Z" fill="black"/>
<path d="M6.94746 9.71046C6.95324 9.75435 6.96859 9.79644 6.99243 9.83374C7.01627 9.87104 7.04801 9.90265 7.08542 9.92633C7.12282 9.95001 7.16497 9.96518 7.20889 9.97077C7.2528 9.97636 7.29741 9.97223 7.33955 9.95867C7.37463 10.0394 7.43669 10.1055 7.51511 10.1455C7.59354 10.1856 7.68344 10.1971 7.76942 10.1781C7.87365 10.1684 7.97152 10.1237 8.04699 10.0511C8.12247 9.97859 8.17109 9.88258 8.1849 9.77881C8.26542 9.83042 8.35905 9.85784 8.45469 9.85784C8.55033 9.85784 8.64396 9.83042 8.72448 9.77881C8.9547 9.63852 8.94571 9.48204 8.87916 9.38312C8.95825 9.40831 9.04303 9.40945 9.12276 9.38639C9.20249 9.36334 9.27358 9.31713 9.32702 9.25362C9.36683 9.18251 9.37948 9.09937 9.36261 9.01965C9.34574 8.93992 9.30049 8.86903 9.23529 8.82015C9.17219 8.78051 9.10125 8.755 9.02736 8.74538C8.95347 8.73575 8.87837 8.74224 8.80722 8.7644C8.75692 8.66592 8.67486 8.58731 8.57432 8.54128C8.47378 8.49526 8.36065 8.48452 8.25325 8.51079C8.02482 8.55216 7.85575 8.65648 7.81978 8.85073C7.74793 8.81381 7.66635 8.8002 7.5864 8.8118C7.50646 8.82341 7.43212 8.85965 7.37373 8.91548C7.30838 8.95586 7.26063 9.01936 7.23997 9.09334C7.2193 9.16733 7.22725 9.24638 7.26221 9.31477C7.2142 9.31649 7.16713 9.32859 7.12424 9.35024C7.08135 9.37188 7.04365 9.40256 7.01374 9.44016C6.98384 9.47776 6.96242 9.52139 6.95098 9.56805C6.93954 9.61471 6.93834 9.66329 6.94746 9.71046Z" fill="#F0F0F0"/>
<path d="M21.5836 4.59158C22.1681 4.34337 22.6538 4.23185 22.9307 4.33257C23.3838 4.51436 23.7897 4.79665 24.1178 5.15814C24.357 5.44771 23.8714 6.1132 23.6628 5.83981C23.4541 5.56642 23.0117 5.00885 22.8264 4.94051C22.4667 4.78762 21.848 5.04303 21.6825 5.06101C21.517 5.079 21.3929 4.67431 21.5836 4.59158Z" fill="black"/>
<path d="M16.7471 6.40093C17.355 6.98008 17.3478 7.92795 17.2219 8.46034C17.114 8.91898 17.8334 9.16359 18.0457 8.6402C18.364 7.85241 17.8406 6.68511 17.2273 6.32359L16.7471 6.40093Z" fill="black"/>
<path d="M17.0597 6.98743C16.5507 7.24463 15.8547 6.85074 15.9014 6.3867C15.3619 6.27159 15.1029 5.82014 15.1298 5.24278C15.1514 4.73917 15.4374 4.25714 15.968 4.16362C15.8421 3.68519 16.0435 3.14201 16.7792 2.74991C17.5148 2.35781 18.2181 2.34522 18.504 2.59343C18.9753 2.15457 20.1947 2.19414 20.4214 3.09344C20.7439 3.0241 21.0806 3.07341 21.3697 3.23233C21.6588 3.39124 21.8808 3.64911 21.9951 3.95857C22.0845 4.20281 22.0946 4.46903 22.0239 4.71931C21.9531 4.96959 21.8052 5.19117 21.6012 5.3525C21.8782 5.94424 21.2919 6.84714 20.2865 6.66548C20.3314 7.17089 19.4501 7.32197 19.1929 7.04319C18.8566 7.64572 17.2162 7.63853 17.0597 6.98743Z" fill="#F0F0F0"/>
<path d="M15.8589 6.07727C15.6467 6.89024 14.8139 7.3363 14.2869 7.49277C13.8337 7.62048 13.9686 8.3669 14.5298 8.29855C15.3733 8.19603 16.1395 7.17082 16.1593 6.46037C16.1503 6.09346 15.8949 5.91899 15.8589 6.07727Z" fill="black"/>
<path d="M20.5275 5.28209C21.0887 5.58426 21.479 5.89362 21.5725 6.1706C21.72 6.60766 21.5725 7.23538 21.4916 7.60949C21.4106 7.9836 20.5149 8.06634 20.5923 7.73359C20.6696 7.40085 21.0059 6.65443 20.952 6.46198C20.8405 6.08067 20.3441 5.76951 20.2325 5.6508C20.121 5.5321 20.3441 5.18497 20.5275 5.28209Z" fill="black"/>
<path d="M20.2251 1.86494C19.8887 2.23545 20.101 3.17972 20.637 3.87758C21.065 4.43695 21.9409 4.3686 22.1712 3.51786C22.3834 2.74266 22.351 1.76062 21.9158 1.55558C21.5201 1.37032 20.4859 1.58615 20.2251 1.86494Z" fill="black"/>
<path d="M20.1829 1.92967C20.003 2.04119 20.003 2.29839 19.7872 2.534C19.6862 2.62773 19.567 2.69985 19.4371 2.74593C19.3072 2.79201 19.1693 2.81109 19.0318 2.802C18.7476 2.802 18.6451 3.39014 19.0228 3.4441C19.2384 3.47078 19.457 3.43393 19.6519 3.33808C19.8468 3.24222 20.0095 3.09153 20.1199 2.90452C20.2335 2.68781 20.2951 2.44766 20.2998 2.20306L20.1829 1.92967Z" fill="black"/>
<path d="M21.9739 1.58785C22.1861 1.63461 22.2617 1.88102 22.5422 2.0339C22.6681 2.09046 22.8042 2.12059 22.9422 2.12245C23.0802 2.12431 23.2171 2.09784 23.3444 2.04469C23.6124 1.94937 23.8984 2.47636 23.5603 2.64903C23.3653 2.74407 23.1469 2.78039 22.9317 2.75356C22.7165 2.72674 22.5137 2.63793 22.348 2.49794C22.1722 2.3279 22.0375 2.11998 21.9541 1.89001L21.9739 1.58785Z" fill="black"/>
<path d="M19.8779 1.80898C19.872 1.85293 19.8759 1.89764 19.8893 1.93992C19.9026 1.9822 19.9251 2.02103 19.9552 2.05365C19.9852 2.08626 20.022 2.11186 20.0631 2.12864C20.1041 2.14542 20.1484 2.15295 20.1927 2.15072C20.2052 2.23826 20.2481 2.31861 20.3139 2.37777C20.3796 2.43693 20.464 2.47115 20.5524 2.47447C20.6555 2.4917 20.7614 2.47375 20.8531 2.42351C20.9447 2.37327 21.0168 2.29366 21.0578 2.19748C21.1224 2.26745 21.2057 2.31737 21.2979 2.34128C21.39 2.3652 21.4871 2.36211 21.5776 2.33238C21.8366 2.25504 21.8708 2.10215 21.8312 1.99064C21.9003 2.03628 21.9813 2.06061 22.0641 2.06061C22.1469 2.06061 22.2279 2.03628 22.297 1.99064C22.3546 1.93263 22.3888 1.85547 22.3931 1.77387C22.3974 1.69227 22.3715 1.61194 22.3204 1.54818C22.2702 1.49333 22.2086 1.4501 22.1399 1.42152C22.0713 1.39294 21.9972 1.37969 21.9229 1.38271C21.8971 1.27607 21.8367 1.18099 21.7511 1.11233C21.6655 1.04366 21.5596 1.00529 21.4499 1.0032C21.2197 0.985218 21.029 1.04098 20.9445 1.22084C20.8847 1.16635 20.8095 1.13187 20.7292 1.1222C20.6489 1.11253 20.5676 1.12815 20.4966 1.16688C20.4225 1.18912 20.3594 1.23851 20.3201 1.30519C20.2807 1.37187 20.268 1.45093 20.2844 1.5266C20.2389 1.51559 20.1917 1.51435 20.1457 1.52294C20.0997 1.53153 20.0561 1.54977 20.0177 1.57645C19.9793 1.60314 19.947 1.63765 19.9229 1.67773C19.8988 1.71781 19.8834 1.76255 19.8779 1.80898Z" fill="#F0F0F0"/>
<path d="M35.1333 7.06081C35.7683 7.09319 36.2539 7.2065 36.4571 7.42054C36.7859 7.78065 37.0277 8.21136 37.164 8.67956C37.2521 9.03928 36.5237 9.43138 36.4571 9.09504C36.3906 8.7587 36.2341 8.06264 36.0974 7.91335C35.833 7.61658 35.1729 7.57701 35.0182 7.52126C34.8636 7.4655 34.9265 7.05002 35.1333 7.06081Z" fill="black"/>
<path d="M30.2522 6.40624C30.0723 7.22821 29.2647 7.71743 28.7449 7.8901C28.2971 8.03758 28.4644 8.77681 29.0219 8.68508C29.8601 8.54479 30.5813 7.48721 30.5687 6.77496L30.2522 6.40624Z" fill="black"/>
<path d="M30.0314 7.43141C29.4612 7.45839 28.9864 6.81449 29.2202 6.4098C28.776 6.08605 28.722 5.56805 28.9792 5.05185C29.2058 4.6004 29.6627 4.27665 30.1897 4.40076C30.2706 3.91333 30.6735 3.50145 31.5063 3.4403C32.339 3.37915 32.9793 3.65613 33.1448 4.00146C33.7545 3.79283 34.8517 4.32701 34.6916 5.24071C35.0147 5.31011 35.3019 5.49395 35.5002 5.75836C35.6985 6.02277 35.7946 6.34994 35.7708 6.67959C35.7527 6.93816 35.654 7.18454 35.4885 7.38398C35.3229 7.58341 35.0989 7.72583 34.8481 7.79113C34.8589 8.44403 33.9488 9.03038 33.1124 8.45302C32.9487 8.93325 32.0818 8.71202 31.9595 8.3523C31.4037 8.76958 29.9091 8.0951 30.0314 7.43141Z" fill="#F0F0F0"/>
<path d="M29.3046 6.11495C28.7794 6.77144 27.8351 6.84698 27.2937 6.76784C26.8261 6.69949 26.6462 7.43692 27.1858 7.6024C27.9988 7.8524 29.1157 7.23008 29.4233 6.58798C29.5654 6.24804 29.3981 5.99264 29.3046 6.11495Z" fill="black"/>
<path d="M33.9774 7.6743C34.5602 7.92971 34.9738 8.21389 35.089 8.47828C35.2688 8.90275 35.1663 9.53946 35.1177 9.91717C35.0692 10.2949 34.1807 10.4568 34.2382 10.1096C34.2958 9.76249 34.5656 8.99988 34.4954 8.81462C34.3551 8.44231 33.8353 8.17072 33.7094 8.061C33.5835 7.95129 33.7886 7.58977 33.9774 7.6743Z" fill="black"/>
<path d="M35.0146 4.05206C34.556 4.25351 34.3653 5.20137 34.5703 6.05931C34.734 6.74278 35.5614 7.03775 36.1171 6.35968C36.6279 5.73736 37.0021 4.83086 36.6837 4.46214C36.3923 4.1258 35.3617 3.90098 35.0146 4.05206Z" fill="black"/>
<path d="M34.945 4.09161C34.7292 4.11679 34.632 4.356 34.3389 4.48191C34.2082 4.52632 34.0698 4.54365 33.9322 4.53282C33.7946 4.522 33.6606 4.48326 33.5385 4.41896C33.2795 4.30025 32.9467 4.79846 33.2687 5.00171C33.4537 5.11452 33.6677 5.17087 33.8843 5.16384C34.1009 5.15681 34.3108 5.08671 34.4881 4.96214C34.6793 4.80976 34.8326 4.61524 34.936 4.39378L34.945 4.09161Z" fill="black"/>
<path d="M36.7197 4.5105C36.8995 4.6382 36.8636 4.8954 37.0578 5.14901C37.1499 5.25174 37.262 5.33456 37.3873 5.3924C37.5126 5.45024 37.6483 5.48187 37.7862 5.48535C38.0704 5.50873 38.1172 6.10587 37.7359 6.12565C37.5192 6.13313 37.3051 6.07721 37.1198 5.96475C36.9345 5.85228 36.7861 5.68817 36.6927 5.49254C36.5998 5.26471 36.561 5.01845 36.5794 4.7731L36.7197 4.5105Z" fill="black"/>
<path d="M34.7147 3.85602C34.6913 3.89373 34.6766 3.93612 34.6715 3.98018C34.6663 4.02424 34.671 4.06888 34.6851 4.11094C34.6991 4.153 34.7223 4.19144 34.7529 4.22354C34.7835 4.25564 34.8208 4.28061 34.8621 4.29668C34.8393 4.38096 34.8463 4.47057 34.882 4.55026C34.9178 4.62995 34.98 4.69479 35.0582 4.73374C35.1452 4.79175 35.2493 4.81853 35.3536 4.80971C35.4578 4.80089 35.5559 4.75699 35.632 4.68518C35.661 4.77705 35.7164 4.85838 35.7912 4.91912C35.866 4.97986 35.9569 5.01733 36.0528 5.02691C36.3208 5.06288 36.4125 4.93698 36.4233 4.81827C36.469 4.88711 36.534 4.94091 36.6102 4.97291C36.6863 5.00491 36.7703 5.01369 36.8514 4.99814C36.9274 4.96858 36.9899 4.91213 37.0271 4.83952C37.0642 4.7669 37.0734 4.68317 37.0529 4.60424C37.0296 4.53365 36.9911 4.46903 36.9402 4.41495C36.8892 4.36087 36.827 4.31865 36.7579 4.29128C36.7782 4.18336 36.7619 4.07175 36.7118 3.97405C36.6616 3.87636 36.5804 3.79813 36.4809 3.7517C36.2777 3.64019 36.0798 3.615 35.9305 3.7517C35.8981 3.67729 35.8432 3.6149 35.7735 3.57329C35.7039 3.53167 35.6229 3.51293 35.542 3.51968C35.4659 3.50985 35.3889 3.529 35.3263 3.57331C35.2636 3.61762 35.2199 3.68387 35.2039 3.75889C35.1665 3.73002 35.1233 3.70948 35.0773 3.69868C35.0313 3.68787 34.9835 3.68704 34.9372 3.69624C34.8908 3.70544 34.847 3.72446 34.8086 3.75202C34.7702 3.77958 34.7382 3.81504 34.7147 3.85602Z" fill="#F0F0F0"/>
</svg>
