<svg width="22" height="22" viewBox="0 0 22 22" fill="none" xmlns="http://www.w3.org/2000/svg">
<path d="M17.7249 10.3228H16.5894C16.5894 11.3448 16.3055 12.31 15.7945 13.1616L16.6461 14.0133C17.3275 12.8777 17.6681 11.6286 17.7249 10.3228Z" fill="white"/>
<path d="M14.8864 10.3227V5.78057C14.8864 3.56628 13.0696 1.80621 10.8553 1.86298C9.20878 1.86298 7.67582 2.94174 7.16483 4.53149L14.5458 11.9124C14.7729 11.4015 14.8864 10.8337 14.8864 10.3227Z" fill="white"/>
<path d="M14.9998 15.7732L18.9173 19.6908L19.7122 18.896L2.96312 2.14685L2.16824 2.94172L6.93748 7.71096V10.3227C6.93748 12.537 8.69756 14.297 10.9118 14.297C11.6499 14.297 12.3313 14.1267 12.9558 13.7293L14.2049 14.9784C13.2397 15.6597 12.1042 16.0003 10.9118 16.0003C7.84591 16.1139 5.34773 13.6725 5.23418 10.6633V10.3227H4.09865C4.15543 13.8428 6.82393 16.7952 10.3441 17.1359V18.8392H8.64078C8.30012 18.8392 8.07301 19.0663 8.07301 19.4069C8.07301 19.7476 8.30012 19.9747 8.64078 19.9747H13.1829C13.5236 19.9747 13.7507 19.7476 13.7507 19.4069C13.7507 19.0663 13.5236 18.8392 13.1829 18.8392H11.4796V17.1359C12.7287 17.0223 13.9778 16.5681 14.9998 15.7732Z" fill="white"/>
</svg>
