<svg width="73" height="73" viewBox="0 0 73 73" fill="none" xmlns="http://www.w3.org/2000/svg">
<path d="M31.9439 2.75036C32.7896 0.216009 37.1156 0.73101 39.284 2.41425C41.4525 4.0975 44.7322 5.09227 45.6999 4.41735C43.5613 7.07368 39.5984 7.99797 37.0099 7.36641C34.4213 6.73486 31.0087 5.52053 31.9439 2.75036Z" fill="#263238"/>
<path d="M45.0571 6.00851C45.0428 6.00869 45.0288 6.00468 45.0167 5.99697C45.0047 5.98926 44.9952 5.9782 44.9893 5.96514C44.9854 5.95645 44.9832 5.94705 44.9829 5.9375C44.9827 5.92794 44.9844 5.91844 44.9879 5.90956C44.9915 5.90069 44.9968 5.89263 45.0036 5.88587C45.0103 5.87912 45.0184 5.87381 45.0273 5.87027C45.5233 5.64801 46.1847 5.66156 46.884 5.67511C47.7676 5.69409 48.6838 5.71035 49.2422 5.22516C49.2571 5.2139 49.2757 5.20874 49.2942 5.21075C49.3128 5.21277 49.3299 5.2218 49.342 5.236C49.3541 5.25019 49.3604 5.26849 49.3594 5.28713C49.3585 5.30578 49.3505 5.32337 49.337 5.3363C48.7353 5.85943 47.792 5.84046 46.8786 5.82148C46.1955 5.80793 45.5504 5.79438 45.0869 6.00309L45.0571 6.00851Z" fill="#263238"/>
<path d="M44.5743 3.55828C44.5576 3.55502 44.5426 3.54608 44.5318 3.53298C44.521 3.51987 44.5151 3.50342 44.5151 3.48645C44.5151 3.46947 44.521 3.45302 44.5318 3.43992C44.5426 3.42681 44.5576 3.41787 44.5743 3.41462C44.9171 3.38537 45.2452 3.26254 45.523 3.05954C45.5293 3.05255 45.5371 3.04697 45.5457 3.04315C45.5544 3.03933 45.5637 3.03735 45.5731 3.03735C45.5826 3.03735 45.5919 3.03933 45.6006 3.04315C45.6092 3.04697 45.6169 3.05255 45.6233 3.05954C45.6299 3.06609 45.6352 3.0739 45.6388 3.08251C45.6424 3.09112 45.6442 3.10035 45.6442 3.10968C45.6442 3.11901 45.6424 3.12825 45.6388 3.13686C45.6352 3.14546 45.6299 3.15327 45.6233 3.15983C45.3253 3.38565 44.9687 3.52113 44.596 3.55015L44.5743 3.55828Z" fill="#263238"/>
<path d="M29.9404 2.7425C31.9218 2.12721 33.3747 2.41452 33.6186 3.30087C33.8734 4.23059 32.613 4.84588 32.1766 4.81606C31.7402 4.78625 29.9404 2.7425 29.9404 2.7425Z" fill="#2196F3"/>
<path d="M24.1318 9.34514C22.9771 8.80303 22.5272 6.85415 23.0069 6.09249C21.7601 5.88107 22.9717 1.04818 28.8373 1.88845C34.7029 2.72871 33.3937 8.29074 31.6671 8.85724C32.2987 9.6948 30.2468 12.305 27.8046 11.0907C25.3624 9.87641 24.1318 9.34514 24.1318 9.34514Z" fill="#263238"/>
<path d="M17.7859 26.6166L16.3385 25.8224L16.249 28.5085C16.249 28.5085 17.7236 28.6386 18.6641 28.0721L18.6099 27.7713C18.5687 27.5291 18.4731 27.2993 18.3304 27.0993C18.1877 26.8994 18.0015 26.7343 17.7859 26.6166Z" fill="#FFB573"/>
<path d="M15.0028 27.0179L15.095 27.8772C15.1134 28.0569 15.199 28.2229 15.3348 28.3421C15.4705 28.4612 15.6463 28.5246 15.8268 28.5196H16.2497L16.3391 25.8334L15.3931 26.3105C15.2651 26.3762 15.1596 26.4787 15.09 26.6047C15.0205 26.7307 14.9901 26.8746 15.0028 27.0179Z" fill="#FFB573"/>
<path d="M28.0382 18.2168C28.0382 18.4391 28.0382 18.6017 28.0382 18.7861C28.0382 18.9704 28.0382 19.1411 28.0382 19.3282C28.0382 19.6805 28.0084 20.0302 27.9813 20.3799C27.9275 21.0798 27.837 21.7765 27.7102 22.467C27.5836 23.166 27.4143 23.8567 27.2033 24.5351C26.9952 25.2279 26.737 25.9046 26.4308 26.5599L26.1842 27.0532C26.1243 27.1798 26.0573 27.3028 25.9836 27.4218C25.8667 27.5966 25.7273 27.7552 25.5689 27.8935C25.1472 28.2464 24.6441 28.4887 24.1052 28.5982C23.3603 28.7589 22.5976 28.8218 21.8365 28.7852C20.4644 28.7335 19.1016 28.5372 17.7707 28.1998C17.581 28.1533 17.4145 28.0402 17.3013 27.8812C17.1882 27.7221 17.1361 27.5276 17.1545 27.3332C17.1729 27.1389 17.2606 26.9576 17.4016 26.8226C17.5426 26.6876 17.7275 26.6078 17.9224 26.5978H17.9523C19.2181 26.5301 20.5191 26.4515 21.7199 26.2861C22.2689 26.2227 22.8095 26.1009 23.3327 25.9229C23.536 25.8524 23.6905 25.7196 23.6037 25.7603C23.5652 25.7873 23.5321 25.8213 23.5062 25.8606C23.4357 25.9798 23.5062 25.8389 23.5062 25.7874L23.6661 25.3862C24.0651 24.2683 24.3467 23.1119 24.5063 21.9357C24.5985 21.3394 24.6527 20.7322 24.7042 20.1278C24.7286 19.8242 24.7476 19.5206 24.7584 19.2197V18.7698V18.3551V18.2765C24.7552 18.0629 24.7941 17.8508 24.8729 17.6523C24.9517 17.4537 25.0688 17.2726 25.2175 17.1194C25.5179 16.8098 25.929 16.6322 26.3604 16.6258C26.7917 16.6193 27.2079 16.7844 27.5175 17.0849C27.8271 17.3853 28.0046 17.7964 28.0111 18.2277L28.0382 18.2168Z" fill="#FFB573"/>
<path d="M29.775 27.2346C29.775 27.2346 26.7284 38.5132 24.766 46.0756C22.79 52.982 19.6729 69.7088 19.6729 69.7088L21.432 70.1398C21.432 70.1398 27.2732 59.8397 29.1597 48.1844C36.5107 37.8383 37.3727 29.7961 37.3727 29.7961L29.775 27.2346Z" fill="#2196F3"/>
<path opacity="0.2" d="M35.2554 32.6559C34.8624 32.8429 34.0059 35.1577 34.8814 38.077C35.5985 36.4095 36.2043 34.6963 36.6947 32.9486L35.2554 32.6559Z" fill="black"/>
<path d="M41.5252 46.1543C45.3363 29.2975 38.9584 26.8173 38.9584 26.8173L38.5111 26.8878C35.9605 28.5141 33.9439 33.122 35.2991 35.9708C35.2585 38.2802 35.1202 43.273 35.5702 46.4958C35.8141 48.2739 35.928 49.7783 38.1642 50.5183C40.4004 51.2582 47.8272 51.7651 53.9395 54.6112L54.2322 52.4997C54.2322 52.4997 46.1684 46.1136 41.5252 46.1543Z" fill="#2196F3"/>
<path d="M56.7233 52.8574C56.0999 52.9089 55.6635 53.039 53.8257 51.9439C53.8257 51.9439 52.8418 53.7952 52.9448 54.5325C54.2106 55.0746 56.8832 57.1563 56.5038 58.7338C56.2896 59.6337 57.3332 59.3979 57.588 58.7609C58.2033 57.1753 57.4768 56.148 57.6259 55.202C57.7533 54.3888 57.9756 54.2289 58 53.5757C58.0081 53.02 57.3494 52.8059 56.7233 52.8574Z" fill="#263238"/>
<path d="M38.9589 26.8173C38.4493 24.2532 36.3703 20.6156 35.3186 14.7663C35.2612 14.4456 35.137 14.1405 34.9541 13.8709C34.7712 13.6013 34.5336 13.3732 34.2567 13.2014C33.9799 13.0296 33.67 12.918 33.3472 12.8738C33.0244 12.8296 32.6959 12.8538 32.3831 12.9448C32.028 13.0478 31.6567 13.1643 31.2799 13.2945C29.9534 13.7224 28.659 14.2441 27.4065 14.8557C27.0054 15.0644 26.5934 15.2894 26.2058 15.5144C25.5268 15.9057 25.0179 16.5359 24.7783 17.2821C24.5388 18.0283 24.5858 18.837 24.9101 19.5504C25.2842 20.3635 24.7421 22.8464 26.8292 23.3126C27.7047 24.9389 29.1467 24.2884 29.7728 27.2591C29.7728 31.3981 34.1639 36.2039 35.2996 35.9817C34.6301 29.5197 38.9589 26.8173 38.9589 26.8173Z" fill="#2196F3"/>
<path opacity="0.4" d="M38.9589 26.8173C38.4493 24.2532 36.3703 20.6156 35.3186 14.7663C35.2612 14.4456 35.137 14.1405 34.9541 13.8709C34.7712 13.6013 34.5336 13.3732 34.2567 13.2014C33.9799 13.0296 33.67 12.918 33.3472 12.8738C33.0244 12.8296 32.6959 12.8538 32.3831 12.9448C32.028 13.0478 31.6567 13.1643 31.2799 13.2945C29.9534 13.7224 28.659 14.2441 27.4065 14.8557C27.0054 15.0644 26.5934 15.2894 26.2058 15.5144C25.5268 15.9057 25.0179 16.5359 24.7783 17.2821C24.5388 18.0283 24.5858 18.837 24.9101 19.5504C25.2842 20.3635 24.7421 22.8464 26.8292 23.3126C27.7047 24.9389 29.1467 24.2884 29.7728 27.2591C29.7728 31.3981 34.1639 36.2039 35.2996 35.9817C34.6301 29.5197 38.9589 26.8173 38.9589 26.8173Z" fill="white"/>
<path d="M34.6053 25.6815L32.979 25.9526L34.5809 28.121C34.5809 28.121 35.8142 27.3078 36.2073 26.2751L35.9796 26.0718C35.7945 25.9078 35.5748 25.7876 35.3369 25.72C35.099 25.6525 34.849 25.6393 34.6053 25.6815Z" fill="#FFB573"/>
<path d="M32.6755 27.7254L33.28 28.3407C33.406 28.4702 33.5764 28.5472 33.7569 28.5563C33.9374 28.5653 34.1147 28.5057 34.2531 28.3895L34.5783 28.1184L32.9764 25.95L32.5346 26.9122C32.4716 27.0458 32.4514 27.1956 32.4766 27.3411C32.5018 27.4866 32.5713 27.6208 32.6755 27.7254Z" fill="#FFB573"/>
<path opacity="0.3" d="M35.5381 15.8776L32.7571 15.2054C33.2423 16.4115 34.9418 18.2168 36.4109 19.2413C36.0965 18.2141 35.7956 17.1 35.5381 15.8776Z" fill="#2196F3"/>
<path d="M34.3835 13.2729C34.5841 13.3786 34.7278 13.4599 34.8904 13.544C35.053 13.628 35.1967 13.731 35.3485 13.8286C35.6493 14.021 35.9421 14.2189 36.2321 14.4249C36.809 14.8408 37.3627 15.2877 37.891 15.7639C38.9735 16.7252 39.92 17.8295 40.7045 19.0464L40.8536 19.2767L40.8915 19.3364C40.9268 19.396 40.962 19.4556 40.9918 19.5153C41.0522 19.6323 41.1012 19.7548 41.1382 19.8812C41.2466 20.2741 41.2541 20.6881 41.1599 21.0847C41.0356 21.5566 40.8302 22.0033 40.5527 22.4047C40.1317 23.0176 39.6485 23.5853 39.1107 24.0988C38.1189 25.0524 37.0399 25.9109 35.8879 26.663C35.7246 26.7679 35.5291 26.8109 35.3368 26.7843C35.1445 26.7577 34.9681 26.6631 34.8394 26.5178C34.7108 26.3724 34.6384 26.1858 34.6353 25.9917C34.6322 25.7977 34.6987 25.6089 34.8226 25.4595L34.8416 25.4378C35.671 24.4647 36.5167 23.4618 37.2513 22.4562C37.6016 21.9971 37.9126 21.5093 38.181 20.9979C38.2691 20.8477 38.3245 20.6805 38.3436 20.5073C38.3436 20.4911 38.3057 20.548 38.3436 20.7323C38.3569 20.7797 38.3741 20.826 38.3951 20.8705C38.4061 20.8949 38.4188 20.9184 38.4331 20.941L38.4005 20.9004L38.265 20.7269L37.994 20.3826L37.7039 20.052C37.5169 19.8243 37.3001 19.6183 37.0995 19.4014C36.6712 18.984 36.2348 18.5747 35.7686 18.1898C35.3024 17.8049 34.8172 17.4363 34.3239 17.0839C34.0745 16.9077 33.8251 16.7343 33.5704 16.5716L33.1936 16.3331L32.8439 16.119L32.7653 16.0702C32.4163 15.8441 32.1672 15.493 32.0691 15.0889C31.971 14.6848 32.0314 14.2585 32.2379 13.8976C32.4444 13.5367 32.7813 13.2686 33.1793 13.1483C33.5774 13.0281 34.0063 13.0649 34.3781 13.2512L34.3835 13.2729Z" fill="#FFB573"/>
<path d="M22.1049 71.0208C22.1049 70.3865 21.8962 70.3106 22.9181 68.1151C22.9181 68.1151 20.2428 67.3344 19.7223 67.7031C19.5055 69.08 18.424 70.728 16.4182 70.3052C15.5264 70.1182 15.4641 70.8473 16.0794 71.1184C17.6163 71.777 18.7465 71.6252 19.679 71.7824C20.4732 71.918 20.7252 72.1619 21.3758 72.1999C21.9152 72.2297 22.113 71.6551 22.1049 71.0208Z" fill="#263238"/>
<path d="M27.4061 14.845C27.4061 14.845 26.189 16.5066 28.4198 18.5611C28.8318 16.5201 31.274 13.2973 31.274 13.2973L27.4061 14.845Z" fill="white"/>
<path opacity="0.3" d="M29.1785 21.8135C31.2873 22.4668 33.7376 21.3528 33.7376 21.3528C33.7376 21.3528 31.1301 23.2176 29.1785 21.8135Z" fill="#2196F3"/>
<path d="M29.1379 9.07407C29.3954 10.4293 30.073 12.7983 31.2792 13.2781C31.2792 13.2781 28.8696 15.704 28.2624 17.6475C26.5439 15.9453 27.4059 14.8394 27.4059 14.8394C28.6636 13.9476 28.219 12.942 27.5793 12.0611L29.1379 9.07407Z" fill="#FFB573"/>
<path opacity="0.2" d="M28.5044 10.2965L27.5801 12.0556C27.7314 12.2562 27.8639 12.4703 27.9758 12.6953C28.4773 12.4053 28.9706 11.5298 28.789 10.9497C28.7333 10.7169 28.637 10.4958 28.5044 10.2965Z" fill="black"/>
<path d="M29.531 6.26324C29.8617 8.48589 30.0487 9.41831 29.2003 10.7736C27.921 12.8146 25.289 12.6574 24.3214 10.5757C23.4432 8.70002 22.9282 5.44466 24.8499 4.12734C26.7717 2.81002 29.2003 4.0406 29.531 6.26324Z" fill="#FFB573"/>
<path d="M23.3184 4.66415C25.2889 5.65621 27.4736 4.71565 28.3844 5.76192C29.2951 6.80819 30.9404 8.6622 32.2902 8.04148C31.366 5.08157 26.7526 1.19737 23.3184 4.66415Z" fill="#263238"/>
<path d="M28.1484 9.61623C27.3999 9.87757 26.6359 10.0921 25.8607 10.2586C25.7333 9.96047 25.793 9.59455 26.7254 9.28555C27.9885 8.85999 28.1484 9.61623 28.1484 9.61623Z" fill="#263238"/>
<path d="M26.7338 9.2774C26.4204 9.35275 26.137 9.5209 25.9207 9.75988C26.1278 9.7569 26.3333 9.7231 26.5305 9.65959C26.9156 9.55325 27.2816 9.38676 27.6147 9.16627C27.3164 9.1302 27.0138 9.16837 26.7338 9.2774Z" fill="white"/>
<path d="M28.0511 9.64604C27.9616 9.57556 27.8451 9.57827 27.5767 9.59996C27.099 9.69829 26.6296 9.83331 26.1727 10.0038C26.0155 10.0716 25.9016 10.1394 25.9233 10.2396C26.6421 10.0777 27.3523 9.8796 28.0511 9.64604Z" fill="#630F0F"/>
<path d="M26.9881 7.22811C27.0261 7.40697 26.961 7.57227 26.8445 7.59666C26.728 7.62105 26.6033 7.49639 26.5735 7.32567C26.5437 7.15494 26.6006 6.98421 26.7171 6.95982C26.8337 6.93543 26.9502 7.04925 26.9881 7.22811Z" fill="#263238"/>
<path d="M24.6786 7.87867C24.7165 8.05753 24.6515 8.22284 24.5349 8.24723C24.4184 8.27162 24.2937 8.14696 24.2639 7.97623C24.2341 7.80551 24.291 7.63207 24.4076 7.60768C24.5241 7.58329 24.6406 7.69982 24.6786 7.87867Z" fill="#263238"/>
<path d="M24.4543 7.59947L23.999 7.56696C23.999 7.56696 24.289 7.85421 24.4543 7.59947Z" fill="#263238"/>
<path d="M25.1885 7.98999C25.1153 8.43104 24.9812 8.85978 24.79 9.26394C24.8952 9.30987 25.0092 9.33222 25.1239 9.32941C25.2386 9.3266 25.3513 9.2987 25.4541 9.24768L25.1885 7.98999Z" fill="#ED893E"/>
<path d="M30.5423 7.71856C30.503 7.9337 30.4187 8.13811 30.2949 8.31841C30.1711 8.49871 30.0107 8.65083 29.824 8.76483C29.3388 9.03588 28.9458 8.52901 28.9512 7.91643C28.9512 7.37432 29.2223 6.56116 29.7644 6.56116C30.3065 6.56116 30.6562 7.15477 30.5423 7.71856Z" fill="#FFB573"/>
<path d="M26.6846 5.94085C26.6559 5.94708 26.6259 5.94224 26.6006 5.92729C26.4876 5.85433 26.3588 5.80938 26.2249 5.79618C26.091 5.78298 25.9559 5.80191 25.8308 5.8514C25.8052 5.86367 25.7759 5.86544 25.749 5.85632C25.7222 5.8472 25.6999 5.82791 25.6871 5.80261C25.6807 5.79001 25.6768 5.77625 25.6758 5.76214C25.6748 5.74803 25.6766 5.73386 25.6812 5.72046C25.6857 5.70706 25.6929 5.69472 25.7023 5.68415C25.7117 5.67358 25.7232 5.66501 25.7359 5.65895C25.8936 5.59383 26.0646 5.56771 26.2345 5.58281C26.4043 5.59791 26.5681 5.65378 26.7117 5.74569C26.724 5.75264 26.7347 5.76205 26.7432 5.77332C26.7517 5.78459 26.7578 5.79749 26.7611 5.81122C26.7644 5.82494 26.7649 5.83921 26.7624 5.85311C26.76 5.86702 26.7547 5.88027 26.747 5.89206C26.7329 5.91542 26.7107 5.93279 26.6846 5.94085Z" fill="#263238"/>
<path d="M23.2321 7.03841C23.2128 7.04628 23.1917 7.04859 23.1712 7.04508C23.1507 7.04156 23.1316 7.03236 23.1161 7.01852C23.1005 7.00468 23.0892 6.98676 23.0833 6.9668C23.0775 6.94683 23.0774 6.92563 23.083 6.90559C23.133 6.74267 23.2214 6.59413 23.3407 6.47244C23.46 6.35076 23.6068 6.25948 23.7687 6.20627C23.7952 6.20231 23.8222 6.20828 23.8446 6.22305C23.8669 6.23781 23.883 6.26032 23.8897 6.28624C23.8965 6.31216 23.8934 6.33965 23.881 6.36342C23.8687 6.38719 23.848 6.40556 23.8229 6.41499C23.6946 6.45805 23.5784 6.5312 23.4841 6.62834C23.3898 6.72548 23.3201 6.84378 23.2808 6.97336C23.2736 7.00055 23.2561 7.02388 23.2321 7.03841Z" fill="#263238"/>
<path d="M26.7639 6.94903L26.3086 6.9165C26.3086 6.9165 26.5986 7.20376 26.7639 6.94903Z" fill="#263238"/>
<path d="M24.0829 4.67471C24.0829 5.69659 25.9423 6.37964 26.9045 6.3444C25.9044 6.57209 23.8769 6.40946 23.595 4.92408C23.6573 4.67742 24.0829 4.67471 24.0829 4.67471Z" fill="#263238"/>
<path d="M40.9589 3.57971C41.8967 4.52569 44.6506 4.34408 45.7918 3.81282C44.7076 4.59616 42.3684 5.37409 40.7366 4.26006C40.5767 3.9619 40.9589 3.57971 40.9589 3.57971Z" fill="#263238"/>
</svg>
