<svg width="241" height="143" viewBox="0 0 241 143" fill="none" xmlns="http://www.w3.org/2000/svg">
<path d="M117.161 68.103H92.9061H92.6478C90.9936 68.103 89.4072 68.7601 88.2376 69.9298C87.0679 71.0995 86.4108 72.6859 86.4108 74.34V142.393H123.026V74.3148C123.046 72.7207 122.445 71.1814 121.351 70.0222C120.256 68.8631 118.754 68.1749 117.161 68.103Z" fill="#2196F3"/>
<path opacity="0.5" d="M117.161 68.103H92.9061H92.6478C90.9936 68.103 89.4072 68.7601 88.2376 69.9298C87.0679 71.0995 86.4108 72.6859 86.4108 74.34V142.393H123.026V74.3148C123.046 72.7207 122.445 71.1814 121.351 70.0222C120.256 68.8631 118.754 68.1749 117.161 68.103Z" fill="white"/>
<path opacity="0.6" d="M92.6729 68.103C91.0188 68.103 89.4324 68.7601 88.2627 69.9298C87.093 71.0995 86.4359 72.6859 86.4359 74.34V142.393H98.9099V74.3148C98.9032 72.665 98.2432 71.0851 97.0742 69.9209C95.9053 68.7567 94.3227 68.103 92.6729 68.103Z" fill="white"/>
<path d="M235.595 52.0002H130.076C128.72 52.0002 127.42 52.5383 126.461 53.4963C125.502 54.4543 124.962 55.7539 124.96 57.1095L118.03 101.367H233.761L240.691 57.1095C240.691 55.7566 240.155 54.459 239.199 53.5012C238.244 52.5433 236.948 52.0036 235.595 52.0002Z" fill="#2196F3"/>
<path opacity="0.4" d="M235.595 52.0002H130.076C128.72 52.0002 127.42 52.5383 126.461 53.4963C125.502 54.4543 124.962 55.7539 124.96 57.1095L118.03 101.367H233.761L240.691 57.1095C240.691 55.7566 240.155 54.459 239.199 53.5012C238.244 52.5433 236.948 52.0036 235.595 52.0002Z" fill="white"/>
<path opacity="0.2" d="M223.537 102.022H233.761L240.691 57.1095C240.691 56.438 240.559 55.7731 240.302 55.1528C240.045 54.5325 239.668 53.969 239.193 53.4945C238.718 53.02 238.154 52.6438 237.533 52.3874C236.912 52.131 236.247 51.9994 235.576 52.0002C234.221 52.0002 232.921 52.5385 231.963 53.4967C231.005 54.4549 230.467 55.7545 230.467 57.1095L223.537 102.022Z" fill="black"/>
<path d="M207.377 142.393H102.98V96.3774L207.377 96.3774V142.393Z" fill="#2196F3"/>
<path opacity="0.4" d="M207.377 142.393H102.98V96.3774L207.377 96.3774V142.393Z" fill="white"/>
<path d="M217.545 105.639H106.464C105.601 105.639 104.746 105.469 103.949 105.138C103.152 104.808 102.427 104.324 101.817 103.714C101.207 103.104 100.723 102.38 100.393 101.582C100.063 100.785 99.8927 99.9306 99.8927 99.0677C99.8927 97.325 100.585 95.6537 101.817 94.4214C103.05 93.1891 104.721 92.4968 106.464 92.4968H217.545V105.639Z" fill="#2196F3"/>
<path opacity="0.6" d="M217.545 105.639H106.464C105.601 105.639 104.746 105.469 103.949 105.138C103.152 104.808 102.427 104.324 101.817 103.714C101.207 103.104 100.723 102.38 100.393 101.582C100.063 100.785 99.8927 99.9306 99.8927 99.0677C99.8927 97.325 100.585 95.6537 101.817 94.4214C103.05 93.1891 104.721 92.4968 106.464 92.4968H217.545V105.639Z" fill="white"/>
<path d="M228.665 68.103H204.416H204.164C202.509 68.103 200.922 68.7599 199.752 69.9294C198.581 71.0989 197.922 72.6853 197.921 74.34V142.393H234.53V74.3148C234.55 72.7207 233.949 71.1814 232.854 70.0222C231.76 68.8631 230.257 68.1749 228.665 68.103Z" fill="#2196F3"/>
<path opacity="0.5" d="M228.665 68.103H204.416H204.164C202.509 68.103 200.922 68.7599 199.752 69.9294C198.581 71.0989 197.922 72.6853 197.921 74.34V142.393H234.53V74.3148C234.55 72.7207 233.949 71.1814 232.854 70.0222C231.76 68.8631 230.257 68.1749 228.665 68.103Z" fill="white"/>
<path opacity="0.6" d="M204.177 68.103C202.522 68.103 200.935 68.7599 199.764 69.9294C198.593 71.0989 197.935 72.6853 197.933 74.34V142.393H210.414V74.3148C210.407 72.665 209.747 71.0851 208.578 69.9209C207.409 68.7567 205.826 68.103 204.177 68.103Z" fill="white"/>
<path d="M138.454 68.04L135.934 71.8516C135.934 71.8516 129.722 74.7118 129.401 75.4552C129.079 76.1986 128.103 78.687 129.401 78.813C130.698 78.939 137.641 75.8331 138.428 75.663C139.216 75.4929 138.428 74.1069 138.428 74.1069L141.692 69.5898L138.454 68.04Z" fill="#FFB573"/>
<path d="M149.34 34.2026C145.56 38.3102 144.558 54.9548 142.939 57.7898C141.32 60.6248 136.456 70.352 136.456 70.352L140.583 71.8829C140.583 71.8829 146.486 63.8882 149.201 58.7789C151.917 53.6696 152.597 45.4229 153.662 43.2431C154.726 41.0633 149.34 34.2026 149.34 34.2026Z" fill="#2196F3"/>
<path d="M138.567 140.603L133.773 141.107L131.801 130.763L136.589 130.252L138.567 140.603Z" fill="#FFB573"/>
<path d="M161.291 141.536L156.604 141.353L155.52 130.53L160.214 130.712L161.291 141.536Z" fill="#FFB573"/>
<path d="M132.91 137.05H138.611C138.704 137.052 138.793 137.084 138.865 137.143C138.937 137.201 138.987 137.281 139.008 137.371L139.934 141.555C139.953 141.644 139.955 141.736 139.938 141.825C139.922 141.915 139.888 142 139.838 142.076C139.788 142.152 139.723 142.218 139.648 142.269C139.573 142.32 139.488 142.356 139.399 142.374C139.348 142.38 139.298 142.38 139.247 142.374C137.401 142.374 136.06 142.235 133.741 142.235C132.317 142.235 128.014 142.38 126.043 142.38C124.071 142.38 123.812 140.433 124.619 140.257C128.241 139.469 130.963 138.367 132.122 137.34C132.336 137.143 132.619 137.039 132.91 137.05Z" fill="#263238"/>
<path d="M132.582 137.699C132.605 137.696 132.627 137.685 132.643 137.668C132.659 137.651 132.669 137.628 132.67 137.605C132.673 137.583 132.669 137.561 132.658 137.542C132.648 137.523 132.633 137.507 132.614 137.497C132.45 137.39 130.931 136.458 130.415 136.729C130.356 136.756 130.307 136.8 130.272 136.855C130.238 136.909 130.219 136.973 130.22 137.038C130.201 137.149 130.213 137.263 130.254 137.369C130.295 137.474 130.364 137.566 130.453 137.636C130.716 137.817 131.035 137.902 131.354 137.875C131.768 137.864 132.181 137.805 132.582 137.699ZM132.261 137.548C131.713 137.73 131.118 137.7 130.591 137.466C130.535 137.416 130.493 137.353 130.466 137.283C130.44 137.213 130.431 137.137 130.44 137.063C130.44 136.975 130.484 136.93 130.516 136.93C130.558 136.907 130.606 136.897 130.654 136.899C131.219 137.014 131.758 137.234 132.242 137.548H132.261Z" fill="#2196F3"/>
<path d="M132.614 137.724C132.632 137.714 132.647 137.7 132.657 137.682C132.667 137.664 132.671 137.644 132.67 137.623C132.67 137.56 132.551 136.206 132.009 135.733C131.945 135.678 131.869 135.636 131.788 135.613C131.706 135.589 131.62 135.583 131.536 135.595C131.452 135.593 131.37 135.621 131.304 135.674C131.238 135.727 131.193 135.802 131.177 135.884C131.083 136.382 132.015 137.415 132.5 137.674H132.557C132.562 137.686 132.57 137.697 132.579 137.705C132.589 137.714 132.601 137.72 132.614 137.724ZM131.864 135.897C132.193 136.319 132.386 136.831 132.418 137.365C131.933 137.006 131.335 136.218 131.398 135.916C131.398 135.885 131.398 135.803 131.555 135.803H131.612C131.704 135.804 131.793 135.838 131.864 135.897Z" fill="#2196F3"/>
<path d="M156.012 136.905H161.713C161.806 136.908 161.895 136.942 161.967 137.001C162.039 137.061 162.089 137.142 162.11 137.233L163.036 141.41C163.055 141.499 163.057 141.591 163.04 141.68C163.024 141.77 162.99 141.855 162.94 141.931C162.89 142.007 162.825 142.073 162.75 142.124C162.675 142.175 162.59 142.211 162.501 142.229H162.349C160.503 142.197 159.162 142.084 156.843 142.084C155.419 142.084 151.116 142.229 149.145 142.229C147.173 142.229 146.914 140.288 147.721 140.106C151.343 139.318 154.065 138.216 155.224 137.189C155.441 136.997 155.723 136.896 156.012 136.905Z" fill="#263238"/>
<path d="M155.684 137.56C155.707 137.556 155.727 137.544 155.743 137.527C155.759 137.51 155.769 137.489 155.772 137.466C155.775 137.444 155.77 137.421 155.76 137.401C155.75 137.381 155.735 137.364 155.716 137.353C155.552 137.245 154.034 136.319 153.517 136.584C153.459 136.612 153.41 136.656 153.375 136.71C153.341 136.765 153.322 136.828 153.322 136.893C153.303 137.004 153.315 137.119 153.356 137.224C153.397 137.329 153.466 137.421 153.555 137.491C153.819 137.672 154.137 137.757 154.456 137.731C154.87 137.719 155.282 137.662 155.684 137.56ZM155.363 137.403C154.816 137.588 154.219 137.559 153.693 137.321C153.638 137.271 153.595 137.208 153.568 137.138C153.542 137.068 153.533 136.992 153.542 136.918C153.542 136.83 153.586 136.786 153.618 136.786C153.663 136.774 153.711 136.774 153.756 136.786C154.327 136.885 154.873 137.095 155.363 137.403Z" fill="#2196F3"/>
<path d="M155.716 137.579C155.734 137.57 155.749 137.555 155.759 137.537C155.769 137.519 155.773 137.499 155.772 137.478C155.772 137.415 155.653 136.067 155.142 135.626C155.079 135.569 155.003 135.527 154.922 135.502C154.84 135.477 154.754 135.47 154.67 135.481C154.585 135.48 154.503 135.508 154.438 135.561C154.372 135.614 154.327 135.688 154.311 135.771C154.216 136.269 155.149 137.302 155.634 137.567H155.69C155.698 137.573 155.706 137.577 155.716 137.579ZM154.966 135.752C155.295 136.177 155.488 136.69 155.52 137.226C155.035 136.861 154.437 136.08 154.5 135.771C154.5 135.771 154.5 135.658 154.657 135.658H154.714C154.806 135.659 154.895 135.693 154.966 135.752Z" fill="#2196F3"/>
<path opacity="0.2" d="M136.589 130.252L131.801 130.763L132.821 136.099L137.609 135.595L136.589 130.252Z" fill="black"/>
<path opacity="0.2" d="M160.214 130.719L155.52 130.536L156.081 136.118L160.774 136.3L160.214 130.719Z" fill="black"/>
<path d="M186.894 61.135C186.894 61.135 197.604 93.8257 174.483 93.8257C151.362 93.8257 149.51 84.8104 151.463 74.2012L160.913 73.3444C160.913 73.3444 162.173 66.4837 161.266 61.009L186.894 61.135Z" fill="#263238"/>
<path d="M131.404 135.318L139.317 134.177C139.317 134.177 132.204 101.417 134.705 97.7949C136.816 94.7709 149.126 94.8906 163.244 94.185L171.541 93.7692C189.944 92.8053 151.469 74.1321 151.469 74.1321C151.469 74.1321 126.824 75.1653 120.398 83.6451C114.488 91.413 131.404 135.318 131.404 135.318Z" fill="#263238"/>
<path opacity="0.2" d="M139.398 134.297L139.317 134.177C139.317 134.177 132.204 101.417 134.705 97.795C136.815 94.771 149.126 94.8907 163.244 94.1851L164.901 89.3467L154.361 77.0806C154.361 77.0806 137.175 77.8429 132.67 86.8582C128.166 95.8735 139.398 134.297 139.398 134.297Z" fill="black"/>
<path d="M142.322 83.645C145.925 78.8948 155.243 76.4819 162.74 75.2786L173.576 93.8195C162.236 94.2857 157.436 96.0497 157.196 97.1018C155.974 102.142 163.074 134.694 163.074 134.694H154.827C154.827 134.694 135.89 92.1248 142.322 83.645Z" fill="#263238"/>
<path d="M174.691 31.248C174.691 31.248 157.958 25.0803 149.34 34.2027C149.34 34.2027 160.05 61.7841 160.888 66.0366L189.414 64.9152C189.414 64.9152 182.711 45.2403 174.691 31.248Z" fill="#2196F3"/>
<path opacity="0.6" d="M149.34 34.2027C149.34 34.2027 152.9 43.3692 156.075 51.9435C157.694 56.322 159.225 60.5493 160.113 63.3276C160.504 64.5498 160.781 65.4885 160.888 66.0366L189.414 64.9152C189.414 64.9152 188.261 61.5384 186.346 56.5866C185.647 54.7848 184.847 52.7751 183.965 50.6394C181.272 43.9924 178.175 37.5165 174.691 31.248C174.691 31.248 157.958 25.0803 149.34 34.2027Z" fill="white"/>
<path opacity="0.6" d="M156.075 51.9434C157.694 56.3219 159.225 60.5492 160.113 63.3275L162.186 58.3253L170.124 62.9873L173.57 57.0842L184.185 62.1242L186.346 56.5865C185.647 54.7847 184.847 52.775 183.965 50.6393L177.703 47.6216L173.57 54.6713L164.372 49.373L162.003 56.5046L156.075 51.9434Z" fill="white"/>
<path d="M156.642 34.7129C162.028 38.7323 165.657 30.0699 165.657 30.0699C164.607 29.8427 163.602 29.4425 162.683 28.8854C161.877 28.3247 160.869 26.2079 159.76 22.5854H152.591C154.141 24.8408 156.371 28.6083 156.862 31.7331C157.063 32.7278 156.987 33.7587 156.642 34.7129Z" fill="#FFB573"/>
<path d="M164.901 29.2822C164.901 29.2822 162.595 33.3457 159.118 35.3428C159.118 35.3428 156.824 32.7661 156.484 30.1201C156.484 30.1201 153.964 34.2718 156.188 41.227L159.118 36.6028L162.482 40.2505C162.482 40.2505 170.917 32.6527 164.901 29.2822Z" fill="#2196F3"/>
<path d="M162.047 69.3188L159.559 73.0988C159.559 73.0988 153.341 75.9654 153.026 76.7088C152.711 77.4522 151.721 79.9406 153.026 80.0666C154.33 80.1926 161.26 77.0867 162.047 76.9166C162.835 76.7465 162.047 75.3605 162.047 75.3605L165.317 70.8183L162.047 69.3188Z" fill="#FFB573"/>
<path d="M174.691 31.248C169.16 30.4479 168.158 56.2338 166.533 59.0625C164.907 61.8912 160.056 71.6625 160.056 71.6625L164.183 73.143C164.183 73.143 170.855 64.8585 173.57 59.7492C176.285 54.6399 179.108 45.1773 179.24 40.0491C179.328 37.5606 178.062 31.7394 174.691 31.248Z" fill="#2196F3"/>
<path opacity="0.2" d="M152.585 22.5225C154.134 24.7779 156.365 28.5453 156.856 31.6701C157.937 30.427 158.752 28.9759 159.252 27.406C159.751 25.8361 159.924 24.1806 159.76 22.5414L152.585 22.5225Z" fill="black"/>
<path d="M146.996 11.0564C146.996 11.0564 144.722 17.6273 147.828 20.8907C150.934 24.1541 153.265 11.5667 153.265 11.5667L146.996 11.0564Z" fill="#263238"/>
<path d="M157.265 28.1926C156.308 29.1693 155.056 29.804 153.702 29.9987C152.349 30.1934 150.968 29.9373 149.775 29.2699C148.214 28.4406 147.027 27.0487 146.455 25.3765C146.379 25.1434 146.31 24.9103 146.253 24.6646C145.245 20.2042 146.02 12.871 150.89 10.9684C151.715 10.6389 152.596 10.4754 153.484 10.4872C154.372 10.4989 155.249 10.6857 156.065 11.0368C156.881 11.3879 157.619 11.8965 158.238 12.5333C158.857 13.1702 159.344 13.9229 159.672 14.7484C160.072 15.734 160.23 16.8013 160.132 17.8606C159.779 22.7872 159.804 25.7041 157.265 28.1926Z" fill="#FFB573"/>
<path d="M152.61 19.1393C152.61 19.5362 152.389 19.8638 152.125 19.8575C151.86 19.8512 151.652 19.5236 151.658 19.1204C151.665 18.7172 151.879 18.3959 152.144 18.4022C152.408 18.4085 152.616 18.7298 152.61 19.1393Z" fill="#263238"/>
<path d="M148.061 19.0765C148.061 19.4797 147.834 19.801 147.57 19.801C147.305 19.801 147.103 19.4608 147.103 19.0639C147.103 18.667 147.33 18.3394 147.589 18.3394C147.847 18.3394 148.061 18.6985 148.061 19.0765Z" fill="#263238"/>
<path d="M149.504 19.2969C149.007 20.5207 148.344 21.6698 147.532 22.7115C147.807 22.9129 148.122 23.0522 148.456 23.1196C148.79 23.1871 149.135 23.1811 149.466 23.1021L149.504 19.2969Z" fill="#DC5753"/>
<path d="M151.488 16.5752C151.526 16.5553 151.568 16.5449 151.611 16.5449C151.654 16.5449 151.696 16.5553 151.734 16.5752C151.966 16.7586 152.238 16.885 152.528 16.9441C152.818 17.0032 153.118 16.9933 153.403 16.9154C153.432 16.9043 153.463 16.8991 153.494 16.9002C153.525 16.9012 153.556 16.9083 153.584 16.9212C153.612 16.9341 153.637 16.9525 153.658 16.9753C153.679 16.9981 153.695 17.0248 153.706 17.054C153.717 17.0829 153.722 17.1137 153.721 17.1447C153.72 17.1757 153.713 17.2061 153.7 17.2342C153.687 17.2624 153.669 17.2877 153.646 17.3087C153.623 17.3296 153.596 17.3459 153.567 17.3564C153.208 17.4643 152.829 17.4845 152.461 17.4155C152.092 17.3464 151.746 17.19 151.45 16.9595C151.425 16.9419 151.403 16.9194 151.387 16.8933C151.37 16.8672 151.359 16.8381 151.353 16.8076C151.348 16.7771 151.349 16.7458 151.356 16.7157C151.363 16.6855 151.376 16.657 151.394 16.6319C151.423 16.6098 151.455 16.5909 151.488 16.5752Z" fill="#263238"/>
<path d="M153.17 23.9022C152.593 23.8252 152.006 23.8874 151.458 24.0836C150.91 24.2797 150.417 24.6042 150.02 25.0299C149.997 25.0534 149.984 25.0851 149.984 25.1181C149.984 25.151 149.997 25.1827 150.02 25.2063C150.031 25.2175 150.045 25.2264 150.059 25.2325C150.074 25.2386 150.09 25.2417 150.105 25.2417C150.121 25.2417 150.137 25.2386 150.151 25.2325C150.166 25.2264 150.179 25.2175 150.19 25.2063C150.565 24.818 151.024 24.5221 151.533 24.3417C152.041 24.1613 152.585 24.1014 153.12 24.1668C153.152 24.1705 153.183 24.1622 153.209 24.1436C153.235 24.1249 153.252 24.0972 153.259 24.066C153.261 24.0502 153.261 24.0341 153.257 24.0185C153.253 24.003 153.247 23.9883 153.237 23.9754C153.228 23.9625 153.216 23.9516 153.202 23.9433C153.189 23.9351 153.174 23.9297 153.158 23.9274L153.17 23.9022Z" fill="#263238"/>
<path d="M148.496 16.3421C148.542 16.3489 148.586 16.3685 148.622 16.3988C148.64 16.4245 148.653 16.4534 148.66 16.4841C148.667 16.5148 148.668 16.5465 148.663 16.5775C148.657 16.6085 148.646 16.6382 148.629 16.6648C148.613 16.6915 148.591 16.7145 148.565 16.7327C148.261 16.9542 147.909 17.0995 147.537 17.1565C147.166 17.2136 146.786 17.1805 146.429 17.0603C146.372 17.0353 146.327 16.9894 146.302 16.9321C146.278 16.8748 146.276 16.8103 146.297 16.7516C146.322 16.6961 146.367 16.6522 146.423 16.6288C146.48 16.6054 146.543 16.6043 146.599 16.6256C146.884 16.7137 147.185 16.7334 147.478 16.683C147.772 16.6326 148.049 16.5137 148.288 16.3358C148.321 16.322 148.357 16.3154 148.393 16.3165C148.428 16.3176 148.464 16.3263 148.496 16.3421Z" fill="#263238"/>
<path d="M160.314 23.9336L159.162 23.8958C159.401 22.535 159.357 21.3758 159.017 21.2372C158.355 21.0041 158.267 21.7979 158.267 21.7979C156.931 20.582 156.068 17.6777 156.881 15.8885C157.049 15.5165 157.071 15.0949 156.943 14.7073C156.815 14.3198 156.545 13.9948 156.188 13.7969L156.585 11.6423C156.585 11.6423 160.888 10.7162 162.148 12.6629C163.408 14.6096 162.545 17.5958 161.272 21.5459C161.009 22.3631 160.689 23.161 160.314 23.9336Z" fill="#263238"/>
<path d="M162.236 21.9366C161.958 22.4876 161.574 22.9782 161.106 23.3804C160.638 23.7826 160.095 24.0883 159.508 24.2802C157.94 24.7842 157.095 23.3919 157.473 21.8736C157.826 20.5317 159.055 18.6039 160.661 18.774C162.268 18.9441 162.917 20.5632 162.236 21.9366Z" fill="#FFB573"/>
<path d="M160.699 12.3982C160.699 12.3982 161.732 9.75223 158.658 7.71733C157.144 6.73924 155.392 6.19196 153.591 6.13424C151.789 6.07652 150.006 6.51056 148.433 7.38974C145.491 9.14114 144.35 12.9904 144.35 12.9904C144.685 12.8249 145.057 12.7468 145.43 12.7634C145.804 12.7799 146.167 12.8905 146.486 13.0849L146.07 14.4205C146.809 13.8276 147.714 13.4797 148.659 13.4251L147.664 14.6851C150.428 13.8862 153.312 13.5854 156.182 13.7968L160.699 12.3982Z" fill="#263238"/>
<path d="M76.1101 100.158L81.2887 113.123L84.3757 120.847H88.1179L85.6546 111.731L81.6352 96.8501L76.1101 100.158Z" fill="#FFB573"/>
<path opacity="0.2" d="M76.11 100.158L81.2886 113.123L85.6545 111.731L81.6351 96.8501L76.11 100.158Z" fill="black"/>
<path d="M59.6041 111.712L57.6574 125.534L56.4982 133.768L59.749 135.633L62.1367 126.498L66.0427 111.586L59.6041 111.712Z" fill="#FFB573"/>
<path opacity="0.2" d="M59.6041 111.712L57.6574 125.534L62.1367 126.498L66.0427 111.586L59.6041 111.712Z" fill="black"/>
<path d="M65.8287 39.0791L83.2671 38.72L68.0904 55.9883L51.7734 54.9047L65.8287 39.0791Z" fill="#2196F3"/>
<path opacity="0.3" d="M65.8287 39.0791L83.2671 38.72L68.0904 55.9883L51.7734 54.9047L65.8287 39.0791Z" fill="white"/>
<path d="M66.2192 40.9626L79.676 40.6917L67.958 54.0162L55.3643 53.1783L66.2192 40.9626Z" fill="white"/>
<path d="M64.3551 30.1465L68.8687 43.1443L68.333 43.3303L63.8194 30.3325L64.3551 30.1465Z" fill="#263238"/>
<path d="M68.9658 44.3334L68.3358 43.3191C68.3989 43.2411 68.4823 43.1822 68.5768 43.1488C68.6714 43.1154 68.7733 43.109 68.8713 43.1301L68.9658 44.3334Z" fill="#2196F3"/>
<path d="M68.8333 44.0877C68.8333 44.0182 68.9028 44.0056 68.9596 44.0435L68.9912 44.334L68.8333 44.0877Z" fill="#263238"/>
<path d="M56.9959 45.228L60.6184 41.1141C60.7318 40.662 60.8966 40.2245 61.1098 39.81C61.4815 39.0603 64.8898 36.9435 66.112 36.5088C67.3342 36.0741 70.8937 39.3753 70.5787 39.873C70.2637 40.3707 65.7215 43.3191 64.6631 43.2435L63.6046 43.1742L59.4907 48.2835L56.9959 45.228Z" fill="#FFB573"/>
<path d="M44.4842 13.8726C44.9307 13.8676 45.3657 13.7306 45.7345 13.4788C46.1032 13.227 46.3891 12.8717 46.5563 12.4577C46.7234 12.0436 46.7643 11.5893 46.6737 11.1521C46.583 10.7149 46.3651 10.3143 46.0471 10.0008C45.7292 9.68722 45.3256 9.4748 44.8872 9.39027C44.4487 9.30573 43.9951 9.35287 43.5834 9.52573C43.1717 9.6986 42.8204 9.98945 42.5737 10.3616C42.3271 10.7338 42.1961 11.1707 42.1973 11.6172C42.199 11.9156 42.2595 12.2107 42.3754 12.4857C42.4913 12.7606 42.6603 13.01 42.8727 13.2195C43.0852 13.429 43.3369 13.5946 43.6134 13.7066C43.8899 13.8187 44.1859 13.8751 44.4842 13.8726ZM44.4842 9.94773C44.8152 9.94398 45.1398 10.0387 45.4168 10.2199C45.6938 10.401 45.9108 10.6604 46.04 10.9651C46.1693 11.2698 46.2051 11.6061 46.1428 11.9312C46.0805 12.2563 45.923 12.5555 45.6903 12.7909C45.4576 13.0263 45.1602 13.1872 44.8358 13.2531C44.5115 13.3191 44.1748 13.2872 43.8687 13.1614C43.5625 13.0356 43.3006 12.8216 43.1163 12.5467C42.932 12.2717 42.8336 11.9482 42.8336 11.6172C42.8319 11.3991 42.8734 11.1828 42.9555 10.9807C43.0376 10.7787 43.1588 10.5948 43.3122 10.4397C43.4656 10.2846 43.648 10.1613 43.8492 10.0769C44.0503 9.99243 44.2661 9.94855 44.4842 9.94773Z" fill="#263238"/>
<path d="M36.2878 21.2501C36.9846 21.4939 37.7118 21.6402 38.4487 21.6848C39.9481 21.6848 41.1324 21.5021 42.0648 20.8532C44.169 19.3916 44.9314 16.1597 44.9881 12.1592C45.0763 6.94278 43.5832 4.10778 38.1715 3.67308C29.194 2.95488 27.2788 18.6356 36.2878 21.2501Z" fill="#FFB573"/>
<path opacity="0.2" d="M33.9757 18.8372C35.2103 20.1394 36.7465 21.1174 38.4487 21.6848C39.9481 21.6848 41.1325 21.5084 42.0649 20.8595C39.3559 18.7994 33.9757 18.8372 33.9757 18.8372Z" fill="black"/>
<path d="M41.8256 6.39479C41.8256 6.39479 44.585 11.6238 39.8789 14.5848C39.8789 14.5848 36.6596 19.5618 31.4684 18.894C26.2772 18.2262 23.1965 10.704 26.63 4.12049C29.906 -2.12911 40.9499 1.32329 40.9499 1.32329C45.6749 -0.66751 47.5964 5.04659 44.0999 6.82949C43.4027 6.45956 42.6102 6.30808 41.8256 6.39479Z" fill="#2E353A"/>
<path d="M41.7752 13.0285C41.7915 12.7144 41.7435 12.4003 41.6343 12.1054C41.525 11.8105 41.3567 11.541 41.1397 11.3134C40.9227 11.0857 40.6615 10.9048 40.3721 10.7815C40.0828 10.6583 39.7713 10.5954 39.4568 10.5967C37.7495 10.6786 36.5651 14.2192 40.6538 15.3595C41.246 15.5233 41.6429 14.9311 41.7752 13.0285Z" fill="#FFB573"/>
<path d="M45.0259 4.03208C45.0259 4.03208 45.5551 6.55208 41.8003 10.5967C39.3593 13.12 36.4316 15.1218 33.1945 16.4809L34.0009 0.365479L42.8524 0.907279L45.0259 4.03208Z" fill="#2E353A"/>
<path d="M41.7752 11.189H46.4939V11.8127H41.7752V11.189Z" fill="#263238"/>
<path d="M36.754 30.0826C32.8102 30.5362 27.682 27.7201 27.682 27.7201C31.4053 25.3324 31.9723 18.8371 31.9723 18.8371C35.5822 17.4385 38.3668 20.7271 38.3668 20.7271C38.0937 21.5028 37.883 22.2992 37.7368 23.1085C37.1068 26.5798 38.8015 26.8885 38.8015 26.8885C39.5512 28.8919 37.7557 29.9692 36.754 30.0826Z" fill="#FFB573"/>
<path d="M39.8284 26.0065L38.0266 23.2975C34.8451 20.8531 30.4099 21.7162 30.4099 21.7162L27.9277 26.0695C27.9277 26.0695 36.2059 26.4097 39.8284 26.0065Z" fill="#2196F3"/>
<path d="M41.0128 50.3624C45.8323 49.4489 50.2927 48.0818 50.2927 48.0818L51.5527 51.131C48.1239 52.7376 44.5998 54.1325 41.0002 55.3079L41.0128 50.3624Z" fill="#FFB573"/>
<path d="M19.7629 35.8976C19.8007 31.1663 21.256 30.0071 21.256 30.0071L23.9146 36.7733L23.1397 55.3142C23.1397 55.3142 19.7314 40.6352 19.7629 35.8976Z" fill="#2196F3"/>
<path d="M22.346 55.1756C21.3506 55.4339 23.2847 39.2177 21.2309 29.9756C21.2309 29.9756 22.787 27.2855 28.8602 25.5656C35.9162 23.5748 44.648 26.9894 47.3129 27.9974C47.3129 27.9974 49.1336 42.9536 43.3628 56.6372C43.388 56.6813 35.702 56.5049 22.346 55.1756Z" fill="#2196F3"/>
<path opacity="0.2" d="M22.346 55.1756C21.6278 55.2953 23.102 39.0854 21.2309 29.9756C21.2309 29.9756 22.787 27.2855 28.8602 25.5656C35.9162 23.5748 44.648 26.9894 47.3129 27.9974C47.3129 27.9974 49.1336 42.9536 43.3628 56.6372C43.388 56.6813 35.702 56.5049 22.346 55.1756Z" fill="black"/>
<path d="M49.5179 48.3151C49.5179 48.3151 54.5579 46.1479 56.3408 45.688C58.1237 45.2281 58.2308 50.8162 57.4685 51.6415C56.7062 52.4668 49.9085 52.4416 49.4297 51.6415C48.9509 50.8414 49.5179 48.3151 49.5179 48.3151Z" fill="#FFB573"/>
<path d="M95.1802 126.309C94.5403 126.036 93.8585 125.874 93.1642 125.83C93.1642 125.83 90.745 124.507 88.3447 119.36H85.6483C85.2046 119.357 84.7702 119.488 84.4017 119.735C84.0332 119.982 83.7475 120.334 83.5819 120.746C83.5375 120.857 83.512 120.974 83.5063 121.093C83.5327 121.699 83.6 122.303 83.7079 122.901C84.1078 124.9 84.636 126.872 85.2892 128.804L85.7428 128.697L84.9112 124.948C84.634 123.688 86.0704 124.904 86.7382 126.208C87.406 127.512 88.4266 128.785 91.4002 128.149C94.8715 127.355 96.2701 126.889 95.1802 126.309Z" fill="#2E353A"/>
<path d="M83.5064 120.79C82.9961 119.574 82.3472 117.401 82.3472 117.401L88.118 116.651C88.118 116.651 88.118 119.291 89.189 121.023C86.1713 121.023 83.5064 120.79 83.5064 120.79Z" fill="#2E353A"/>
<path d="M32.5142 17.4387C32.2316 16.243 31.5492 15.1797 30.58 14.4248C29.6107 13.6698 28.4128 13.2684 27.1843 13.287C22.6231 13.1358 23.3665 17.067 22.0876 17.8797C20.8087 18.6924 20.0213 18.0813 19.0637 19.3161C18.1061 20.5509 19.5928 21.981 19.5424 23.2158C19.492 24.4506 17.8415 24.7026 17.8415 26.3658C17.8415 28.029 19.7315 28.1928 20.4434 30.2214C21.1553 32.25 19.8637 32.4075 19.8637 33.5856C19.8637 34.7637 20.2859 35.5071 21.8798 35.4756C21.8798 35.4756 20.563 34.7826 21.4324 33.9951C22.3018 33.2076 24.551 32.4642 25.181 30.8829C25.811 29.3016 22.9948 27.5691 25.5904 25.8933C28.186 24.2175 29.572 25.3452 30.5296 22.0377C31.4872 18.7302 32.5142 17.4387 32.5142 17.4387Z" fill="#2E353A"/>
<path d="M47.3379 28.0415C41.3403 30.6308 43.0791 54.0857 49.0389 55.6418C54.9987 57.1979 62.5713 45.6626 62.5713 45.6626L59.0181 42.1724C59.0181 42.1724 53.3481 47.4644 52.1637 47.351C50.9793 47.2376 50.2107 35.9417 49.8831 33.5414C49.2279 28.7156 47.3379 28.0415 47.3379 28.0415Z" fill="#2196F3"/>
<path d="M22.346 55.1754C22.346 55.1754 41.876 52.5735 43.3628 56.6811C43.6463 57.4812 43.9928 62.1873 44.1881 63.5229C44.3834 64.8585 44.5661 65.835 44.5661 65.835C45.1961 65.6901 62.2439 60.9777 69.974 65.835C75.5747 69.363 81.944 94.4118 85.4783 109.57L80.0981 111.46C74.006 98.2801 64.5623 78.5799 62.4581 78.498C59.2766 78.372 26.8568 92.2446 18.7298 84.5523C10.6028 76.86 22.346 55.1754 22.346 55.1754Z" fill="#2196F3"/>
<g opacity="0.6">
<path opacity="0.6" d="M22.346 55.1754C22.346 55.1754 41.876 52.5735 43.3628 56.6811C43.6463 57.4812 43.9928 62.1873 44.1881 63.5229C44.3834 64.8585 44.5661 65.835 44.5661 65.835C45.1961 65.6901 62.2439 60.9777 69.974 65.835C75.5747 69.363 81.944 94.4118 85.4783 109.57L80.0981 111.46C74.006 98.2801 64.5623 78.5799 62.4581 78.498C59.2766 78.372 26.8568 92.2446 18.7298 84.5523C10.6028 76.86 22.346 55.1754 22.346 55.1754Z" fill="white"/>
</g>
<path d="M66.0805 141.523C65.5342 141.103 64.9178 140.783 64.2598 140.578C64.2598 140.578 62.2879 138.726 61.3807 133.176L58.7788 132.546C58.3427 132.439 57.8849 132.462 57.4617 132.612C57.0386 132.762 56.6685 133.032 56.3974 133.39C56.3225 133.484 56.265 133.591 56.2273 133.705C56.0883 134.298 55.9894 134.9 55.9312 135.507C55.7653 137.529 55.7338 139.56 55.8367 141.586H56.3092L56.5297 137.769C56.6116 136.471 57.6637 138.002 57.9535 139.4C58.2433 140.799 58.8796 142.292 61.9351 142.387C65.4946 142.443 66.9751 142.342 66.0805 141.523Z" fill="#2E353A"/>
<path d="M56.3029 133.409C56.1454 132.111 56.1139 129.856 56.1139 129.856L61.9036 130.486C61.9036 130.486 61.1791 133.044 61.7335 134.971C58.8229 134.253 56.3029 133.409 56.3029 133.409Z" fill="#2E353A"/>
<path d="M57.5063 122.542C59.2451 106.596 61.469 90.2541 61.6076 89.1516C61.0091 89.3973 40.9499 86.5497 31.9976 86.1402C31.9976 86.1402 46.79 83.658 54.8792 80.0292C56.9834 79.0842 62.8739 76.0476 62.8739 76.0476C62.8739 76.0476 74.8124 76.6398 74.9762 82.7193C75.077 86.7576 68.2604 109.179 63.6677 123.795L57.5063 122.542Z" fill="#2196F3"/>
<g opacity="0.5">
<path opacity="0.5" d="M57.5063 122.542C59.2451 106.596 61.469 90.2541 61.6076 89.1516C61.0091 89.3973 40.9499 86.5497 31.9976 86.1402C31.9976 86.1402 46.79 83.658 54.8792 80.0292C56.9834 79.0842 62.8739 76.0476 62.8739 76.0476C62.8739 76.0476 74.8124 76.6398 74.9762 82.7193C75.077 86.7576 68.2604 109.179 63.6677 123.795L57.5063 122.542Z" fill="white"/>
</g>
<path d="M42.4241 90.9531L42.2162 99.9117L41.2712 141.813H38.159L37.2203 99.9117L37.0124 90.9531H42.4241Z" fill="#263238"/>
<path opacity="0.1" d="M42.4241 90.9531L42.2162 99.9117L41.2712 141.813H38.159L37.2203 99.9117L37.0124 90.9531H42.4241Z" fill="white"/>
<path opacity="0.2" d="M42.4241 90.9531L42.2162 100.157H37.2203L37.0124 90.9531H42.4241Z" fill="black"/>
<path d="M32.7222 90.9531L32.5143 99.9117L31.5693 141.813H28.4571L27.5184 99.9117L27.3105 90.9531H32.7222Z" fill="#263238"/>
<path opacity="0.2" d="M32.7222 90.9531L32.5143 99.9117L31.5693 141.813H28.4571L27.5184 99.9117L27.3105 90.9531H32.7222Z" fill="white"/>
<path opacity="0.2" d="M32.7222 90.9531L32.5143 100.157H27.5184L27.3105 90.9531H32.7222Z" fill="black"/>
<path d="M59.3269 141.668L56.4541 91.5833H51.7543L55.7737 141.668H59.3269Z" fill="#263238"/>
<path opacity="0.2" d="M55.7673 141.668H59.3206L56.7123 95.9555L56.4541 91.5266H51.7543L52.1134 95.9555L55.7673 141.668Z" fill="white"/>
<path opacity="0.2" d="M51.7543 91.5266L52.1134 96.1319H56.7124L56.4541 91.5266H51.7543Z" fill="black"/>
<path d="M12.978 141.668L17.0037 91.5833H12.3039L9.42476 141.668H12.978Z" fill="#263238"/>
<path opacity="0.1" d="M12.9842 141.668L16.6382 95.9555L16.9973 91.5266H12.2975L12.0392 95.9555L9.43101 141.668H12.9842Z" fill="white"/>
<path opacity="0.2" d="M16.9973 91.5266L16.6382 96.1319H12.0392L12.2975 91.5266H16.9973Z" fill="black"/>
<path d="M9.78369 93.2717H58.9741V89.6933C58.9741 88.8579 58.6422 88.0567 58.0515 87.466C57.4608 86.8752 56.6595 86.5433 55.8241 86.5433H12.9337C12.0983 86.5433 11.2971 86.8752 10.7063 87.466C10.1156 88.0567 9.78369 88.8579 9.78369 89.6933V93.2717Z" fill="#2196F3"/>
<path d="M59.5476 93.2717H9.20429C8.50494 93.2717 7.93799 92.7048 7.93799 92.0054V91.1738C7.93799 90.4745 8.50494 89.9075 9.20429 89.9075H59.5476C60.2469 89.9075 60.8139 90.4745 60.8139 91.1738V92.0054C60.8139 92.7048 60.2469 93.2717 59.5476 93.2717Z" fill="#263238"/>
<path opacity="0.4" d="M59.5476 93.2717H9.20429C8.50494 93.2717 7.93799 92.7048 7.93799 92.0054V91.1738C7.93799 90.4745 8.50494 89.9075 9.20429 89.9075H59.5476C60.2469 89.9075 60.8139 90.4745 60.8139 91.1738V92.0054C60.8139 92.7048 60.2469 93.2717 59.5476 93.2717Z" fill="white"/>
<path d="M37.0124 52.3533L35.3493 38.8838C35.3493 38.0985 35.0373 37.3454 34.482 36.7901C33.9267 36.2348 33.1736 35.9229 32.3882 35.9229H28.4255L30.0888 55.3143H34.0514C34.4405 55.3151 34.8259 55.2391 35.1855 55.0905C35.5452 54.942 35.8719 54.724 36.147 54.4489C36.4222 54.1737 36.6402 53.847 36.7887 53.4874C36.9373 53.1277 37.0133 52.7423 37.0124 52.3533Z" fill="#2196F3"/>
<path d="M33.3458 90.0586L26.2836 38.4868L29.8808 37.9954L37.0125 90.0712L33.3458 90.0586Z" fill="#263238"/>
<path d="M10.8233 90.0712L3.75474 38.4868L7.35835 37.9954L14.4836 90.0712H10.8233Z" fill="#263238"/>
<g opacity="0.2">
<path opacity="0.2" d="M33.3458 90.0586L26.2836 38.4868L29.8808 37.9954L37.0125 90.0712L33.3458 90.0586Z" fill="white"/>
</g>
<g opacity="0.2">
<path opacity="0.2" d="M10.8233 90.0712L3.75474 38.4868L7.35835 37.9954L14.4836 90.0712H10.8233Z" fill="white"/>
</g>
<path d="M34.9207 55.6416H2.58276L-0.000240326 35.4753H32.3377L34.9207 55.6416Z" fill="#263238"/>
<path opacity="0.6" d="M34.9207 55.6416H2.58276L-0.000240326 35.4753H32.3377L34.9207 55.6416Z" fill="white"/>
<path d="M92.614 1.32275H89.2605V9.66603H90.4831V7.14496H92.6023C94.838 7.14496 96.1887 6.04835 96.1887 4.23951C96.1887 2.41936 94.838 1.32275 92.614 1.32275ZM92.579 6.10487H90.4831V2.36284H92.5674C94.1393 2.36284 94.9544 3.04115 94.9544 4.2282C94.9661 5.42656 94.1393 6.10487 92.579 6.10487Z" fill="#00325A"/>
<path d="M110.266 1.32275H109.044V9.66603H110.266V1.32275Z" fill="#00325A"/>
<path d="M119.314 7.54064L114.155 1.32275H113.154V9.66603H114.377V3.44814L119.535 9.66603H120.536V1.32275H119.314V7.54064Z" fill="#00325A"/>
<path d="M122.178 1.32275V2.36284H125.124V9.66603H126.335V2.36284H129.281V1.32275H122.178Z" fill="#00325A"/>
<path d="M97.4695 5.42653C97.4695 7.7328 99.3092 9.75644 101.661 10.0617V8.95377C100.276 8.71636 99.1229 7.71019 98.7387 6.38748L98.6921 6.2179L98.8435 6.30834C99.0181 6.42139 99.2277 6.48922 99.4373 6.48922C100.031 6.48922 100.532 6.0031 100.532 5.42653C100.532 4.84996 100.031 4.36384 99.4373 4.36384C99.2277 4.36384 99.0181 4.42036 98.8435 4.54472L98.6921 4.63516L98.7387 4.46559C99.1346 3.14287 100.276 2.13671 101.661 1.8993V0.791382C99.3092 1.09662 97.4695 3.12026 97.4695 5.42653Z" fill="#2F99EF"/>
<path d="M102.919 0.791382V1.8993C104.316 2.13671 105.457 3.14287 105.842 4.46559L105.888 4.63516L105.737 4.53342C105.55 4.42036 105.341 4.35253 105.131 4.35253C104.537 4.35253 104.037 4.83866 104.037 5.41523C104.037 5.99179 104.537 6.47792 105.131 6.47792C105.341 6.47792 105.55 6.41009 105.737 6.29703L105.888 6.19529L105.842 6.36487C105.457 7.68758 104.305 8.69375 102.919 8.93116V10.0617C105.271 9.75644 107.111 7.7328 107.111 5.42653C107.111 3.12026 105.283 1.09662 102.919 0.791382Z" fill="#2F99EF"/>
</svg>
