<svg width="264" height="43" viewBox="0 0 264 43" fill="none" xmlns="http://www.w3.org/2000/svg">
<path d="M2.17749 1.45752C4.98693 4.63466 7.92757 7.97746 12.5111 10.1685C17.9408 12.7639 23.9804 14.676 30.3817 15.9019C51.7581 19.9956 73.8996 18.8764 95.8439 19.3546C116.825 19.8118 137.802 19.703 158.794 19.703C166.63 19.703 174.429 19.7244 182.258 19.9247C191.998 20.174 201.581 21.2572 211.291 21.8411C217.459 22.2121 223.677 22.5161 229.731 23.4408C232.788 23.9078 236.286 25.5245 238.974 26.5609C242.346 27.861 244.898 29.7318 248.17 31.1064C250.61 32.1311 253.108 33.155 255.162 34.5275C258.142 36.5188 260.248 39.3289 261.988 41.6546" stroke="white" stroke-width="2.665" stroke-linecap="round" stroke-dasharray="5.33 5.33"/>
</svg>
