<svg width="18" height="15" viewBox="0 0 18 15" fill="none" xmlns="http://www.w3.org/2000/svg">
<mask id="path-1-inside-1_1_37" fill="white">
<path d="M0.400299 5.01602V10.7646H3.59398L8.70388 14.5971V1.18359L3.59398 5.01602H0.400299Z"/>
</mask>
<path d="M0.400299 5.01602V-3.15982C-4.11509 -3.15982 -7.77554 0.500626 -7.77554 5.01602H0.400299ZM0.400299 10.7646H-7.77554C-7.77554 15.28 -4.11509 18.9405 0.400299 18.9405L0.400299 10.7646ZM3.59398 10.7646L8.49949 4.22398C7.08428 3.16258 5.36299 2.58881 3.59398 2.58881V10.7646ZM8.70388 14.5971L3.79838 21.1377C6.2758 22.9958 9.59038 23.2947 12.3602 21.9098C15.1301 20.5248 16.8797 17.6938 16.8797 14.5971H8.70388ZM8.70388 1.18359H16.8797C16.8797 -1.91318 15.1301 -4.74417 12.3602 -6.1291C9.59038 -7.51402 6.2758 -7.21514 3.79838 -5.35707L8.70388 1.18359ZM3.59398 5.01602V13.1919C5.36299 13.1919 7.08428 12.6181 8.49949 11.5567L3.59398 5.01602ZM-7.77554 5.01602V10.7646H8.57613V5.01602H-7.77554ZM0.400299 18.9405H3.59398V2.58881H0.400299V18.9405ZM-1.31152 17.3053L3.79838 21.1377L13.6094 8.0564L8.49949 4.22398L-1.31152 17.3053ZM16.8797 14.5971V1.18359H0.528045V14.5971H16.8797ZM3.79838 -5.35707L-1.31152 -1.52465L8.49949 11.5567L13.6094 7.72426L3.79838 -5.35707ZM3.59398 -3.15982H0.400299V13.1919H3.59398V-3.15982Z" fill="white" mask="url(#path-1-inside-1_1_37)"/>
<path d="M13.175 1.82239C15.7299 3.09986 17.0074 5.01607 17.0074 7.89039C17.0074 10.7647 15.7299 12.6809 13.175 13.9584M11.8975 5.65481C11.8975 5.65481 13.175 6.29355 13.175 7.89039C13.175 9.48723 11.8975 10.126 11.8975 10.126V5.65481Z" stroke="white" stroke-width="1.91621" stroke-linecap="round" stroke-linejoin="round"/>
</svg>
