<svg width="73" height="73" viewBox="0 0 73 73" fill="none" xmlns="http://www.w3.org/2000/svg">
<g clip-path="url(#clip0_74_8666)">
<path d="M26.0501 15.4483C26.0501 15.4483 23.9243 14.9389 23.6112 12.8188C24.6997 11.2793 25.1678 9.38592 24.9221 7.51651C24.6764 5.6471 23.7349 3.93904 22.2855 2.73308C20.8361 1.52712 18.9854 0.911914 17.1024 1.01019C15.2195 1.10847 13.4428 1.91301 12.1269 3.26331C10.8109 4.61361 10.0524 6.4104 10.0026 8.29523C9.95285 10.1801 10.6155 12.0144 11.8584 13.4322C13.1012 14.8501 14.833 15.7473 16.7081 15.9448C18.5832 16.1423 20.4639 15.6256 21.9749 14.4978C22.5056 15.0086 23.1644 15.3665 23.8817 15.5338C24.599 15.7011 25.3482 15.6716 26.0501 15.4483Z" fill="#2196F3"/>
<path d="M41.7776 71.3712C41.7378 71.3708 41.6984 71.3625 41.6617 71.3468C41.6251 71.3312 41.5919 71.3084 41.5641 71.2798C41.5363 71.2512 41.5145 71.2174 41.4999 71.1803C41.4852 71.1433 41.4781 71.1037 41.4788 71.0638V51.1773C41.4788 51.0985 41.5101 51.0228 41.5659 50.967C41.6217 50.9113 41.6973 50.8799 41.7762 50.8799C41.8551 50.8799 41.9307 50.9113 41.9865 50.967C42.0423 51.0228 42.0736 51.0985 42.0736 51.1773V71.0638C42.0743 71.1034 42.0673 71.1428 42.0528 71.1797C42.0383 71.2166 42.0168 71.2503 41.9893 71.2788C41.9618 71.3073 41.929 71.3302 41.8926 71.346C41.8563 71.3619 41.8172 71.3704 41.7776 71.3712Z" fill="#455A64"/>
<path d="M53.5827 64.1342C53.5203 64.1373 53.4586 64.1197 53.4072 64.0842C53.3558 64.0487 53.3174 63.9973 53.2981 63.9379L47.4557 48.5051C47.4262 48.4295 47.4273 48.3454 47.4586 48.2705C47.4899 48.1957 47.5491 48.1359 47.6236 48.1038C47.66 48.088 47.6994 48.08 47.7391 48.0803C47.7788 48.0806 47.818 48.0892 47.8542 48.1055C47.8903 48.1219 47.9227 48.1456 47.9492 48.1752C47.9756 48.2048 47.9956 48.2396 48.0078 48.2774L53.8588 63.7102C53.8883 63.7858 53.8872 63.8699 53.8559 63.9448C53.8246 64.0196 53.7654 64.0794 53.6909 64.1115C53.6571 64.1274 53.6201 64.1352 53.5827 64.1342Z" fill="#455A64"/>
<path d="M52.8793 62.2817C52.8382 62.2817 52.7975 62.2728 52.7602 62.2556C52.7229 62.2384 52.6897 62.2134 52.663 62.1821L41.7778 50.1671L30.9097 62.1195C30.883 62.1484 30.8507 62.1714 30.8147 62.1872C30.7787 62.203 30.7398 62.2111 30.7005 62.2111C30.6612 62.2111 30.6223 62.203 30.5863 62.1872C30.5503 62.1714 30.518 62.1484 30.4913 62.1195C30.4353 62.0603 30.4041 61.9819 30.4041 61.9004C30.4041 61.8189 30.4353 61.7405 30.4913 61.6813L41.5729 49.487C41.6004 49.457 41.6338 49.4329 41.671 49.4163C41.7082 49.3996 41.7484 49.3908 41.7892 49.3902C41.8298 49.3906 41.8699 49.3997 41.9067 49.4169C41.9435 49.4341 41.9762 49.459 42.0026 49.4898L53.1012 61.7268C53.156 61.7866 53.1864 61.8648 53.1864 61.9459C53.1864 62.027 53.156 62.1052 53.1012 62.165C53.0756 62.2002 53.0423 62.2289 53.0038 62.2491C52.9653 62.2694 52.9227 62.2805 52.8793 62.2817Z" fill="#455A64"/>
<path d="M29.9731 64.1342C29.9349 64.1349 29.897 64.1272 29.8621 64.1115C29.7881 64.0789 29.7296 64.0189 29.6988 63.9441C29.6681 63.8693 29.6674 63.7855 29.6971 63.7102L35.5481 48.2774C35.5603 48.2396 35.5802 48.2048 35.6067 48.1752C35.6332 48.1456 35.6655 48.1219 35.7017 48.1055C35.7379 48.0892 35.7771 48.0806 35.8168 48.0803C35.8565 48.08 35.8958 48.088 35.9322 48.1038C36.0063 48.1364 36.0648 48.1964 36.0956 48.2712C36.1263 48.346 36.127 48.4298 36.0973 48.5051L30.2492 63.9379C30.2281 63.9945 30.1905 64.0435 30.1413 64.0785C30.0921 64.1135 30.0335 64.1329 29.9731 64.1342Z" fill="#455A64"/>
<path d="M53.178 61.8035L53.9521 63.9321C53.955 63.95 53.955 63.9683 53.9521 63.9862C53.9549 63.9984 53.9549 64.011 53.9521 64.0232C53.9325 64.0806 53.8918 64.1284 53.8382 64.1569C53.7656 64.1961 53.6845 64.2165 53.602 64.2165C53.5196 64.2165 53.4384 64.1961 53.3658 64.1569C53.3248 64.1354 53.2926 64.1001 53.2748 64.0573V64.0289L52.5576 62.0368L53.178 61.8035Z" fill="#2196F3"/>
<path d="M30.3809 61.8035L29.6097 63.9321C29.6067 63.95 29.6067 63.9683 29.6097 63.9862V64.0232C29.6304 64.0808 29.6721 64.1285 29.7263 64.1569C29.7984 64.1961 29.8791 64.2165 29.9611 64.2165C30.0431 64.2165 30.1238 64.1961 30.1959 64.1569C30.2375 64.1353 30.2706 64.1002 30.2898 64.0573V64.0289L31.0069 62.0368L30.3809 61.8035Z" fill="#2196F3"/>
<path d="M42.1198 69.5184V71.2771C42.1173 71.3079 42.1068 71.3375 42.0893 71.363C42.0719 71.3885 42.048 71.4089 42.0202 71.4222C41.9455 71.4614 41.8625 71.4818 41.7783 71.4818C41.694 71.4818 41.611 71.4614 41.5364 71.4222C41.5082 71.4094 41.484 71.3891 41.4664 71.3635C41.4489 71.3379 41.4386 71.3081 41.4368 71.2771V69.5184C41.541 69.4595 41.6586 69.4286 41.7783 69.4286C41.8979 69.4286 42.0156 69.4595 42.1198 69.5184Z" fill="#2196F3"/>
<path d="M55.0456 48.2946C55.0456 47.7425 54.5789 47.1563 53.5971 46.4847C51.7758 45.2553 46.2862 42.3412 43.7392 40.8727C43.7388 40.8673 43.7366 40.8622 43.733 40.8581C43.7294 40.854 43.7246 40.8512 43.7193 40.85C41.7614 39.6121 41.3601 34.1567 40.0055 29.6745C39.5445 28.1463 38.9782 27.2812 38.2981 26.8742C38.1387 26.7803 37.5525 26.4417 37.4215 26.3591C36.0926 25.5282 34.3452 26.527 32.171 27.7678C30.179 28.9061 28.6024 30.3717 28.2894 34.2534C28.0958 36.6183 28.2894 41.1346 28.739 44.5552C29.4049 50.2724 30.2245 50.2838 31.4112 51.24C33.4573 52.8877 38.0618 55.2014 40.0027 55.9982C43.5229 57.441 46.4001 55.2156 48.5401 54.1114C50.5139 53.0709 52.4154 51.8986 54.2317 50.6025C54.7667 50.1956 55.0456 49.7858 55.0399 49.3532C55.0428 49.1768 55.0456 48.4739 55.0456 48.2946Z" fill="#2196F3"/>
<path opacity="0.2" d="M55.0456 48.2946C55.0456 47.7425 54.5789 47.1563 53.5971 46.4847C51.7758 45.2553 46.2862 42.3412 43.7392 40.8727C43.7388 40.8673 43.7366 40.8622 43.733 40.8581C43.7294 40.854 43.7246 40.8512 43.7193 40.85C41.7614 39.6121 41.3601 34.1567 40.0055 29.6745C39.5445 28.1463 38.9782 27.2812 38.2981 26.8742C38.1387 26.7803 37.5525 26.4417 37.4215 26.3591C36.0926 25.5282 34.3452 26.527 32.171 27.7678C30.179 28.9061 28.6024 30.3717 28.2894 34.2534C28.0958 36.6183 28.2894 41.1346 28.739 44.5552C29.4049 50.2724 30.2245 50.2838 31.4112 51.24C33.4573 52.8877 38.0618 55.2014 40.0027 55.9982C43.5229 57.441 46.4001 55.2156 48.5401 54.1114C50.5139 53.0709 52.4154 51.8986 54.2317 50.6025C54.7667 50.1956 55.0456 49.7858 55.0399 49.3532C55.0428 49.1768 55.0456 48.4739 55.0456 48.2946Z" fill="black"/>
<path d="M48.5545 53.0442C50.5284 52.0037 52.4299 50.8314 54.2461 49.5353C55.4641 48.6133 55.3531 47.6685 53.6058 46.4846C51.1556 44.8426 42.3336 40.0673 42.3336 40.0673C42.3336 40.0673 30.0198 47.6059 30.5576 49.0288C31.0955 50.4517 37.5697 53.9349 40.0114 54.9366C43.5317 56.3738 46.4088 54.1512 48.5545 53.0442Z" fill="#2196F3"/>
<g opacity="0.05">
<path opacity="0.05" d="M48.5533 53.0441C50.5271 52.0036 52.4286 50.8313 54.2449 49.5352C55.4629 48.6132 55.3519 47.6684 53.6046 46.4845C51.1544 44.8425 42.3324 40.0672 42.3324 40.0672C42.3324 40.0672 30.0186 47.6058 30.5564 49.0287C31.0943 50.4516 37.5685 53.9348 40.0102 54.9366C43.5304 56.3737 46.4076 54.1511 48.5533 53.0441Z" fill="black"/>
</g>
<path d="M38.2291 26.8314C36.9115 26.1114 35.1984 27.0903 33.0811 28.2998C31.7236 29.0767 30.5654 29.9931 29.8653 31.7148L28.9575 31.1712C29.6604 29.4637 30.8158 28.5417 32.1676 27.7563C34.3418 26.5155 36.0891 25.5195 37.4181 26.3476L38.2291 26.8314Z" fill="#2196F3"/>
<path opacity="0.6" d="M38.2291 26.8314C36.9115 26.1114 35.1984 27.0903 33.0811 28.2998C31.7236 29.0767 30.5654 29.9931 29.8653 31.7148L28.9575 31.1712C29.6604 29.4637 30.8158 28.5417 32.1676 27.7563C34.3418 26.5155 36.0891 25.5195 37.4181 26.3476L38.2291 26.8314Z" fill="white"/>
<path d="M33.0786 28.2971C36.3342 26.4416 38.6336 25.124 40.0053 29.6773C41.3599 34.1595 41.7611 39.6149 43.719 40.8528C43.719 40.8528 44.513 40.739 39.641 44.5751C38.09 45.7959 36.226 46.7948 34.9739 47.5632C32.5549 49.0658 31.0865 49.6691 30.8531 49.467C29.5754 48.3629 28.881 38.6701 29.1969 34.7884C29.5128 30.9067 31.0751 29.4411 33.0786 28.2971Z" fill="#2196F3"/>
<path d="M41.5842 42.9617C41.2255 43.714 40.8037 44.4347 40.3235 45.1159L40.6906 45.4204C40.6906 45.4204 41.5842 44.1911 41.5842 42.9617Z" fill="#263238"/>
<path d="M48.9842 63.7898C48.9842 63.7898 49.2489 66.8604 49.7099 67.8649C50.2012 69.0045 50.83 70.0797 51.5825 71.0665C51.7674 71.3027 52.1886 71.7438 52.3366 71.9344C52.3725 71.9721 52.3996 72.0173 52.416 72.0667C52.4324 72.1161 52.4377 72.1686 52.4314 72.2202C52.4251 72.2719 52.4075 72.3216 52.3798 72.3656C52.3521 72.4097 52.315 72.4471 52.2711 72.4752C51.8557 72.8337 50.1652 72.8366 49.2574 72.0796C48.3496 71.3226 47.6239 70.116 47.0918 69.5184L46.3889 68.7187C46.3021 68.6194 46.2427 68.4992 46.2162 68.3701C46.1898 68.2409 46.1973 68.107 46.238 67.9816C46.2608 67.9114 46.2864 67.8261 46.3149 67.7255C46.5824 66.8262 46.1384 64.2166 46.1384 64.2166C47.0121 63.1352 47.9711 63.5422 48.9842 63.7898Z" fill="#FFB573"/>
<path d="M46.1174 68.9095C46.0855 69.0626 46.0933 69.2213 46.1401 69.3705C46.2198 69.5839 46.7918 69.9909 47.0878 70.1559C47.4272 70.3627 47.6938 70.6701 47.8505 71.0353C48.1834 71.7416 48.7156 72.3351 49.3815 72.7428C50.2914 73.1865 51.3143 73.3442 52.3155 73.1953C53.5592 73.0359 53.6958 72.3131 53.6958 72.3131C53.6958 72.3131 53.7954 71.6329 53.4937 71.5106C53.192 71.3882 46.1174 68.9095 46.1174 68.9095Z" fill="#263238"/>
<path d="M46.2204 66.7977C46.2199 66.9078 46.2075 67.0175 46.1834 67.125C46.1294 67.4636 46.0867 67.6742 46.044 68.0613C46.0064 68.3478 46.0317 68.6392 46.118 68.915C46.4566 69.4358 47.3075 69.6464 47.7686 70.3578C48.2296 71.0693 48.7646 72.1592 50.3639 72.5633C51.9633 72.9674 53.2097 72.5121 53.5342 72.0681C53.8586 71.6242 53.6053 71.1774 52.6007 70.5656C51.5307 69.9167 50.3042 68.2662 50.3042 68.2662C50.1818 68.1011 50.0765 67.9161 49.9684 67.7397C49.8293 67.5473 49.7217 67.3341 49.6496 67.1079C49.5905 66.8678 49.5637 66.6209 49.5699 66.3737C49.5756 66.3542 49.5756 66.3335 49.5699 66.3139C49.554 66.2998 49.5342 66.2909 49.513 66.2883C48.9142 66.1929 48.3006 66.2927 47.7629 66.5729C47.706 66.5972 47.6553 66.6342 47.6149 66.681C47.5863 66.724 47.5642 66.771 47.5494 66.8205L47.4157 67.2018C47.3815 67.3014 47.3331 67.4153 47.2335 67.4494C47.1339 67.4836 46.9888 67.401 46.892 67.3157C46.7953 67.2303 46.7384 67.0311 46.6331 66.9457C46.5775 66.895 46.5124 66.8558 46.4416 66.8304C46.3707 66.805 46.2956 66.7939 46.2204 66.7977Z" fill="#2196F3"/>
<path opacity="0.5" d="M46.2204 66.7977C46.2199 66.9078 46.2075 67.0175 46.1834 67.125C46.1294 67.4636 46.0867 67.6742 46.044 68.0613C46.0064 68.3478 46.0317 68.6392 46.118 68.915C46.4566 69.4358 47.3075 69.6464 47.7686 70.3578C48.2296 71.0693 48.7646 72.1592 50.3639 72.5633C51.9633 72.9674 53.2097 72.5121 53.5342 72.0681C53.8586 71.6242 53.6053 71.1774 52.6007 70.5656C51.5307 69.9167 50.3042 68.2662 50.3042 68.2662C50.1818 68.1011 50.0765 67.9161 49.9684 67.7397C49.8293 67.5473 49.7217 67.3341 49.6496 67.1079C49.5905 66.8678 49.5637 66.6209 49.5699 66.3737C49.5756 66.3542 49.5756 66.3335 49.5699 66.3139C49.554 66.2998 49.5342 66.2909 49.513 66.2883C48.9142 66.1929 48.3006 66.2927 47.7629 66.5729C47.706 66.5972 47.6553 66.6342 47.6149 66.681C47.5863 66.724 47.5642 66.771 47.5494 66.8205L47.4157 67.2018C47.3815 67.3014 47.3331 67.4153 47.2335 67.4494C47.1339 67.4836 46.9888 67.401 46.892 67.3157C46.7953 67.2303 46.7384 67.0311 46.6331 66.9457C46.5775 66.895 46.5124 66.8558 46.4416 66.8304C46.3707 66.805 46.2956 66.7939 46.2204 66.7977Z" fill="black"/>
<path d="M31.6128 40.8727C31.3282 42.2302 30.7306 46.1375 32.1335 47.8877C33.0499 49.026 33.6674 49.6805 36.4705 51.0835C39.083 52.3897 43.9493 54.4985 43.9493 54.4985C43.8269 55.5856 43.5566 56.7922 44.3876 59.7632C44.9084 61.63 45.3865 62.7257 46.0324 64.9966C46.5817 65.3694 48.7018 65.2385 49.1628 64.6466C49.1628 63.2578 48.827 52.6942 48.2095 51.3112C47.5919 49.9281 40.2412 45.6736 40.2412 45.6736C40.2412 45.6736 39.6066 43.4197 40.0022 41.7692L31.6128 40.8727Z" fill="#455A64"/>
<path d="M56.1952 60.6965C56.1952 60.6965 56.5281 63.8725 56.9436 64.8969C57.3837 66.0569 57.9638 67.1588 58.671 68.1782C58.8446 68.4229 59.2402 68.8811 59.3882 69.0803C59.4219 69.1196 59.4465 69.1659 59.4603 69.2158C59.4741 69.2657 59.4768 69.3181 59.4681 69.3691C59.4594 69.4202 59.4396 69.4687 59.41 69.5113C59.3805 69.5538 59.3419 69.5893 59.2971 69.6153C58.8645 69.9568 57.177 69.8828 56.3033 69.086C55.4296 68.2891 54.758 67.0512 54.2543 66.4308C53.9982 66.1178 53.762 65.8218 53.5884 65.6027C53.5057 65.4993 53.4513 65.3763 53.4303 65.2457C53.4094 65.115 53.4227 64.9811 53.4689 64.8571C53.4945 64.786 53.5258 64.7034 53.5599 64.6038C53.8645 63.7188 53.0676 61.2572 53.0676 61.2572C54.0011 60.2213 55.1934 60.412 56.1952 60.6965Z" fill="#FFB573"/>
<path d="M53.3095 65.7847C53.2705 65.9359 53.2705 66.0945 53.3095 66.2457C53.3806 66.462 53.9327 66.8946 54.223 67.0738C54.5522 67.2954 54.8047 67.6136 54.9458 67.9845C55.2464 68.7029 55.7523 69.3166 56.4 69.7489C57.2878 70.2341 58.3022 70.4376 59.3084 70.3323C60.5606 70.2298 60.7313 69.5127 60.7313 69.5127C60.7313 69.5127 60.8622 68.8382 60.5663 68.7016C60.2703 68.565 53.3095 65.7847 53.3095 65.7847Z" fill="#263238"/>
<path d="M53.5057 63.679C53.4999 63.7896 53.4827 63.8993 53.4545 64.0063C53.3833 64.3393 53.3321 64.5499 53.2752 64.934C53.2234 65.2176 53.235 65.5092 53.3093 65.7878C53.6252 66.3228 54.4647 66.5704 54.8916 67.3017C55.3185 68.0331 55.8079 69.1487 57.3874 69.6211C58.9668 70.0935 60.2332 69.7008 60.5775 69.271C60.9218 68.8413 60.6885 68.3832 59.7095 67.7258C58.6708 67.0314 57.5211 65.3268 57.5211 65.3268C57.4044 65.156 57.3077 64.9682 57.2081 64.7861C57.0802 64.5868 56.9842 64.3689 56.9235 64.1401C56.8742 63.8977 56.8589 63.6496 56.878 63.403C56.8849 63.3837 56.8849 63.3625 56.878 63.3432C56.8712 63.3354 56.8629 63.3291 56.8536 63.3247C56.8443 63.3203 56.8342 63.3179 56.8239 63.3176C56.2303 63.1924 55.6121 63.2633 55.0623 63.5197C55.0039 63.5415 54.9513 63.5766 54.9087 63.6221C54.8783 63.6628 54.8543 63.7079 54.8375 63.7559C54.7891 63.8811 54.7379 64.0063 54.6867 64.1315C54.6355 64.2567 54.5985 64.3393 54.496 64.3706C54.3936 64.4019 54.2513 64.3108 54.1602 64.2197C54.0692 64.1287 54.0179 63.9352 53.9183 63.8412C53.8073 63.7352 53.6592 63.677 53.5057 63.679Z" fill="#2196F3"/>
<path opacity="0.5" d="M53.5057 63.679C53.4999 63.7896 53.4827 63.8993 53.4545 64.0063C53.3833 64.3393 53.3321 64.5499 53.2752 64.934C53.2234 65.2176 53.235 65.5092 53.3093 65.7878C53.6252 66.3228 54.4647 66.5704 54.8916 67.3017C55.3185 68.0331 55.8079 69.1487 57.3874 69.6211C58.9668 70.0935 60.2332 69.7008 60.5775 69.271C60.9218 68.8413 60.6885 68.3832 59.7095 67.7258C58.6708 67.0314 57.5211 65.3268 57.5211 65.3268C57.4044 65.156 57.3077 64.9682 57.2081 64.7861C57.0802 64.5868 56.9842 64.3689 56.9235 64.1401C56.8742 63.8977 56.8589 63.6496 56.878 63.403C56.8849 63.3837 56.8849 63.3625 56.878 63.3432C56.8712 63.3354 56.8629 63.3291 56.8536 63.3247C56.8443 63.3203 56.8342 63.3179 56.8239 63.3176C56.2303 63.1924 55.6121 63.2633 55.0623 63.5197C55.0039 63.5415 54.9513 63.5766 54.9087 63.6221C54.8783 63.6628 54.8543 63.7079 54.8375 63.7559C54.7891 63.8811 54.7379 64.0063 54.6867 64.1315C54.6355 64.2567 54.5985 64.3393 54.496 64.3706C54.3936 64.4019 54.2513 64.3108 54.1602 64.2197C54.0692 64.1287 54.0179 63.9352 53.9183 63.8412C53.8073 63.7352 53.6592 63.677 53.5057 63.679Z" fill="black"/>
<path d="M31.8348 41.8034C31.5502 43.4568 39.3079 46.7892 39.3079 46.7892C40.3587 47.3311 41.4368 47.8184 42.5379 48.2491C45.7223 49.5411 51.5647 51.1974 51.5647 51.1974C51.3509 52.1224 51.318 53.08 51.468 54.0175C51.6416 55.0961 51.7156 55.4035 52.2734 57.8907C52.6974 59.7803 52.8425 60.654 53.2125 61.9886C53.9125 62.111 55.7737 62.0541 56.3429 61.5988C56.2347 60.0279 56.5961 49.7289 55.9672 48.3373C54.8801 45.9326 43.2351 40.4971 43.2351 40.4971L31.8348 41.8034Z" fill="#455A64"/>
<path d="M46.3175 49.5695L40.2417 45.6821C40.2417 45.6821 42.7574 44.4499 43.1928 42.2302C43.1894 42.899 43.0388 43.5588 42.7515 44.1628C42.4643 44.7668 42.0475 45.3001 41.5308 45.7248L46.3175 49.5695Z" fill="#37474F"/>
<path d="M57.0914 24.5691C56.9849 24.2024 56.7824 23.8708 56.5047 23.6086C56.227 23.3464 55.8843 23.1632 55.512 23.0779C55.4035 23.0474 55.2874 23.0597 55.1876 23.1121C55.104 23.1864 55.0479 23.2866 55.0282 23.3967C54.8632 23.9971 54.6754 24.5891 54.4591 25.1724C54.3604 25.4629 54.2464 25.7479 54.1176 26.0262C54.0806 26.0945 53.833 26.3961 53.8159 26.4274C53.8444 26.1154 53.8348 25.801 53.7875 25.4912C53.771 25.3514 53.7004 25.2236 53.5908 25.1353C53.4812 25.047 53.3413 25.0051 53.2012 25.0188C53.0789 25.0415 53.15 25.3375 53.0106 25.8184C52.8341 26.436 52.6292 26.8372 52.6093 27.5259C52.6007 27.7857 52.4998 28.0339 52.3247 28.226C51.4881 29.1423 49.1773 30.9893 47.5608 32.0764C46.6331 31.2226 45.5688 29.6489 44.2739 28.0581C42.6917 26.0945 41.7127 25.4314 39.4873 25.4798L40.0565 29.2989C41.5164 31.0974 42.8169 32.2983 45.6684 35.2295C46.3286 35.9097 46.8266 36.18 47.2734 36.2199C47.8739 36.2739 48.4402 35.7901 48.9809 35.3234C50.2188 34.279 51.4454 33.1948 52.6008 32.0621C54.1802 30.5169 56.2349 28.6073 56.9264 26.7803C57.2231 26.0815 57.2811 25.3043 57.0914 24.5691Z" fill="#FFB573"/>
<path d="M39.1147 25.4939C39.9249 25.4031 40.7449 25.4678 41.5308 25.6846C42.2878 25.9379 42.9196 26.342 44.2343 27.9157C45.5491 29.4894 47.0232 31.3876 47.0232 31.3876C47.0232 31.3876 46.8468 33.1207 44.462 34.3557L39.3766 29.498L39.1147 25.4939Z" fill="#2196F3"/>
<path opacity="0.3" d="M39.1147 25.4939C39.9249 25.4031 40.7449 25.4678 41.5308 25.6846C42.2878 25.9379 42.9196 26.342 44.2343 27.9157C45.5491 29.4894 47.0232 31.3876 47.0232 31.3876C47.0232 31.3876 46.8468 33.1207 44.462 34.3557L39.3766 29.498L39.1147 25.4939Z" fill="black"/>
<path d="M35.5491 25.6417C35.5491 25.6417 32.8598 26.006 32.1341 26.4015L30.8535 32.8074L31.7386 37.762L31.1922 43.3369C32.8797 45.1696 42.4729 44.5321 43.5088 40.6362C43.5088 40.6362 43.0136 31.7146 42.9055 29.845C42.786 27.8358 41.3602 25.6901 39.3369 25.4795L35.5491 25.6417Z" fill="#F0F0F0"/>
<path d="M42.4584 18.1681C43.2567 17.2774 43.1818 15.9082 42.2912 15.1099C41.4005 14.3116 40.0313 14.3865 39.233 15.2771C38.4347 16.1678 38.5096 17.537 39.4003 18.3353C40.2909 19.1336 41.6601 19.0587 42.4584 18.1681Z" fill="#263238"/>
<path d="M32.6877 16.3874C32.866 16.1981 33.0987 16.0688 33.3536 16.0175L32.4828 15.5565C32.5225 15.4704 32.5793 15.3934 32.6497 15.33C32.7202 15.2666 32.8028 15.2183 32.8926 15.1879C32.9823 15.1576 33.0773 15.1458 33.1718 15.1534C33.2662 15.161 33.3581 15.1877 33.4419 15.232C33.6053 15.3232 33.7294 15.4714 33.7904 15.6484C33.8513 15.8254 33.8447 16.0186 33.772 16.1911L34.0964 19.5633L34.381 19.532L34.5119 21.4956L34.5574 23.3824C33.7691 23.3824 33.1744 22.3437 32.7105 19.7085C32.3348 17.725 32.2324 16.8712 32.6877 16.3874Z" fill="#263238"/>
<path d="M34.4415 19.868C34.2309 19.996 33.9293 19.5834 33.6674 19.3244C33.4056 19.0655 32.5604 18.6898 32.1421 19.5806C31.7238 20.4713 32.4267 21.6182 33.0357 21.9682C33.824 22.4207 34.3789 22.0792 34.3789 22.0792V26.2767C34.3789 26.2767 35.17 27.6342 37.33 27.7594C39.3818 27.8789 39.0375 26.5869 38.3573 25.7673V24.5066C38.7104 24.5926 39.0704 24.6468 39.433 24.6689C40.3209 24.7002 41.0779 24.5152 41.5788 22.8561C41.9558 21.504 42.1143 20.1004 42.0483 18.6984C42.0509 17.8064 41.9824 16.9157 41.8434 16.0347C41.4507 13.6499 37.6203 13.8889 35.6396 15.1525C33.6589 16.416 34.4415 19.868 34.4415 19.868Z" fill="#FFB573"/>
<path d="M33.6668 19.3241C33.3025 18.9969 33.7522 16.0059 33.7522 16.0059C33.7522 16.0059 33.3794 14.8676 34.0908 14.1192C34.8023 13.3707 36.1939 13.4845 37.2212 13.4419C38.4683 13.441 39.702 13.1853 40.8468 12.6906C42.2839 12.0559 42.392 11.982 42.5742 12.6137C42.6868 12.9819 42.7255 13.3688 42.688 13.752C42.6711 14.096 42.6302 14.4383 42.5656 14.7765C42.4558 15.2059 42.2473 15.6038 41.9565 15.9383C41.6658 16.2729 41.301 16.5349 40.8911 16.7035C40.4812 16.8721 40.0375 16.9426 39.5956 16.9095C39.1536 16.8763 38.7254 16.7404 38.3453 16.5125C38.2242 16.7301 38.0416 16.9071 37.8205 17.0215C37.5993 17.1359 37.3492 17.1826 37.1017 17.1556C36.6085 17.0998 36.1315 16.9459 35.6987 16.7031C35.6987 17.8842 35.2434 19.0111 34.788 20.101C34.5433 20.6958 33.8489 19.4863 33.6668 19.3241Z" fill="#263238"/>
<path d="M38.3486 24.5067C38.3486 24.5067 36.4618 24.1396 35.8016 23.7924C35.4119 23.5939 35.0922 23.2812 34.8853 22.896C34.9859 23.2817 35.164 23.6429 35.4089 23.9575C35.8927 24.5693 38.3514 25.0076 38.3514 25.0076L38.3486 24.5067Z" fill="#F28F8F"/>
<path d="M38.1024 19.717C38.1039 19.7705 38.0948 19.8237 38.0758 19.8736C38.0567 19.9236 38.028 19.9693 37.9913 20.0082C37.9545 20.047 37.9105 20.0782 37.8617 20.1001C37.8129 20.1219 37.7602 20.1339 37.7068 20.1354C37.5983 20.1331 37.4951 20.0883 37.4195 20.0105C37.3439 19.9327 37.3019 19.8283 37.3027 19.7199C37.298 19.6645 37.3049 19.6088 37.3229 19.5563C37.3408 19.5037 37.3695 19.4555 37.4071 19.4146C37.4447 19.3737 37.4903 19.341 37.5412 19.3187C37.592 19.2964 37.647 19.2849 37.7025 19.2849C37.7581 19.2849 37.813 19.2964 37.8639 19.3187C37.9147 19.341 37.9604 19.3737 37.998 19.4146C38.0355 19.4555 38.0642 19.5037 38.0822 19.5563C38.1002 19.6088 38.107 19.6645 38.1024 19.7199V19.717Z" fill="#263238"/>
<path d="M37.6183 18.1489L36.7646 18.6242C36.7032 18.5077 36.6891 18.372 36.7251 18.2454C36.7612 18.1187 36.8446 18.0108 36.9581 17.944C37.0144 17.9122 37.0767 17.8923 37.1411 17.8854C37.2055 17.8786 37.2705 17.8849 37.3324 17.9041C37.3942 17.9233 37.4514 17.9549 37.5006 17.997C37.5498 18.0391 37.5898 18.0908 37.6183 18.1489Z" fill="#263238"/>
<path d="M37.7489 22.2041L38.762 22.5769C38.7405 22.6448 38.7056 22.7076 38.6593 22.7616C38.613 22.8157 38.5563 22.8598 38.4925 22.8914C38.4288 22.9231 38.3593 22.9415 38.2882 22.9456C38.2172 22.9498 38.146 22.9396 38.079 22.9156C37.9433 22.8619 37.8333 22.7582 37.7719 22.6258C37.7104 22.4934 37.7022 22.3424 37.7489 22.2041Z" fill="#F28F8F"/>
<path d="M41.4283 18.6299L40.6458 18.0351C40.682 17.9822 40.7287 17.9371 40.7829 17.9028C40.8371 17.8685 40.8978 17.8455 40.9611 17.8354C41.0245 17.8253 41.0893 17.8282 41.1515 17.8439C41.2138 17.8597 41.2721 17.8879 41.3231 17.927C41.4275 18.0082 41.4968 18.1265 41.5164 18.2574C41.536 18.3883 41.5044 18.5217 41.4283 18.6299Z" fill="#263238"/>
<path d="M41.1956 19.6116C41.1975 19.6652 41.1888 19.7185 41.1698 19.7687C41.1509 19.8188 41.1222 19.8646 41.0854 19.9036C41.0486 19.9425 41.0044 19.9737 40.9554 19.9954C40.9064 20.0171 40.8536 20.0289 40.8001 20.03C40.6916 20.0277 40.5884 19.9829 40.5128 19.9051C40.4372 19.8273 40.3952 19.7229 40.396 19.6145C40.3913 19.5591 40.3981 19.5034 40.4161 19.4509C40.4341 19.3983 40.4628 19.3501 40.5004 19.3092C40.5379 19.2683 40.5836 19.2356 40.6345 19.2133C40.6853 19.191 40.7402 19.1794 40.7958 19.1794C40.8513 19.1794 40.9063 19.191 40.9571 19.2133C41.008 19.2356 41.0536 19.2683 41.0912 19.3092C41.1288 19.3501 41.1575 19.3983 41.1755 19.4509C41.1934 19.5034 41.2003 19.5591 41.1956 19.6145V19.6116Z" fill="#263238"/>
<path d="M39.1599 19.1563L39.305 21.5582L40.5572 21.1228L39.1599 19.1563Z" fill="#F28F8F"/>
<path d="M26.112 37.913C26.5303 35.6051 28.104 31.5128 28.7529 29.6602C29.6977 26.9994 30.8702 26.453 32.498 26.2737C33.1639 26.914 33.3859 29.5691 32.0398 32.4377C31.3995 34.0114 30.0307 38.8521 30.0307 38.8521C30.1303 39.2506 32.4809 44.0543 33.3147 45.3605C33.4733 45.5954 33.7121 45.7644 33.9863 45.8357C34.7433 46.052 35.3608 46.57 35.9784 46.9228C36.465 47.2074 36.8179 47.2074 36.798 47.3383C36.7781 47.4692 36.5618 47.8107 36.0524 47.7908C35.6927 47.7518 35.3386 47.6726 34.9966 47.5546C35.3743 48.0441 35.83 48.4681 36.3455 48.8096C37.5379 49.6121 37.555 50.3776 35.6995 50.8301C34.5384 51.1147 33.4228 50.685 31.9402 48.5734C31.4178 47.8257 30.9343 47.0516 30.4917 46.2541C29.4216 44.3161 28.3459 42.9956 27.6459 41.7008C26.2884 39.2819 25.9384 38.8009 26.112 37.913Z" fill="#FFB573"/>
<path d="M32.6177 26.1939C32.6177 26.1939 31.2602 26.0829 30.3012 26.7175C29.3422 27.3522 28.9523 28.5616 28.2892 30.326C27.6261 32.0904 26.6216 34.8452 26.6216 34.8452C26.6216 34.8452 27.8168 36.9055 30.8078 36.5526C30.8078 36.5526 32.5323 31.5213 32.8454 30.7927C33.1584 30.0642 33.48 27.6851 32.6177 26.1939Z" fill="#2196F3"/>
<path opacity="0.3" d="M32.6177 26.1939C32.6177 26.1939 31.2602 26.0829 30.3012 26.7175C29.3422 27.3522 28.9523 28.5616 28.2892 30.326C27.6261 32.0904 26.6216 34.8452 26.6216 34.8452C26.6216 34.8452 27.8168 36.9055 30.8078 36.5526C30.8078 36.5526 32.5323 31.5213 32.8454 30.7927C33.1584 30.0642 33.48 27.6851 32.6177 26.1939Z" fill="black"/>
</g>
<defs>
<clipPath id="clip0_74_8666">
<rect width="73" height="73" fill="white"/>
</clipPath>
</defs>
</svg>
