<svg width="20" height="18" viewBox="0 0 20 18" fill="none" xmlns="http://www.w3.org/2000/svg">
<path d="M18.415 1.23999C18.985 1.23999 19.415 1.73999 19.185 2.66999L16.395 15.82C16.2 16.755 15.635 16.98 14.855 16.545L8.20001 11.63C8.17421 11.6115 8.15318 11.5871 8.13868 11.5588C8.12417 11.5306 8.11661 11.4993 8.11661 11.4675C8.11661 11.4357 8.12417 11.4044 8.13868 11.3762C8.15318 11.3479 8.17421 11.3235 8.20001 11.305L15.885 4.36499C16.235 4.05499 15.81 3.90499 15.35 4.18499L5.70501 10.27C5.67576 10.2891 5.64255 10.3012 5.6079 10.3056C5.57325 10.3099 5.53806 10.3063 5.50501 10.295L1.41001 8.99999C0.500014 8.73499 0.500014 8.10999 1.61501 7.66499L18 1.34499C18.13 1.28265 18.2711 1.24695 18.415 1.23999V1.23999Z" stroke="black" stroke-width="0.5" stroke-linecap="round" stroke-linejoin="round"/>
</svg>
