<svg width="73" height="73" viewBox="0 0 73 73" fill="none" xmlns="http://www.w3.org/2000/svg">
<path d="M23.7468 14.9052C28.9813 14.0114 32.7169 10.3124 32.0904 6.64341C31.4639 2.97437 26.7126 0.724612 21.478 1.61844C16.2435 2.51226 12.5079 6.21119 13.1344 9.88023C13.7609 13.5493 18.5122 15.799 23.7468 14.9052Z" fill="#2196F3"/>
<path opacity="0.3" d="M23.7468 14.9052C28.9813 14.0114 32.7169 10.3124 32.0904 6.64341C31.4639 2.97437 26.7126 0.724612 21.478 1.61844C16.2435 2.51226 12.5079 6.21119 13.1344 9.88023C13.7609 13.5493 18.5122 15.799 23.7468 14.9052Z" fill="white"/>
<path d="M39.7324 8.46841C40.3126 9.66548 39.3843 11.2977 37.6748 12.1157C35.9652 12.9337 34.1184 12.6224 33.546 11.4253C32.9735 10.2282 33.896 8.59412 35.6036 7.77802C37.3112 6.96193 39.1523 7.27908 39.7324 8.46841Z" fill="#2196F3"/>
<path opacity="0.5" d="M39.7324 8.46841C40.3126 9.66548 39.3843 11.2977 37.6748 12.1157C35.9652 12.9337 34.1184 12.6224 33.546 11.4253C32.9735 10.2282 33.896 8.59412 35.6036 7.77802C37.3112 6.96193 39.1523 7.27908 39.7324 8.46841Z" fill="white"/>
<path d="M42.7901 13.2043C42.9564 13.9218 42.2583 14.6954 41.2333 14.9313C40.2084 15.1672 39.2434 14.7766 39.079 14.0572C38.9146 13.3378 39.6108 12.5662 40.6261 12.3302C41.6414 12.0943 42.6334 12.4849 42.7901 13.2043Z" fill="#2196F3"/>
<path opacity="0.6" d="M42.7901 13.2043C42.9564 13.9218 42.2583 14.6954 41.2333 14.9313C40.2084 15.1672 39.2434 14.7766 39.079 14.0572C38.9146 13.3378 39.6108 12.5662 40.6261 12.3302C41.6414 12.0943 42.6334 12.4849 42.7901 13.2043Z" fill="white"/>
<path d="M20.796 13.833C20.6761 13.833 20.5562 13.833 20.4382 13.8155C20.0934 13.8058 19.7604 13.6873 19.4868 13.4771C19.3284 13.3371 19.2221 13.1476 19.1851 12.9395C18.9666 12.9395 18.748 12.924 18.5276 12.9124C18.0441 12.8834 17.5432 12.8293 17.1913 12.5044C17.0857 12.4045 17.001 12.2847 16.9419 12.152C16.8828 12.0192 16.8506 11.8761 16.847 11.7308C16.6503 11.6804 16.4674 11.5866 16.3115 11.4565C16.1556 11.3264 16.0307 11.1631 15.9459 10.9786C15.8852 10.8176 15.8593 10.6456 15.87 10.474C15.8806 10.3023 15.9276 10.1348 16.0077 9.98262C15.7958 9.82104 15.6066 9.63177 15.445 9.41986C15.1024 8.95823 14.924 8.39526 14.9383 7.82055C14.8416 7.77541 14.7641 7.69724 14.7198 7.60009C14.6424 7.40671 14.7411 7.19011 14.9983 6.97932C15.0505 6.93484 15.1066 6.89036 15.1607 6.84782C15.3145 6.51304 15.5382 6.21506 15.8167 5.97389C16.0952 5.73273 16.4221 5.55397 16.7755 5.44963C17.3556 5.28332 17.9609 5.32973 18.5488 5.37614H18.5779C19.0067 5.29622 19.4401 5.24262 19.8755 5.21563C20.1193 5.15902 20.3705 5.14075 20.62 5.16148C20.8715 5.04594 21.0868 4.8641 21.2427 4.63547C21.3213 4.51222 21.3898 4.38288 21.4477 4.2487C21.5077 4.10503 21.5795 3.9666 21.6624 3.83485C22.0221 3.2953 22.7202 2.98781 23.7413 2.92013C24.9519 2.84277 25.9324 3.05163 26.6556 3.5409C26.9289 3.72367 27.1624 3.95983 27.3421 4.23516C27.7046 4.25563 28.0631 4.32058 28.4096 4.42855C28.8989 4.56972 30.038 4.99904 30.0322 5.9331C30.0103 6.22973 29.921 6.51745 29.7711 6.77433L29.3669 7.60589C29.3876 7.71158 29.396 7.8193 29.3921 7.92692C29.4692 7.95856 29.5442 7.99539 29.6164 8.03715C29.9451 8.23053 30.2855 8.5767 30.2584 9.00408C30.241 9.28256 30.065 9.55137 29.7459 9.82017C29.3423 10.1469 28.884 10.3996 28.3922 10.5666C28.2368 10.8661 28.0556 11.1514 27.8508 11.4195C27.4543 11.9378 26.7929 12.6069 25.8937 12.8486C25.325 13.0066 24.7179 12.948 24.1899 12.6842C24.0178 12.7983 23.8457 12.8989 23.6891 12.984C22.6448 13.5487 21.6798 13.833 20.796 13.833ZM19.3572 12.9395C19.3931 13.0975 19.4776 13.2402 19.5989 13.3476C19.8454 13.5346 20.1444 13.6395 20.4537 13.6473C21.3974 13.7324 22.4533 13.4539 23.5943 12.837C23.7258 12.7655 23.8689 12.6842 24.012 12.5914C23.8539 12.4891 23.7124 12.3633 23.5924 12.2182C23.5262 12.1436 23.478 12.055 23.4512 11.959C23.1979 11.9977 22.9426 12.0267 22.6873 12.048C22.2895 12.2308 21.8695 12.3608 21.438 12.4348C21.2363 12.5637 21.0194 12.667 20.7921 12.7423C20.3273 12.8836 19.8429 12.9502 19.3572 12.9395ZM19.6589 12.3439C19.552 12.3941 19.4629 12.4757 19.4036 12.5779C19.371 12.6376 19.3512 12.7035 19.3456 12.7713C19.8176 12.7798 20.2881 12.7145 20.7399 12.5779C20.8192 12.5508 20.9004 12.5199 20.9836 12.4831C20.5372 12.5174 20.0884 12.4702 19.6589 12.3439ZM17.0192 11.7831C17.0374 12.0112 17.1402 12.2243 17.3073 12.3806C17.6167 12.6668 18.0808 12.7152 18.5372 12.7423C18.7519 12.7539 18.9646 12.7655 19.1754 12.7693C19.1811 12.6736 19.2082 12.5805 19.2547 12.4966C19.3017 12.4084 19.3678 12.3318 19.4481 12.2723C19.3727 12.2433 19.2992 12.2124 19.2276 12.1776V12.2027C19.2088 12.2652 19.1744 12.3219 19.1278 12.3676C19.0811 12.4132 19.0237 12.4463 18.9608 12.4638C18.8749 12.4916 18.7836 12.4986 18.6945 12.4841C18.6054 12.4696 18.521 12.4342 18.4483 12.3806C18.2657 12.2169 18.1426 11.9972 18.0983 11.756C17.8698 11.8149 17.634 11.8403 17.3982 11.8314C17.2707 11.8262 17.1439 11.8101 17.0192 11.7831ZM24.335 12.5759C24.8072 12.7858 25.3378 12.8247 25.8357 12.6862C26.6885 12.458 27.3209 11.8159 27.7018 11.3189C27.8643 11.1058 28.0117 10.8816 28.1428 10.6479C27.9184 10.7175 27.6902 10.7774 27.4582 10.8277C27.1328 11.0993 26.7478 11.2901 26.3346 11.3847C25.9675 11.4838 25.594 11.5574 25.2168 11.6051C25.1558 11.715 25.0879 11.8209 25.0138 11.9223C24.8222 12.1736 24.5933 12.394 24.335 12.5759ZM23.6194 11.93C23.6414 11.9971 23.677 12.059 23.7239 12.1118C23.8483 12.2619 23.9982 12.3889 24.1667 12.487C24.4375 12.3048 24.6771 12.0801 24.8765 11.8217C24.9229 11.7598 24.9654 11.696 25.006 11.6283L24.6405 11.6632C24.3082 11.7804 23.9666 11.8696 23.6194 11.93ZM18.2665 11.7076C18.3027 11.9144 18.4052 12.1038 18.5585 12.2472C18.6095 12.2833 18.6682 12.3071 18.7299 12.3168C18.7916 12.3266 18.8547 12.3219 18.9143 12.3033C18.9502 12.2932 18.983 12.2746 19.0099 12.249C19.0369 12.2234 19.0572 12.1915 19.0691 12.1563C19.075 12.1368 19.0788 12.1167 19.0807 12.0963C18.9052 12.0013 18.74 11.8885 18.5875 11.7598C18.5392 11.7192 18.4928 11.6767 18.4483 11.6341C18.3825 11.6612 18.3206 11.6844 18.2665 11.7076ZM19.9838 12.2414C20.4513 12.3326 20.9313 12.3398 21.4013 12.2627C21.4683 12.2178 21.5329 12.1694 21.5947 12.1176H21.5347C21.1132 12.1389 20.678 12.1602 20.2584 12.2008C20.1635 12.2085 20.0692 12.2221 19.976 12.2414H19.9838ZM21.8596 12.1041L21.7726 12.1872C21.8867 12.1582 22.0027 12.1273 22.1149 12.0905L21.8596 12.1041ZM19.2547 11.9919C19.3876 12.0578 19.5253 12.1134 19.6666 12.1582C19.853 12.0888 20.0484 12.0465 20.2468 12.0325C20.6684 11.9919 21.1074 11.9706 21.5309 11.9513L21.7919 11.9378C21.8626 11.8596 21.9273 11.7762 21.9853 11.6883C21.1681 11.6582 20.3497 11.6796 19.5351 11.7521C19.4894 11.75 19.4438 11.7572 19.4009 11.7731C19.3581 11.7891 19.3189 11.8135 19.2856 11.8449C19.2595 11.8894 19.2461 11.9403 19.247 11.9919H19.2547ZM22.1845 11.6922C22.1348 11.7732 22.0806 11.8513 22.0221 11.9262C22.2309 11.9146 22.4398 11.901 22.6467 11.8817C22.7666 11.8275 22.8807 11.7695 22.9929 11.7057C22.7453 11.7057 22.4997 11.7057 22.2541 11.6941L22.1845 11.6922ZM18.6069 11.551L18.6958 11.6283C18.8163 11.7318 18.9458 11.8243 19.0826 11.9049C19.0884 11.8495 19.1077 11.7964 19.1387 11.7502C19.1838 11.6964 19.2404 11.6534 19.3043 11.6243C19.3682 11.5952 19.4378 11.5807 19.508 11.5819C20.362 11.5082 21.2197 11.4875 22.0762 11.52C22.1168 11.4439 22.1505 11.3643 22.1768 11.2822C21.996 11.3391 21.809 11.3735 21.6198 11.3847C20.7471 11.4628 19.8676 11.4133 19.0091 11.2377C18.8848 11.3573 18.7472 11.4624 18.5991 11.551H18.6069ZM23.3158 11.7076L23.2868 11.727L23.1089 11.8353C23.2269 11.8217 23.3429 11.8043 23.4589 11.785C23.4654 11.7584 23.4744 11.7324 23.486 11.7076H23.3158ZM23.7026 11.7076C23.6883 11.7213 23.6759 11.737 23.6659 11.754L23.9134 11.7038L23.7026 11.7076ZM17.0327 11.6109C17.1596 11.6408 17.2892 11.6583 17.4195 11.6632C17.6402 11.672 17.8611 11.6485 18.075 11.5935C18.0344 11.4137 17.9938 11.2068 17.959 10.9998L17.9242 10.9399C17.7308 10.8741 17.551 10.8045 17.3672 10.7272C17.1788 10.974 17.0636 11.2689 17.0346 11.5781C17.0346 11.5781 17.0153 11.5974 17.0153 11.609L17.0327 11.6109ZM16.1392 10.0832C16.0748 10.2112 16.0377 10.3512 16.03 10.4943C16.0223 10.6374 16.0444 10.7806 16.0948 10.9147C16.1664 11.0708 16.2711 11.2094 16.4017 11.321C16.5323 11.4325 16.6856 11.5143 16.8509 11.5607C16.8794 11.2341 16.9971 10.9217 17.1913 10.6575C17.1062 10.6208 17.025 10.5821 16.9418 10.5415C16.6618 10.4117 16.3933 10.2583 16.1392 10.0832ZM18.1775 11.3402C18.1911 11.4079 18.2065 11.4736 18.2201 11.5336L18.3129 11.4968C18.2665 11.4524 18.2201 11.4001 18.1775 11.3402ZM22.2638 11.52C22.5926 11.52 22.9252 11.5336 23.2578 11.5336C23.5993 11.3056 23.9191 11.0466 24.2131 10.76C24.0642 10.7327 23.9169 10.6965 23.7722 10.6517C23.4656 10.5599 23.1743 10.423 22.9078 10.2456C22.9045 10.4195 22.8627 10.5905 22.7855 10.7463C22.7082 10.9021 22.5974 11.0389 22.4611 11.1468L22.3798 11.201C22.3517 11.3152 22.3128 11.4266 22.2638 11.5336V11.52ZM24.4259 10.791C24.1569 11.0615 23.8665 11.3098 23.5576 11.5336H23.6156C23.7307 11.4445 23.8621 11.3788 24.0024 11.3402C24.4271 11.2098 24.86 11.1071 25.298 11.0327C25.3464 10.9147 25.3909 10.791 25.4354 10.6633C25.1169 10.7975 24.7681 10.8429 24.4259 10.7948V10.791ZM25.2168 11.2145C24.8213 11.2842 24.4306 11.3785 24.0468 11.4968L23.9675 11.5258C24.1803 11.5258 24.3911 11.5084 24.6038 11.493C24.814 11.4159 25.0183 11.3235 25.2149 11.2164L25.2168 11.2145ZM18.1582 11.0211C18.25 11.1663 18.3556 11.3022 18.4734 11.4272C18.5919 11.3613 18.7033 11.2836 18.806 11.1952C18.5875 11.1468 18.3709 11.0849 18.1582 11.0192V11.0211ZM25.3483 11.3402L25.3097 11.4214C25.6395 11.3774 25.9664 11.3128 26.2882 11.228C26.5586 11.1587 26.8187 11.0541 27.0617 10.9167C26.7485 10.9747 26.4352 11.025 26.1219 11.0753L25.6597 11.1487L25.5572 11.2184C25.4895 11.257 25.4218 11.2996 25.3483 11.3402ZM19.1503 11.0927C19.9585 11.248 20.7846 11.2897 21.6044 11.2164C21.8192 11.2073 22.0307 11.1602 22.229 11.0772C22.2692 10.8051 22.2763 10.5291 22.2503 10.2553C22.2503 10.1625 22.2503 10.0619 22.2367 9.97682C22.0914 10.1103 21.9264 10.2205 21.7475 10.3036C21.463 10.4248 21.1562 10.4849 20.8471 10.4799C20.5379 10.4749 20.2332 10.4049 19.9528 10.2746C19.8831 10.265 19.8141 10.2515 19.7459 10.234L19.6782 10.352C19.5294 10.6172 19.3524 10.8655 19.1503 11.0927ZM18.0866 10.8181C18.3719 10.9107 18.6617 10.9888 18.955 11.052C19.1805 10.8157 19.3754 10.5519 19.5351 10.2669L19.5815 10.1857C19.3883 10.1175 19.2059 10.0217 19.04 9.9014C18.6901 9.95311 18.349 10.0533 18.0267 10.1992C18.0344 10.4139 18.0576 10.6208 18.0866 10.8181ZM25.6287 10.6034C25.6191 10.6266 25.6113 10.6517 25.6017 10.6769C25.563 10.7871 25.5262 10.8935 25.4856 10.9979L25.592 10.9805C25.7227 10.884 25.8414 10.7723 25.9459 10.6479L25.6287 10.6034ZM22.405 9.80857V9.86852C22.405 9.99422 22.405 10.1199 22.4185 10.2553C22.4379 10.4915 22.4379 10.7288 22.4185 10.965C22.5284 10.8559 22.6144 10.7251 22.671 10.5809C22.7276 10.4368 22.7536 10.2824 22.7473 10.1277C22.6277 10.0284 22.5223 9.9132 22.434 9.78536L22.405 9.80857ZM26.147 10.6672C26.0798 10.7604 26.004 10.8472 25.9208 10.9263L26.0967 10.8993C26.5338 10.8297 26.9612 10.762 27.375 10.673C27.3866 10.673 27.3963 10.6517 27.4079 10.6401C27.2019 10.6782 26.9927 10.6963 26.7833 10.6943C26.5705 10.6943 26.3578 10.6865 26.147 10.6672ZM17.4639 10.5899L17.7985 10.7194C17.7521 10.615 17.7115 10.5086 17.6747 10.4023C17.5991 10.4584 17.5285 10.5212 17.4639 10.5899ZM24.5806 10.6382C24.8203 10.6542 25.0607 10.6199 25.2864 10.5376L25.0931 10.4951C24.9848 10.47 24.8823 10.4409 24.7817 10.4119C24.7185 10.488 24.6515 10.5634 24.5806 10.6382ZM22.9078 10.0387C23.1809 10.243 23.488 10.3975 23.8148 10.4951C23.9914 10.5511 24.1726 10.5919 24.3563 10.6169C24.4413 10.5318 24.5226 10.4429 24.6038 10.3539C24.1173 10.2023 23.6738 9.93719 23.31 9.58037C23.1389 9.40333 22.9949 9.20197 22.8826 8.98281C22.8445 9.0873 22.7999 9.18935 22.7492 9.28836C22.8072 9.45076 22.8518 9.61763 22.8826 9.7873C22.8972 9.87036 22.9056 9.95439 22.9078 10.0387ZM27.6825 10.5666L27.6535 10.6053C27.8611 10.555 28.0622 10.497 28.2569 10.4313C28.5008 9.95217 28.6784 9.44211 28.7848 8.91512C28.7085 8.96799 28.6276 9.01394 28.5431 9.05243C28.589 9.22652 28.5976 9.40837 28.5683 9.58601C28.539 9.76366 28.4724 9.93309 28.3729 10.0832C28.2011 10.3148 27.9589 10.4844 27.6825 10.5666ZM26.2495 10.5009C26.4255 10.5144 26.6034 10.5222 26.7813 10.5222C27.0484 10.5256 27.3146 10.4917 27.5723 10.4216C27.5878 10.3945 27.6032 10.3675 27.6168 10.3385C27.6947 10.1641 27.734 9.97502 27.732 9.7841C27.7299 9.59317 27.6867 9.40493 27.6052 9.23228C27.2913 9.22221 26.9792 9.18206 26.673 9.11238L26.5067 9.416C26.4545 9.51076 26.4023 9.60938 26.3481 9.70221C26.3693 9.77532 26.3823 9.85056 26.3868 9.92654C26.3962 10.1283 26.3486 10.3287 26.2495 10.5048V10.5009ZM16.2185 9.92074C16.4696 10.0958 16.7356 10.2485 17.0133 10.3771C17.1081 10.4235 17.2067 10.4661 17.2976 10.5067C17.3902 10.4013 17.4954 10.3078 17.6109 10.2282H17.6245C17.529 9.86578 17.4995 9.48912 17.5374 9.11625C17.226 9.17376 16.929 9.29205 16.6633 9.46434C16.4835 9.58696 16.3319 9.74651 16.2185 9.93234V9.92074ZM25.7641 10.4409L26.0639 10.4777C26.1702 10.3147 26.2235 10.1229 26.2166 9.92847V9.913C26.0941 10.1148 25.9415 10.2968 25.7641 10.4525V10.4409ZM17.8352 10.2901C17.8468 10.3288 17.8604 10.3694 17.8739 10.4081C17.8739 10.3636 17.8739 10.3191 17.8739 10.2727L17.8352 10.2901ZM24.919 10.2592L25.1453 10.3191C25.271 10.3481 25.3967 10.3752 25.532 10.3984C25.661 10.0271 25.786 9.65257 25.9072 9.27482C25.8647 9.23228 25.8221 9.19167 25.7796 9.15686C25.4953 9.5475 25.2149 9.92074 24.9132 10.2708L24.919 10.2592ZM28.9917 8.74494C28.8989 9.29638 28.731 9.83252 28.4928 10.3385C28.9068 10.1817 29.2928 9.95897 29.6357 9.679C29.9239 9.44114 30.0708 9.21294 30.0844 8.98281C30.1076 8.63278 29.8117 8.33496 29.5294 8.17252C29.4768 8.14237 29.4226 8.11525 29.3669 8.09129C29.3669 8.11644 29.3553 8.14351 29.3476 8.16865C29.2832 8.39407 29.1581 8.59745 28.9859 8.75655L28.9917 8.74494ZM27.7927 9.22067C27.9392 9.57373 27.9454 9.96936 27.8101 10.3268C27.9811 10.2502 28.1291 10.1302 28.2395 9.97875C28.3229 9.85213 28.3793 9.70969 28.4053 9.5603C28.4312 9.41091 28.4261 9.25778 28.3903 9.11044C28.3188 9.13365 28.2453 9.15492 28.1718 9.17233C28.0454 9.20306 27.9167 9.22311 27.7869 9.23228L27.7927 9.22067ZM20.473 10.2514C20.8769 10.3465 21.3009 10.3064 21.6798 10.1373C21.8917 10.0385 22.0827 9.89998 22.2425 9.72928C22.2459 9.63142 22.2556 9.53388 22.2715 9.43727C22.2619 9.40633 22.2503 9.37538 22.2425 9.34444C22.2308 9.30711 22.2217 9.26898 22.2155 9.23034C22.0395 9.29029 21.8616 9.34638 21.6836 9.39666C21.4384 9.78826 21.0611 10.0791 20.62 10.2166C20.57 10.2351 20.519 10.2506 20.4672 10.263L20.473 10.2514ZM26.0271 9.42373C25.942 9.6906 25.855 9.95361 25.7641 10.2166C25.9222 10.0555 26.0582 9.8741 26.1683 9.67707C26.1304 9.59022 26.081 9.5089 26.0213 9.43533L26.0271 9.42373ZM23.0567 8.90932C23.1569 9.10926 23.2874 9.29256 23.4435 9.45274C23.8072 9.80585 24.2522 10.0642 24.7392 10.205C25.0574 9.83437 25.3556 9.44705 25.6326 9.04469C25.5746 9.00601 25.5224 8.97121 25.476 8.94413C25.2121 8.87704 24.9603 8.7694 24.7295 8.62504C24.4677 8.5481 24.1976 8.50266 23.925 8.48967L23.8283 8.53995C23.5692 8.68886 23.312 8.81069 23.0509 8.92092L23.0567 8.90932ZM17.7211 9.0737C17.6817 9.4237 17.7046 9.77792 17.7888 10.1199L17.8527 10.0851C17.8335 9.74003 17.8432 9.39396 17.8817 9.0505C17.8217 9.0679 17.7695 9.07563 17.7153 9.0853L17.7211 9.0737ZM19.9934 10.0967C20.1878 10.1206 20.3849 10.1062 20.5736 10.0542C20.9084 9.95375 21.2033 9.75084 21.4168 9.47401C20.9711 9.5912 20.5192 9.68288 20.0631 9.74862H19.9915L19.8503 10.0252L19.9934 10.0967ZM18.0596 9.02922C18.021 9.34999 18.0087 9.67338 18.0228 9.99616C18.2951 9.87881 18.58 9.79316 18.8718 9.74089L18.7925 9.66353C18.6019 9.47538 18.4426 9.25798 18.3206 9.01955L18.0596 9.02922ZM19.4964 9.82017C19.5661 9.86659 19.6357 9.91107 19.7053 9.94974C19.7362 9.89366 19.7652 9.83758 19.7943 9.7815L19.6976 9.79503L19.4964 9.82017ZM22.5558 9.62679C22.6113 9.71301 22.6761 9.79279 22.7492 9.86465C22.7492 9.84725 22.7492 9.82984 22.7492 9.81244C22.7285 9.70155 22.702 9.59182 22.6699 9.48368L22.5558 9.62679ZM15.1085 7.8863C15.1093 8.39963 15.2747 8.89917 15.5804 9.31157C15.7271 9.50546 15.8995 9.67851 16.0928 9.82598C16.2172 9.6255 16.3819 9.45298 16.5763 9.3193C16.8777 9.12379 17.216 8.99216 17.5703 8.93253C17.596 8.77903 17.6335 8.62774 17.6825 8.48C16.8017 8.38287 15.9349 8.18563 15.0988 7.89211L15.1085 7.8863ZM18.6359 8.99054C18.8239 9.25148 19.0479 9.48455 19.3011 9.68287C19.4249 9.66353 19.5506 9.64806 19.6763 9.63259L19.8851 9.60358C19.9412 9.49142 19.9954 9.37925 20.0495 9.26902L20.1056 9.15492C19.8856 9.11285 19.6768 9.02525 19.4926 8.89772C19.2058 8.94622 18.9166 8.97914 18.6262 8.99635L18.6359 8.99054ZM20.2874 9.17039C20.2584 9.22648 20.2313 9.28449 20.2023 9.34251C20.1733 9.40052 20.1269 9.49722 20.0882 9.57651C20.5921 9.50162 21.0907 9.39505 21.5812 9.25742C21.8175 8.87488 21.9985 8.46079 22.1188 8.02748L22.1865 7.79928C22.2893 7.4249 22.4139 7.05683 22.5597 6.69698C22.5384 6.65636 22.5152 6.61575 22.4901 6.57708C22.3573 6.64988 22.2282 6.72927 22.1033 6.81494C22.0878 6.83428 22.0724 6.85555 22.0549 6.87489C22.055 7.19272 21.9925 7.50745 21.8712 7.80121C21.587 8.50321 20.9971 9.17039 20.2893 9.17039H20.2874ZM26.089 9.23421C26.164 9.31436 26.2289 9.40333 26.2824 9.49915C26.3114 9.44307 26.3423 9.38892 26.3733 9.33284C26.4042 9.27676 26.4603 9.17039 26.5067 9.08917C26.4371 9.08917 26.3675 9.08917 26.2979 9.08917H26.1509L26.089 9.23421ZM22.4475 9.4276C22.4515 9.44031 22.4567 9.45262 22.463 9.46434C22.5036 9.40439 22.5423 9.34058 22.579 9.27096C22.5636 9.22454 22.5462 9.18006 22.5307 9.13365C22.4899 9.22926 22.4601 9.32916 22.4417 9.43147L22.4475 9.4276ZM22.2541 8.16091C22.1471 8.51781 22.0019 8.8621 21.821 9.1878C21.9467 9.14912 22.0704 9.10851 22.1942 9.06597C22.1821 8.85751 22.2158 8.64893 22.2928 8.45486C22.2621 8.36124 22.2464 8.26332 22.2464 8.16478L22.2541 8.16091ZM25.8975 9.04663L25.9575 9.09884L25.971 9.0563L25.8975 9.04663ZM27.638 8.91319C27.669 8.9613 27.6974 9.01101 27.7231 9.0621C27.8595 9.05988 27.9954 9.04564 28.1292 9.01955C28.2016 9.00419 28.2727 8.9835 28.342 8.95767C28.3034 8.83036 28.2536 8.70675 28.1931 8.5883C28.0254 8.73095 27.8335 8.8423 27.6264 8.91706L27.638 8.91319ZM27.2106 9.03116C27.3158 9.04631 27.4217 9.05599 27.5278 9.06016C27.5104 9.02922 27.4911 8.99828 27.4717 8.96927C27.3821 8.99612 27.2911 9.01807 27.199 9.03502L27.2106 9.03116ZM22.3914 8.75074C22.374 8.83533 22.3663 8.92161 22.3682 9.00795L22.4166 8.98861C22.4282 8.9654 22.4398 8.9422 22.4533 8.91899L22.3914 8.75074ZM20.707 8.36397C20.5891 8.56896 20.4808 8.77975 20.3744 8.99248C20.9662 8.94026 21.4632 8.35043 21.7127 7.73353C21.7968 7.52609 21.8521 7.30812 21.877 7.08568C21.6423 7.37747 21.3757 7.64212 21.0822 7.8747C21.0706 7.89984 21.059 7.92305 21.0455 7.94625C20.9563 8.1092 20.8376 8.25413 20.6954 8.37364L20.707 8.36397ZM19.7401 8.84164C19.8716 8.91616 20.0159 8.96536 20.1656 8.98668H20.1907C20.2564 8.85131 20.3241 8.71787 20.3841 8.58443C20.3051 8.63014 20.2231 8.67021 20.1385 8.70433C20.0046 8.7641 19.8662 8.81325 19.7246 8.85131L19.7401 8.84164ZM26.2128 8.82617C26.3423 8.86484 26.47 8.89578 26.5899 8.92286C26.6827 8.76486 26.7902 8.61594 26.9109 8.47807L26.938 8.44713C26.7829 8.33594 26.6178 8.23947 26.4448 8.15898L26.3888 8.24601C26.3307 8.43939 26.2727 8.63278 26.2128 8.82617ZM27.0733 8.55156L27.0366 8.59023C26.9491 8.69256 26.8684 8.80044 26.7949 8.91319C26.9842 8.90271 27.1721 8.87356 27.3557 8.82617C27.2699 8.72699 27.1754 8.63573 27.0733 8.55349V8.55156ZM17.8468 8.50514C17.8008 8.63685 17.7652 8.772 17.7405 8.90932C17.7927 8.90932 17.8468 8.89385 17.8991 8.88612C17.9184 8.76235 17.9416 8.64051 17.9687 8.51675L17.8468 8.50514ZM22.786 8.76428C22.7403 8.8031 22.6989 8.84652 22.6622 8.89385L22.7569 8.85711L22.786 8.76428ZM28.3226 8.4626C28.3951 8.59923 28.4546 8.74231 28.5005 8.88998C28.6199 8.83198 28.7311 8.75851 28.8312 8.67146C28.8486 8.55736 28.8641 8.44133 28.8757 8.32723C28.8368 8.34632 28.795 8.35874 28.7519 8.36397C28.7121 8.36737 28.6722 8.3598 28.6364 8.34207C28.6006 8.32434 28.5703 8.29713 28.5489 8.26341L28.5257 8.23053L28.576 8.07389C28.5189 8.20218 28.4433 8.32142 28.3516 8.42779L28.3226 8.4626ZM18.1389 8.53995C18.1137 8.64825 18.0925 8.75848 18.075 8.86871L18.2491 8.85324C18.2078 8.75268 18.1704 8.64825 18.1369 8.53995H18.1389ZM25.5417 8.80683C25.6191 8.82617 25.6964 8.84357 25.7738 8.85904C25.3873 8.71095 25.0705 8.42315 24.8861 8.05262C24.8519 7.9753 24.8247 7.89504 24.8049 7.81282C24.6991 7.94729 24.5769 8.06811 24.4413 8.17252C24.5424 8.29514 24.6618 8.40146 24.7952 8.48774C25.0403 8.56193 25.2769 8.66175 25.5011 8.78555L25.5417 8.80683ZM18.3516 8.54576C18.4021 8.64455 18.4576 8.74072 18.5179 8.8339H18.5334C18.7828 8.81843 19.0342 8.80103 19.2837 8.76428L19.1387 8.65792L18.9936 8.54962C18.7886 8.55542 18.574 8.55542 18.3497 8.54576H18.3516ZM26.0407 8.77008H26.0542L26.0677 8.72561C26.0561 8.74301 26.0465 8.75655 26.0387 8.77008H26.0407ZM27.201 8.43552C27.3215 8.53656 27.431 8.64999 27.5278 8.77395C27.7423 8.70115 27.9397 8.58533 28.108 8.43359C28.0404 8.31695 27.9648 8.20516 27.8817 8.09903L27.8488 8.05649C27.609 8.141 27.3877 8.27102 27.1971 8.43939L27.201 8.43552ZM22.9716 8.74301L22.9832 8.76815C23.1766 8.68693 23.3603 8.60184 23.544 8.51095C23.3563 8.51936 23.1716 8.56128 22.9987 8.63471C22.9851 8.67146 22.9774 8.70627 22.9677 8.74301H22.9716ZM22.4707 8.47614C22.4978 8.56896 22.5307 8.66952 22.5636 8.75268C22.5997 8.70844 22.6406 8.66824 22.6854 8.63278L22.7337 8.59217C22.6909 8.45398 22.6605 8.31225 22.6428 8.16865C22.5727 8.26411 22.5136 8.36728 22.4669 8.47614H22.4707ZM19.2547 8.52835C19.3437 8.59604 19.4326 8.66372 19.5216 8.72174C19.7097 8.68646 19.8937 8.63203 20.0708 8.55929C20.2508 8.48622 20.4185 8.38576 20.5678 8.26148L20.6258 8.16091C20.1948 8.36898 19.7282 8.49365 19.2508 8.52835H19.2547ZM24.9635 7.71419C24.9793 7.80682 25.0066 7.89712 25.0447 7.983C25.2211 8.32157 25.5198 8.58021 25.8801 8.70626C26 8.53028 26.118 8.35237 26.236 8.17445L26.265 8.07776L26.1664 8.03715C25.7783 7.88224 25.3732 7.77383 24.9596 7.71419H24.9635ZM29.0594 8.17445C29.0594 8.26534 29.0459 8.35624 29.0343 8.44713C29.1013 8.35287 29.1511 8.24744 29.1813 8.13577C29.1904 8.10403 29.1975 8.07173 29.2025 8.03908L29.1581 8.02554C29.1305 8.07943 29.0961 8.12949 29.0556 8.17445H29.0594ZM23.047 7.76254C23.047 7.81862 23.0567 7.87277 23.0586 7.92885C23.0646 8.09892 23.0549 8.26917 23.0296 8.43746C23.2198 8.37354 23.4188 8.33961 23.6194 8.3369C23.7058 8.3369 23.7929 8.3369 23.8805 8.3369C23.9927 8.27815 24.1018 8.2136 24.2073 8.14351C24.1325 8.02405 24.077 7.89351 24.043 7.75674C24.043 7.72579 24.0275 7.69485 24.0217 7.66584C23.6945 7.66811 23.3683 7.70048 23.047 7.76254ZM22.7937 7.97526C22.8018 8.12537 22.8245 8.27433 22.8614 8.42005C22.885 8.2594 22.8941 8.09694 22.8884 7.93465C22.8884 7.91725 22.8884 7.89791 22.8884 7.87857C22.8536 7.90951 22.8227 7.94239 22.7937 7.97526ZM24.1764 8.36204C24.2557 8.36204 24.335 8.38331 24.4143 8.39685C24.3756 8.35857 24.3395 8.31788 24.306 8.27501L24.1764 8.36204ZM18.2665 8.37171C18.4328 8.38073 18.5933 8.3846 18.748 8.38331C18.5969 8.28779 18.4288 8.22214 18.253 8.18992H18.2356C18.2356 8.18992 18.2356 8.20733 18.2356 8.217C18.2356 8.26534 18.2568 8.31369 18.2684 8.3601C18.2665 8.35623 18.2665 8.36397 18.2665 8.37171ZM18.2936 8.01587C18.5661 8.07762 18.8212 8.1999 19.04 8.37364C19.667 8.36264 20.2797 8.1851 20.8153 7.85923C20.8676 7.78188 20.9236 7.70646 20.9816 7.63297C21.0538 7.3408 21.0869 7.04038 21.0803 6.73952C21.0829 6.46596 21.1121 6.1933 21.1673 5.92536C20.9792 5.89003 20.7869 5.88351 20.5968 5.90602C20.3886 5.98027 20.1857 6.0688 19.9896 6.17096C19.6134 6.36103 19.2721 6.61342 18.9801 6.91744C18.6821 7.23477 18.45 7.60814 18.2974 8.01587H18.2936ZM17.9068 8.3427H18.0035L18.0383 8.2228C18.0374 8.21057 18.0374 8.19829 18.0383 8.18606C18.027 8.18994 18.0165 8.19583 18.0074 8.20346C17.9637 8.24042 17.931 8.28855 17.9126 8.3427H17.9068ZM26.5338 8.01781C26.7171 8.10524 26.8919 8.20947 27.0559 8.32916C27.2508 8.15308 27.4772 8.0153 27.7231 7.92305C27.5297 7.72966 27.2203 7.4976 26.9167 7.62523C26.7566 7.71804 26.6259 7.8541 26.5396 8.01781H26.5338ZM15.1046 7.71226L15.1491 7.72966C15.9851 8.02719 16.8527 8.22706 17.7347 8.32529C17.7662 8.23271 17.8224 8.15046 17.8971 8.08743C17.927 8.0659 17.9595 8.04835 17.9938 8.03521C17.9861 7.97849 17.9803 7.9224 17.9764 7.86697C17.9733 7.77457 17.9778 7.68207 17.99 7.59042C17.9824 7.28523 18.0275 6.98101 18.1234 6.69117C18.2895 6.23531 18.6015 5.84711 19.011 5.58693C18.8718 5.58693 18.7306 5.56953 18.5933 5.55986C17.3986 5.76474 16.2674 6.24328 15.2883 6.95805C15.2638 7.01606 15.2406 7.07601 15.2187 7.1379C15.1568 7.32383 15.1185 7.51679 15.1046 7.71226ZM28.0248 8.00427C28.0997 8.10063 28.1688 8.20137 28.2317 8.30595C28.3238 8.1963 28.3969 8.07214 28.4483 7.93852C28.3053 7.94592 28.1634 7.96796 28.0248 8.00427ZM28.7152 8.19766C28.7222 8.19955 28.7295 8.19955 28.7365 8.19766C28.7968 8.18554 28.8512 8.15353 28.8912 8.10677V7.96753L28.7887 7.95399L28.7152 8.19766ZM22.6196 7.89791C22.5416 7.93305 22.4786 7.99472 22.4417 8.07196C22.4248 8.11176 22.4156 8.15442 22.4146 8.19766C22.4749 8.09791 22.5434 8.00345 22.6196 7.91531V7.89791ZM24.1957 7.65811C24.1978 7.67524 24.2017 7.6921 24.2073 7.70839C24.2356 7.82419 24.2812 7.93504 24.3427 8.03715C24.4728 7.93521 24.5891 7.81691 24.6889 7.68518C24.5245 7.66584 24.3601 7.65424 24.1957 7.65231V7.65811ZM22.6486 6.91357C22.5268 7.21719 22.4321 7.54014 22.3373 7.85923L22.3102 7.95206C22.3845 7.83888 22.4939 7.75325 22.6216 7.70839C22.6216 7.66391 22.6216 7.62137 22.6351 7.57689C22.6523 7.42495 22.6854 7.27523 22.7337 7.13016C22.7144 7.05087 22.6815 6.97739 22.6506 6.90777L22.6486 6.91357ZM24.9693 7.54981C25.3999 7.61176 25.8218 7.72405 26.2263 7.88437L26.3075 7.91918L26.3423 7.80315C26.3761 7.72027 26.3822 7.62871 26.3597 7.54208C26.3133 7.44152 26.1664 7.40864 26.0291 7.3893C25.8511 7.36609 25.6674 7.33902 25.4798 7.31775L25.4276 7.33902L25.4179 7.31195C25.298 7.29841 25.1762 7.28874 25.0544 7.281C25.0365 7.37172 25.0079 7.46001 24.9693 7.54401V7.54981ZM27.0965 7.42411C27.4292 7.42411 27.727 7.68325 27.8972 7.8689C28.0914 7.81137 28.2923 7.77951 28.4947 7.77414C28.5457 7.5275 28.5473 7.27321 28.4995 7.02594C28.4517 6.77868 28.3554 6.54331 28.2163 6.33341C27.9813 6.16967 27.7306 6.02974 27.4679 5.91569L27.404 5.90409C27.269 6.15813 27.0865 6.38395 26.8664 6.56934C26.5472 6.82647 26.1904 7.03321 25.8086 7.18238L26.0523 7.21525C26.1446 7.21517 26.2354 7.23877 26.3159 7.28381C26.3965 7.32884 26.4642 7.39379 26.5125 7.47246C26.5478 7.55763 26.5546 7.65192 26.5319 7.74126C26.6155 7.62541 26.7273 7.53288 26.8567 7.47246C26.9345 7.43715 27.0189 7.41869 27.1043 7.41831L27.0965 7.42411ZM18.1563 7.59816C18.1563 7.68325 18.1563 7.76834 18.1717 7.8573C18.3285 7.47139 18.5546 7.11745 18.8389 6.81301C19.1438 6.49801 19.4994 6.23652 19.8909 6.03946C19.5305 6.11942 19.189 6.2685 18.8853 6.47845C18.5087 6.74139 18.2499 7.14115 18.164 7.59236L18.1563 7.59816ZM29.0382 7.22686C29.0382 7.25973 29.0382 7.29261 29.0382 7.32355C29.0517 7.48793 29.0556 7.65037 29.0556 7.81282L29.1639 7.58849C29.1403 7.4615 29.1006 7.33803 29.0459 7.22105L29.0382 7.22686ZM28.8448 7.79155H28.897C28.897 7.7374 28.897 7.68132 28.897 7.62717L28.8448 7.79155ZM28.545 6.59448C28.7045 6.96406 28.749 7.37312 28.6727 7.76834L28.866 7.18818C28.855 7.0843 28.8356 6.98147 28.808 6.88069C28.7809 6.84588 28.75 6.81107 28.7191 6.77626C28.6881 6.74145 28.6088 6.64476 28.5489 6.58868L28.545 6.59448ZM22.8227 7.45699C22.8227 7.5034 22.8072 7.54981 22.8014 7.59816V7.65037L22.8556 7.63684C22.8493 7.57447 22.8396 7.5125 22.8266 7.45118L22.8227 7.45699ZM15.0311 7.16691C14.9286 7.26553 14.8165 7.40864 14.8687 7.53628C14.884 7.57295 14.9095 7.60448 14.9422 7.62717C14.9574 7.47131 14.9872 7.31722 15.0311 7.16691ZM24.0062 7.32355C23.8542 7.35257 23.7048 7.39396 23.5595 7.44732C23.4937 7.47246 23.428 7.5034 23.3661 7.53628C23.579 7.50728 23.7934 7.48985 24.0082 7.48406C24.0036 7.43067 24.003 7.37703 24.0062 7.32355ZM24.1725 7.48213C24.3659 7.48213 24.5709 7.49566 24.7682 7.51694C24.7669 7.43228 24.7715 7.34764 24.7817 7.2636C24.5801 7.25998 24.3784 7.27096 24.1783 7.29647C24.1725 7.35818 24.1706 7.42018 24.1725 7.48213ZM22.9078 7.12629C22.9458 7.24018 22.9761 7.35647 22.9987 7.47439L23.0451 7.41251C23.125 7.29458 23.1779 7.16045 23.2 7.01971C23.2221 6.87896 23.2127 6.73508 23.1727 6.59835C23.0635 6.76302 22.9745 6.94029 22.9078 7.12629ZM29.0962 6.99092C29.1705 7.10609 29.2315 7.22937 29.278 7.35836L29.599 6.70084C29.7351 6.46362 29.8183 6.19972 29.8426 5.9273C29.8426 5.10927 28.7926 4.71669 28.34 4.58519C28.0405 4.49234 27.7319 4.43204 27.4195 4.40534C27.5287 4.61884 27.5889 4.85406 27.5955 5.0938C27.5998 5.22397 27.5861 5.35412 27.5549 5.48057C27.6574 5.53789 27.7556 5.60252 27.8488 5.67396L28.2066 5.69717C28.5586 5.72037 29.044 5.79773 29.1909 6.18257C29.2536 6.40941 29.2345 6.6511 29.1368 6.86522L29.0962 6.99092ZM21.322 5.97758C21.2766 6.22765 21.2552 6.4815 21.2582 6.73565C21.256 6.94117 21.2431 7.14644 21.2195 7.35062C21.4166 7.13644 21.6342 6.94212 21.8693 6.77046C21.8644 6.63957 21.8314 6.51126 21.7727 6.39417C21.714 6.27708 21.6309 6.17393 21.5289 6.09167C21.4655 6.04437 21.3959 6.00598 21.322 5.97758ZM23.2946 6.4301C23.3999 6.70863 23.3999 7.01602 23.2946 7.29454C23.5786 7.18767 23.8513 7.05293 24.1087 6.8923C24.1998 6.67622 24.3311 6.47936 24.4955 6.31214C24.3575 6.19328 24.2039 6.09374 24.0391 6.01625C23.8999 6.0472 23.7548 6.08587 23.6098 6.12842C23.4953 6.21864 23.3897 6.31966 23.2946 6.4301ZM24.0256 7.13403L23.9927 7.15337H24.0236L24.0256 7.13403ZM25.0621 7.10502C25.1936 7.10502 25.3232 7.12629 25.4489 7.13983C25.9209 6.98033 26.3623 6.74163 26.7543 6.43397C26.9422 6.27395 27.1006 6.08217 27.2222 5.86735C26.6126 5.74006 25.9813 5.76062 25.3812 5.9273C25.3329 6.03753 25.2864 6.15162 25.24 6.26572C25.1646 6.45911 25.0892 6.6525 25.0331 6.84588C25.0491 6.91376 25.0582 6.98309 25.0602 7.05281L25.0621 7.10502ZM24.2402 6.99866C24.2248 7.03927 24.2131 7.07988 24.2015 7.12049C24.3999 7.09797 24.5995 7.08892 24.7991 7.09342C24.8146 7.01026 24.8359 6.92517 24.8591 6.84008C24.8286 6.73652 24.7816 6.63856 24.7198 6.55C24.5857 6.72216 24.4267 6.87338 24.248 6.99866H24.2402ZM19.3263 5.58693C18.84 5.82314 18.4648 6.23927 18.28 6.74726C18.2567 6.81045 18.2373 6.87504 18.222 6.94064C18.3674 6.70167 18.5594 6.49448 18.7867 6.33147C19.2783 6.00248 19.8451 5.80293 20.4344 5.75131L20.5427 5.73971C20.7836 5.65635 21.0305 5.5917 21.2814 5.54632L21.293 5.52505C21.1967 5.48062 21.0972 5.44376 20.9952 5.41482C20.9372 5.39742 20.8772 5.38388 20.8173 5.37227H20.5871C20.1867 5.52231 19.7615 5.59515 19.334 5.58693H19.3263ZM22.7376 6.69891C22.7685 6.76079 22.7976 6.82268 22.8246 6.8923C22.9007 6.71801 22.9967 6.55317 23.1108 6.40109C23.0973 6.37015 23.0818 6.34114 23.0664 6.3102L22.9097 6.37595C22.8464 6.48035 22.789 6.58817 22.7376 6.69891ZM28.9666 6.78787C28.9732 6.79726 28.9803 6.80629 28.9879 6.81494C29.0687 6.63815 29.0884 6.43949 29.044 6.25025C28.9318 5.95437 28.5121 5.89249 28.2066 5.86348H28.0712L28.1292 5.92536C28.4096 6.02751 28.6514 6.21396 28.8216 6.45911C28.8844 6.5617 28.9332 6.67228 28.9666 6.78787ZM21.3646 5.82093C21.5402 5.883 21.695 5.9931 21.8112 6.13873C21.9275 6.28437 22.0005 6.45968 22.0221 6.64476C22.111 6.53646 22.2019 6.42623 22.2947 6.31794C22.1017 6.06425 21.8646 5.84741 21.5947 5.67783C21.5328 5.67783 21.469 5.69523 21.4013 5.70684C21.3916 5.73198 21.3781 5.77452 21.3607 5.8132L21.3646 5.82093ZM17.7115 5.51151C17.4088 5.50553 17.1067 5.54198 16.8142 5.61981C16.2614 5.78252 15.7853 6.13791 15.4721 6.62155C16.234 6.10907 17.0805 5.73525 17.9726 5.51732C17.8862 5.50829 17.7991 5.50378 17.7115 5.50378V5.51151ZM24.6173 6.42043C24.5612 6.48111 24.5095 6.54574 24.4626 6.61382C24.5193 6.55359 24.571 6.48892 24.6173 6.42043ZM24.8281 6.40883C24.8728 6.46988 24.9122 6.53457 24.9461 6.60222C24.9925 6.47265 25.0408 6.34501 25.0931 6.21544L25.1685 6.02206C25.0917 6.05843 25.0174 6.09977 24.9461 6.14582C24.9154 6.23466 24.8759 6.32018 24.8281 6.40109V6.40883ZM22.6312 6.50552V6.51713L22.6409 6.49585L22.6312 6.50552ZM22.521 6.31214C22.5307 6.32567 22.5403 6.33921 22.5481 6.35275C22.6332 6.3102 22.7163 6.26959 22.7995 6.23285C22.8382 6.17096 22.8768 6.11295 22.9194 6.05686C22.8962 6.02786 22.871 5.99885 22.8459 5.97177C22.7241 6.08394 22.6158 6.19997 22.521 6.31214ZM23.2327 6.23671L23.2443 6.22318L23.2327 6.23671ZM21.8674 5.63915C22.074 5.79189 22.2587 5.97211 22.4166 6.17483C22.5152 6.0646 22.61 5.95824 22.7221 5.85574C22.7036 5.83985 22.6843 5.825 22.6641 5.81126C22.5671 5.73646 22.4628 5.67166 22.3528 5.61788C22.1874 5.61781 22.0221 5.62685 21.8577 5.64495L21.8674 5.63915ZM24.304 5.9389C24.4186 6.00689 24.5267 6.08522 24.627 6.1729C24.6852 6.1208 24.7465 6.07236 24.8107 6.02786C24.8262 5.96984 24.8397 5.91182 24.8494 5.85381C24.7314 5.86928 24.6154 5.88475 24.4994 5.90409L24.304 5.9389ZM23.1302 6.06073L23.1476 6.08781C23.2791 6.03946 23.4067 5.99498 23.5344 5.9563C23.5808 5.91763 23.6291 5.88088 23.6794 5.84607H23.662C23.5827 5.82093 23.5015 5.79773 23.4203 5.77645C23.3107 5.86267 23.2103 5.95987 23.1205 6.06653L23.1302 6.06073ZM22.9716 5.86735L23.0258 5.93116C23.0852 5.86191 23.1499 5.79726 23.2191 5.73778L23.1553 5.72424C23.0844 5.76678 23.0199 5.8132 22.9619 5.86348L22.9716 5.86735ZM25.0234 5.84414C25.0234 5.86735 25.0234 5.88862 25.0234 5.91182C25.0648 5.88886 25.1074 5.86821 25.1511 5.84994L25.1975 5.82867L25.0234 5.84414ZM23.5982 5.65075L23.7123 5.68556C23.8337 5.72304 23.9525 5.76825 24.0681 5.82093C24.2073 5.78999 24.3427 5.76485 24.4723 5.74358C24.6019 5.72231 24.7334 5.70297 24.8591 5.6875C24.8618 5.59518 24.8527 5.5029 24.832 5.41289C24.8261 5.38196 24.8177 5.35156 24.8068 5.32199C24.378 5.31592 23.9561 5.42979 23.5885 5.65075H23.5982ZM21.1441 5.75325L21.2118 5.76678C21.2118 5.75518 21.2118 5.74551 21.2118 5.73584L21.1441 5.75325ZM22.7337 5.65655L22.7647 5.67976L22.8478 5.74551L22.9252 5.67976C22.8517 5.67203 22.7879 5.66236 22.7241 5.65655H22.7337ZM24.9886 5.32199C24.9943 5.33974 24.9988 5.35783 25.0022 5.37614C25.0232 5.47205 25.0336 5.56998 25.0331 5.66816L25.3425 5.64302C25.3889 5.54632 25.4354 5.44963 25.4856 5.36261C25.3176 5.33982 25.1485 5.32627 24.979 5.32199H24.9886ZM27.5259 5.65849H27.5452L27.5278 5.64688L27.5259 5.65849ZM27.2822 5.64495H27.346C27.3576 5.61594 27.3673 5.58693 27.377 5.55986C26.8875 5.31813 26.3538 5.17926 25.8086 5.15181L25.7583 5.22723C25.9362 5.25818 26.1045 5.29685 26.2611 5.3336C26.6042 5.4171 26.9419 5.52107 27.2725 5.64495H27.2822ZM25.6655 5.38968C25.621 5.46704 25.5785 5.54826 25.5378 5.63141C25.913 5.61208 26.2901 5.61014 26.6653 5.61981C26.5145 5.57726 26.3675 5.53859 26.2263 5.50571C26.0213 5.45737 25.8337 5.41869 25.6558 5.38968H25.6655ZM23.3448 5.58307H23.3797C23.4601 5.5235 23.5448 5.46985 23.633 5.42256C23.5711 5.45221 23.5066 5.48315 23.4396 5.51538C23.4067 5.53859 23.3719 5.56373 23.3352 5.58693L23.3448 5.58307ZM22.3914 5.4593C22.6296 5.46873 22.8668 5.49523 23.1012 5.53859C23.1848 5.47864 23.272 5.42375 23.3622 5.37421C23.7534 5.17115 24.1803 5.04634 24.6193 5.00677C24.569 4.95377 24.511 4.90877 24.4471 4.87334C24.2357 4.77627 24.0048 4.72928 23.7722 4.73603C23.078 4.70702 22.2116 4.78631 21.7069 5.26398C21.9393 5.30195 22.166 5.36887 22.3818 5.46317L22.3914 5.4593ZM21.5541 5.4477L21.6392 5.49604C21.7204 5.48702 21.8016 5.47928 21.8828 5.47284C21.7823 5.44963 21.6894 5.43029 21.5773 5.41482L21.5541 5.4477ZM25.9343 4.99904C26.4494 5.03591 26.9528 5.17045 27.4176 5.39548C27.4369 5.29938 27.446 5.20149 27.4446 5.10347C27.4348 4.85709 27.3651 4.61681 27.2416 4.40341C26.9699 4.39933 26.701 4.45894 26.4564 4.57745C26.2532 4.68001 26.0735 4.82355 25.9285 4.99904H25.9343ZM20.9062 5.19243C21.1072 5.19496 21.308 5.20787 21.5077 5.2311C22.0395 4.62967 23.0141 4.53104 23.7877 4.56198C24.046 4.55702 24.302 4.61126 24.5361 4.72056C24.6525 4.78518 24.7529 4.87505 24.8301 4.98357C24.979 4.9739 25.1163 4.97003 25.242 4.9681C25.4109 4.9681 25.5733 4.97196 25.7293 4.9797C25.9013 4.74638 26.1242 4.55526 26.381 4.42081C26.616 4.30393 26.873 4.23803 27.1352 4.22742C26.9765 4.00926 26.78 3.82128 26.5551 3.6724C25.8627 3.20247 24.919 3.00329 23.7452 3.08064C22.7782 3.14252 22.1265 3.42487 21.7977 3.91994C21.7206 4.04366 21.6527 4.17294 21.5947 4.30671C21.5347 4.45038 21.4629 4.58881 21.38 4.72056C21.2552 4.9116 21.091 5.0738 20.8985 5.19629L20.9062 5.19243ZM24.9674 5.14601C25.174 5.15019 25.3801 5.16828 25.5843 5.20016C25.5959 5.18082 25.6075 5.16148 25.621 5.14214C25.4992 5.14214 25.3754 5.14214 25.2497 5.14214C25.1491 5.15181 25.0544 5.15181 24.9538 5.15181L24.9674 5.14601Z" fill="white"/>
<path d="M42.0142 28.3988C41.7257 28.2606 41.4127 28.1806 41.0931 28.1634C40.7736 28.1463 40.4538 28.1923 40.1521 28.2988C39.8503 28.4053 39.5726 28.5702 39.3346 28.7842C39.0967 28.9981 38.9032 29.2568 38.7653 29.5456L38.7015 29.681L38.6106 29.8744L38.5004 30.0968L38.2683 30.5512C38.1078 30.8529 37.9493 31.1565 37.7771 31.4466C37.9106 30.9999 38.0556 30.5512 38.2045 30.1045C38.3534 29.6578 38.5139 29.1666 38.6783 28.6986C38.9974 27.7645 39.3436 26.815 39.6665 25.8925L39.6781 25.8616C39.7758 25.5852 39.7703 25.2828 39.6628 25.0101C39.5552 24.7374 39.3527 24.5127 39.0927 24.3774C38.8326 24.242 38.5325 24.2052 38.2474 24.2736C37.9623 24.342 37.7115 24.511 37.5412 24.7496C36.9204 25.616 36.3809 26.4901 35.8413 27.3835C35.3018 28.277 34.8183 29.2033 34.3523 30.1528C33.8783 31.1207 33.4606 32.1151 33.101 33.131C32.9231 33.657 32.7549 34.1985 32.6156 34.7748C32.462 35.3971 32.3713 36.0334 32.3449 36.6738C32.3249 37.1784 32.4876 37.6732 32.8031 38.0675C33.1185 38.4618 33.5655 38.7292 34.0622 38.8204L34.2208 38.8494C34.8905 38.9699 35.577 38.9613 36.2436 38.8243C36.8537 38.6937 37.4406 38.4714 37.9841 38.1649C38.8931 37.6429 39.7066 36.97 40.3898 36.1749C40.703 35.825 40.9961 35.4576 41.2678 35.0745C41.5327 34.7013 41.786 34.3281 42.0123 33.9432C42.2386 33.5584 42.459 33.1697 42.6544 32.7829C42.753 32.5895 42.8477 32.3865 42.9425 32.1815L43.0759 31.8701L43.221 31.5182C43.4548 30.9423 43.4602 30.2989 43.236 29.7193C43.0117 29.1396 42.5748 28.6674 42.0142 28.3988Z" fill="#263238"/>
<path d="M37.4895 22.2916L37.4373 23.2585C37.4207 23.6438 37.4867 24.0282 37.6307 24.386L38.0175 25.378C38.1067 25.6039 38.2582 25.7997 38.4543 25.9429C38.6505 26.086 38.8833 26.1704 39.1256 26.1864C39.4548 26.2087 39.7798 26.1025 40.0323 25.89C40.2848 25.6776 40.445 25.3755 40.4793 25.0474C40.5085 24.551 40.4635 24.053 40.3459 23.5699L40.2376 22.3419C40.2193 22.1406 40.1302 21.9523 39.986 21.8106C39.8418 21.6689 39.6521 21.5831 39.4505 21.5683L38.4043 21.489C38.2914 21.4812 38.1781 21.4957 38.0709 21.5319C37.9637 21.568 37.8647 21.6251 37.7796 21.6997C37.6946 21.7743 37.6252 21.865 37.5754 21.9666C37.5256 22.0682 37.4964 22.1787 37.4895 22.2916Z" fill="#FFB573"/>
<path opacity="0.2" d="M40.348 23.568L40.2397 22.3419C40.2211 22.141 40.1321 21.9532 39.9884 21.8117C39.8448 21.6701 39.6556 21.5839 39.4545 21.5684L38.4412 21.491C38.3271 23.0729 39.1374 24.8327 40.025 25.9002C40.1541 25.7958 40.2609 25.6665 40.3389 25.52C40.417 25.3735 40.4648 25.2128 40.4795 25.0474C40.5102 24.5504 40.4659 24.0517 40.348 23.568Z" fill="black"/>
<path d="M49.0518 26.258C46.2593 26.4668 42.7629 26.695 40.2547 27.8882C39.017 28.478 38.6844 29.7176 38.8681 31.0772C39.1601 33.2354 39.4115 34.9584 39.9491 36.7801C41.1945 40.9824 38.6979 43.9915 41.4962 47.2462C42.7242 48.6425 50.2528 49.9536 55.5844 48.2016C56.358 45.0203 55.3582 37.1089 54.2888 29.9072C53.9155 27.3641 51.6181 26.0665 49.0518 26.258Z" fill="#2196F3"/>
<path d="M45.586 22.8757C45.7214 24.0592 46.3074 25.7959 47.3091 26.3373C47.4178 26.397 47.5106 26.4819 47.5797 26.5849C47.6487 26.6879 47.692 26.806 47.7058 26.9292C47.7196 27.0525 47.7037 27.1772 47.6592 27.293C47.6147 27.4087 47.5431 27.5121 47.4503 27.5944C46.8605 28.1107 45.9496 28.5613 44.7274 28.8146C43.1339 29.1395 42.7935 28.658 42.8167 28.1629C42.8405 27.924 42.9378 27.6983 43.0952 27.517C43.6096 26.8827 43.0952 26.3896 42.7761 26.0183L45.586 22.8757Z" fill="#FFB573"/>
<path opacity="0.2" d="M44.8715 24.6605C44.8404 24.5941 44.8055 24.5295 44.7671 24.4671L42.7791 26.0238C42.9724 26.2656 43.2741 26.5615 43.3109 26.9115C44.3378 26.2946 45.1732 25.3025 44.8715 24.6605Z" fill="black"/>
<path d="M32.4824 65.471C32.8692 65.0745 35.3291 64.3107 35.3291 64.3107C35.9735 66.1618 36.5056 68.0501 36.9226 69.9653L33.7375 70.2902C33.7375 70.2902 33.2096 67.0626 32.4824 65.471Z" fill="#FFB573"/>
<path d="M46.5689 45.6894C37.3579 45.8209 25.2364 45.3277 28.0908 53.7227C29.313 57.3158 29.2144 58.6366 30.6435 62.9898C31.2585 64.8637 31.4673 65.4148 31.914 66.7125C32.4033 67.8728 35.3351 67.6601 36.418 67.2056C37.7195 66.5133 36.6114 64.6432 36.4664 63.5912C35.7257 58.4549 37.2631 56.492 35.6464 53.1251C38.5859 53.5506 46.8493 53.2527 48.0793 48.2015C48.0793 48.2015 49.7733 46.1883 46.5689 45.6894Z" fill="#263238"/>
<path d="M32.6644 67.3315L33.0512 68.1051C33.0745 68.1514 33.1121 68.189 33.1584 68.2123C33.2047 68.2357 33.2573 68.2435 33.3084 68.2346C33.8305 68.1437 35.3854 67.8943 36.2904 68.0045C36.3231 68.008 36.356 68.0048 36.3874 67.9952C36.4188 67.9856 36.4479 67.9697 36.473 67.9486C36.4981 67.9275 36.5187 67.9015 36.5335 67.8722C36.5483 67.8429 36.5571 67.811 36.5592 67.7782C36.5766 67.4727 36.5728 67.0763 36.5689 66.8268C36.5669 66.7633 36.5404 66.7031 36.495 66.6588C36.4496 66.6144 36.3887 66.5894 36.3252 66.5889C35.1472 66.6009 33.9733 66.7305 32.8211 66.9757C32.7844 66.9844 32.7503 67.0014 32.7213 67.0255C32.6923 67.0496 32.6694 67.0801 32.6542 67.1146C32.639 67.1491 32.632 67.1866 32.6338 67.2243C32.6356 67.2619 32.6461 67.2986 32.6644 67.3315Z" fill="#2196F3"/>
<path d="M37.6056 71.9881L37.273 69.7429C37.2607 69.6908 37.2301 69.6448 37.1868 69.6132C37.1436 69.5816 37.0904 69.5666 37.037 69.5708L33.7707 69.5843C33.5087 69.5661 33.248 69.634 33.0281 69.7777C32.2933 70.385 31.1542 70.967 29.4988 71.2881C28.9747 71.3906 29.1971 72.431 30.4251 72.4252C32.4557 72.4155 32.3706 72.3517 34.0995 72.3459C35.5808 72.3459 35.9521 72.4136 37.1279 72.4252C37.1884 72.4297 37.2491 72.4217 37.3064 72.4019C37.3637 72.3821 37.4164 72.3507 37.4611 72.3098C37.5058 72.2688 37.5417 72.2192 37.5666 72.1639C37.5914 72.1086 37.6047 72.0488 37.6056 71.9881Z" fill="#263238"/>
<path d="M44.4515 19.7698C45.3159 21.7501 45.9231 22.864 45.461 24.4111C44.7686 26.7491 41.9606 27.2751 40.5238 25.6391C39.232 24.1655 38.0349 21.1718 39.5143 19.2999C40.9724 17.4588 43.587 17.7876 44.4515 19.7698Z" fill="#FFB573"/>
<path d="M42.8612 24.5311C42.9679 24.5286 43.0745 24.5344 43.1803 24.5485C43.1876 24.5494 43.1947 24.5519 43.2011 24.5556C43.2074 24.5594 43.2129 24.5644 43.2173 24.5704C43.2216 24.5764 43.2247 24.5832 43.2263 24.5904C43.228 24.5976 43.2281 24.6051 43.2267 24.6123C43.226 24.6196 43.2238 24.6266 43.2203 24.633C43.2167 24.6393 43.2119 24.6449 43.206 24.6492C43.2002 24.6536 43.1935 24.6567 43.1864 24.6584C43.1793 24.66 43.172 24.6601 43.1648 24.6587C42.9302 24.619 42.6894 24.6356 42.4624 24.7072C42.2355 24.7788 42.0288 24.9034 41.8595 25.0707C41.8489 25.0812 41.8347 25.0871 41.8198 25.0871C41.8049 25.0871 41.7907 25.0812 41.7802 25.0707C41.775 25.0656 41.7709 25.0596 41.7681 25.0529C41.7654 25.0463 41.7639 25.0392 41.7639 25.032C41.7639 25.0248 41.7654 25.0176 41.7681 25.011C41.7709 25.0044 41.775 24.9983 41.7802 24.9933C42.0666 24.7044 42.4544 24.5386 42.8612 24.5311Z" fill="#263238"/>
<path d="M41.9703 22.1699C41.8717 22.2259 41.8639 22.3942 41.9509 22.545L42.3067 22.3381C42.2197 22.1873 42.0689 22.1119 41.9703 22.1699Z" fill="#263238"/>
<path d="M40.1192 23.2199C40.0206 23.276 40.011 23.4442 40.0999 23.595L40.4557 23.3881C40.357 23.2373 40.2082 23.1619 40.1192 23.2199Z" fill="#263238"/>
<path d="M41.4865 21.2299C41.4987 21.2141 41.5153 21.2022 41.5342 21.1956C41.5531 21.1891 41.5735 21.1883 41.5929 21.1932C41.7163 21.2283 41.8463 21.2334 41.9721 21.2082C42.0979 21.183 42.2158 21.1281 42.3162 21.0481C42.3257 21.0386 42.337 21.031 42.3494 21.0259C42.3619 21.0207 42.3752 21.0181 42.3887 21.0181C42.4022 21.0181 42.4155 21.0207 42.4279 21.0259C42.4404 21.031 42.4517 21.0386 42.4612 21.0481C42.4707 21.0576 42.4783 21.069 42.4835 21.0814C42.4886 21.0938 42.4913 21.1072 42.4913 21.1206C42.4913 21.1341 42.4886 21.1475 42.4835 21.1599C42.4783 21.1723 42.4707 21.1837 42.4612 21.1932C42.3357 21.2962 42.1872 21.3675 42.0284 21.4012C41.8695 21.4348 41.7049 21.4298 41.5484 21.3866C41.5224 21.3797 41.5 21.3629 41.4863 21.3397C41.4725 21.3166 41.4685 21.2889 41.4749 21.2628C41.477 21.2513 41.4809 21.2402 41.4865 21.2299Z" fill="#263238"/>
<path d="M39.8774 22.1389C39.8968 22.1245 39.9211 22.1182 39.9451 22.1215C39.9719 22.1239 39.9967 22.1369 40.0141 22.1575C40.0315 22.1782 40.04 22.2048 40.0379 22.2317C40.0281 22.3939 39.9794 22.5513 39.896 22.6906C39.8125 22.83 39.6967 22.9472 39.5583 23.0323C39.5344 23.0447 39.5066 23.0471 39.4809 23.0392C39.4552 23.0312 39.4337 23.0135 39.421 22.9898C39.4145 22.9781 39.4105 22.9653 39.409 22.9521C39.4076 22.9388 39.4088 22.9254 39.4126 22.9126C39.4164 22.8999 39.4226 22.888 39.431 22.8776C39.4395 22.8673 39.4498 22.8588 39.4616 22.8525C39.5697 22.7832 39.6598 22.6892 39.7244 22.5783C39.7889 22.4673 39.8261 22.3425 39.8329 22.2143C39.8344 22.1993 39.8392 22.1847 39.8469 22.1717C39.8545 22.1587 39.8649 22.1475 39.8774 22.1389Z" fill="#263238"/>
<path opacity="0.2" d="M40.5236 23.3301C40.5312 23.48 40.501 23.6294 40.4358 23.7646C40.3706 23.8998 40.2724 24.0164 40.1504 24.1037C41.0516 23.9567 40.5236 23.3301 40.5236 23.3301Z" fill="black"/>
<path opacity="0.2" d="M41.7268 22.661C41.8556 22.7344 42.0006 22.7746 42.1488 22.7779C42.2971 22.7813 42.4438 22.7478 42.5758 22.6803C42.0846 23.3011 41.7268 22.661 41.7268 22.661Z" fill="black"/>
<path d="M46.0856 19.8354C45.9889 18.9419 45.753 18.2748 45.4397 17.8222C45.5764 17.8659 45.7169 17.897 45.8593 17.9151C45.0626 16.7064 43.763 16.9327 43.3453 17.4219C42.8367 16.3099 42.1173 17.0526 41.2993 17.1937C40.4812 17.3349 38.9593 16.7431 38.9593 16.7431C38.9593 16.7431 39.2938 17.3233 39.8392 17.4123C38.7814 17.8899 38.3907 18.7118 38.1103 19.3461C37.8299 19.9804 36.979 20.7404 36.979 20.7404C37.334 20.7442 37.678 20.6176 37.9459 20.3846C37.8396 21.0305 37.3929 22.2353 37.1724 22.5119C37.7526 22.3185 38.296 21.6087 38.296 21.6087C38.296 21.6087 38.4004 22.7691 38.9457 23.5542C38.8336 22.5505 40.4406 20.5413 40.4406 20.5413C40.3693 20.9721 40.3693 21.4118 40.4406 21.8427C41.1658 21.2297 42.3474 19.2224 42.3474 19.2224C42.3624 19.8056 42.4448 20.3851 42.593 20.9493C42.6616 20.6116 42.8028 20.2929 43.0069 20.0152C42.7941 20.7346 43.3356 22.3978 43.3356 22.3978C43.3084 21.9634 43.3364 21.5274 43.4188 21.1001C43.5716 21.5952 44.5095 22.1406 44.8943 22.1966C44.8905 22.2005 46.3583 22.3146 46.0856 19.8354Z" fill="#263238"/>
<path d="M46.0665 21.6381C46.036 22.1651 45.7982 22.6587 45.4052 23.0111C44.8792 23.4733 44.3145 23.0769 44.2081 22.431C44.1114 21.8412 44.2681 20.8839 44.9159 20.6808C45.5637 20.4778 46.0975 20.9922 46.0665 21.6381Z" fill="#FFB573"/>
<path d="M41.0359 23.1154C41.0359 23.1154 41.3279 24.1578 41.2718 24.8076C41.6953 24.8521 42.0454 24.4324 42.0454 24.4324L41.0359 23.1154Z" fill="#ED893E"/>
<path opacity="0.2" d="M39.9724 53.1523C39.8603 51.874 39.6978 50.5957 39.4812 49.331C39.3842 48.7531 39.1976 48.194 38.9281 47.6737C32.7398 46.8498 32.1925 51.9939 36.2826 61.7735C36.066 57.9328 37.0562 56.0628 35.6483 53.1252C37.0839 53.2998 38.5348 53.3089 39.9724 53.1523Z" fill="black"/>
<path opacity="0.2" d="M45.3407 21.3306L45.7527 22.1873C45.9132 22.5125 45.9954 22.8708 45.9925 23.2335L45.9712 24.2004C45.9614 24.4247 45.8769 24.6392 45.7311 24.8099C45.5854 24.9806 45.3867 25.0975 45.1667 25.1422C44.8277 25.2234 44.4716 25.1937 44.1507 25.0576C43.8298 24.9215 43.561 24.6862 43.3837 24.3861C43.1715 23.9605 43.0298 23.5033 42.964 23.0324L42.614 21.9107C42.5848 21.8224 42.5747 21.7288 42.5844 21.6363C42.594 21.5437 42.6232 21.4543 42.67 21.3739C42.7168 21.2934 42.7801 21.2238 42.8558 21.1697C42.9315 21.1156 43.0178 21.0781 43.1091 21.0598L44.1243 20.7852C44.3589 20.7288 44.6055 20.7518 44.8255 20.8504C45.0456 20.9491 45.2268 21.118 45.3407 21.3306Z" fill="black"/>
<path d="M45.5768 21.4445L45.894 22.3592C46.0214 22.7219 46.0683 23.1079 46.0313 23.4905L45.9288 24.5542C45.9061 24.7957 45.8151 25.0258 45.6665 25.2176C45.5178 25.4094 45.3177 25.5549 45.0895 25.6371C44.7788 25.7518 44.4357 25.741 44.1329 25.6071C43.83 25.4732 43.5912 25.2266 43.467 24.9197C43.3002 24.4512 43.2051 23.9603 43.1846 23.4635L42.9487 22.2529C42.9092 22.0539 42.9419 21.8474 43.0407 21.6702C43.1396 21.4931 43.2982 21.3569 43.4882 21.2859L44.4726 20.9204C44.5794 20.881 44.693 20.8633 44.8068 20.8684C44.9205 20.8735 45.0321 20.9013 45.1349 20.9501C45.2378 20.999 45.3299 21.0678 45.4058 21.1527C45.4816 21.2376 45.5398 21.3368 45.5768 21.4445Z" fill="#FFB573"/>
<path d="M52.0961 27.3661C51.4709 27.2092 50.8089 27.3071 50.2559 27.6382C49.7028 27.9693 49.3039 28.5065 49.1469 29.1317L49.0986 29.3251L49.0096 29.6886L48.8994 30.0986C48.8201 30.379 48.7427 30.6614 48.6518 30.9398C48.4797 31.4968 48.2747 32.0344 48.0601 32.543L48.0485 32.5701C47.8338 31.9223 47.6346 31.2473 47.4567 30.5608C47.3252 30.0754 47.1995 29.5823 47.0835 29.0872C46.9675 28.5921 46.8437 28.0932 46.7335 27.5904C46.5053 26.5925 46.2925 25.5676 46.0759 24.5735V24.5445C46.0123 24.2579 45.8472 24.004 45.611 23.8296C45.3748 23.6552 45.0835 23.5721 44.7908 23.5957C44.4982 23.6193 44.2239 23.7479 44.0187 23.9578C43.8134 24.1677 43.691 24.4448 43.6741 24.7379C43.6083 25.8364 43.6103 26.8961 43.6373 27.9791C43.6644 29.0621 43.7398 30.1373 43.8578 31.2261C43.9158 31.7714 43.9951 32.3187 44.0841 32.8698C44.173 33.421 44.2774 33.9799 44.4225 34.5446C44.5653 35.1358 44.7462 35.7172 44.964 36.2851C45.0875 36.6075 45.2322 36.9215 45.3971 37.2249C45.5967 37.5941 45.836 37.9404 46.1107 38.2576C46.4438 38.6371 46.901 38.8857 47.4005 38.959C47.9001 39.0324 48.4094 38.9256 48.8375 38.6579L48.969 38.5748C49.3697 38.3224 49.7488 38.0371 50.1023 37.7219C50.4343 37.4228 50.7439 37.0996 51.0286 36.755C51.2996 36.4248 51.5532 36.0807 51.7886 35.7242C52.0148 35.3703 52.216 35.0145 52.4055 34.6548C52.5931 34.3012 52.7628 33.9385 52.9141 33.568C53.0649 33.2025 53.21 32.837 53.3299 32.4657C53.4498 32.0944 53.5658 31.725 53.6586 31.346C53.7051 31.1526 53.7534 30.9592 53.7921 30.7658L53.8501 30.4854L53.9081 30.145C54.0123 29.5387 53.8835 28.9153 53.5475 28.3999C53.2114 27.8846 52.693 27.5152 52.0961 27.3661Z" fill="#263238"/>
<path d="M41.6819 65.2951C42.0203 64.8619 44.3893 63.8582 44.3893 63.8582C45.2172 65.6349 45.9373 67.4599 46.5456 69.3233L43.4088 69.9634C43.4088 69.9634 42.5676 66.8093 41.6819 65.2951Z" fill="#FFB573"/>
<path d="M47.7503 45.0727C38.6979 45.6896 31.6992 45.7089 35.6907 53.6262C37.4003 57.0143 37.7387 58.8302 39.601 63.0151C40.4016 64.8175 40.6666 65.3454 41.2409 66.5928C41.8462 67.7009 44.7412 67.1884 45.772 66.6276C46.9961 65.8057 45.712 64.0575 45.4548 63.0267C44.1997 57.9987 45.48 56.2021 43.5616 52.9977C46.5262 53.1505 54.3584 53.253 55.5883 48.2017C55.5902 48.2017 54.1147 45.0727 47.7503 45.0727Z" fill="#263238"/>
<path d="M42.053 67.1303L42.523 67.8652C42.5512 67.909 42.5927 67.9426 42.6415 67.961C42.6902 67.9795 42.7435 67.9818 42.7937 67.9677C43.3023 67.8246 44.8243 67.4204 45.737 67.4359C45.7698 67.4362 45.8022 67.4298 45.8324 67.4172C45.8626 67.4045 45.89 67.3859 45.9128 67.3624C45.9355 67.3389 45.9533 67.311 45.965 67.2804C45.9767 67.2498 45.982 67.2172 45.9807 67.1845C45.9672 66.8789 45.9246 66.4844 45.8937 66.2388C45.8864 66.1753 45.8542 66.1172 45.8042 66.0773C45.7542 66.0374 45.6904 66.019 45.6268 66.0261C44.456 66.157 43.3015 66.4058 42.1807 66.7687C42.1454 66.7802 42.1133 66.7997 42.0868 66.8255C42.0602 66.8514 42.04 66.8831 42.0277 66.9181C42.0154 66.953 42.0112 66.9903 42.0156 67.0271C42.02 67.064 42.0328 67.0993 42.053 67.1303Z" fill="#2196F3"/>
<path d="M47.4444 71.1199L46.7927 68.8515C46.7735 68.8011 46.7365 68.7596 46.6888 68.7346C46.641 68.7097 46.5858 68.7031 46.5335 68.7161L43.304 69.2034C43.0415 69.2247 42.7933 69.3321 42.5981 69.509C41.7774 70.4599 40.65 71.0941 39.4111 71.3017C38.889 71.4042 39.1114 72.4446 40.3374 72.4388C42.3699 72.4291 42.281 72.17 43.9944 71.9205C45.2901 71.7271 45.8393 71.7271 47.0112 71.615C47.0732 71.614 47.1343 71.6001 47.1906 71.5741C47.2469 71.548 47.2971 71.5105 47.3379 71.4638C47.3788 71.4171 47.4093 71.3624 47.4277 71.3032C47.446 71.2439 47.4517 71.1815 47.4444 71.1199Z" fill="#263238"/>
</svg>
